G04 #@! TF.GenerationSoftware,KiCad,Pcbnew,5.0.2+dfsg1-1*
G04 #@! TF.CreationDate,2019-03-26T11:31:00+01:00*
G04 #@! TF.ProjectId,rpisdr,72706973-6472-42e6-9b69-6361645f7063,rev?*
G04 #@! TF.SameCoordinates,Original*
G04 #@! TF.FileFunction,Copper,L1,Top*
G04 #@! TF.FilePolarity,Positive*
%FSLAX46Y46*%
G04 Gerber Fmt 4.6, Leading zero omitted, Abs format (unit mm)*
G04 Created by KiCad (PCBNEW 5.0.2+dfsg1-1) date Tue 26 Mar 2019 11:31:00 AM CET*
%MOMM*%
%LPD*%
G01*
G04 APERTURE LIST*
G04 #@! TA.AperFunction,ComponentPad*
%ADD10R,1.700000X1.700000*%
G04 #@! TD*
G04 #@! TA.AperFunction,ComponentPad*
%ADD11O,1.700000X1.700000*%
G04 #@! TD*
G04 #@! TA.AperFunction,Conductor*
%ADD12C,0.150000*%
G04 #@! TD*
G04 #@! TA.AperFunction,SMDPad,CuDef*
%ADD13C,2.075000*%
G04 #@! TD*
G04 #@! TA.AperFunction,SMDPad,CuDef*
%ADD14C,1.325000*%
G04 #@! TD*
G04 #@! TA.AperFunction,SMDPad,CuDef*
%ADD15C,1.150000*%
G04 #@! TD*
G04 #@! TA.AperFunction,SMDPad,CuDef*
%ADD16C,1.425000*%
G04 #@! TD*
G04 #@! TA.AperFunction,SMDPad,CuDef*
%ADD17C,1.300000*%
G04 #@! TD*
G04 #@! TA.AperFunction,ComponentPad*
%ADD18C,2.000000*%
G04 #@! TD*
G04 #@! TA.AperFunction,SMDPad,CuDef*
%ADD19R,2.000000X2.000000*%
G04 #@! TD*
G04 #@! TA.AperFunction,SMDPad,CuDef*
%ADD20R,1.060000X0.650000*%
G04 #@! TD*
G04 #@! TA.AperFunction,SMDPad,CuDef*
%ADD21R,1.400000X0.300000*%
G04 #@! TD*
G04 #@! TA.AperFunction,SMDPad,CuDef*
%ADD22R,1.450000X0.450000*%
G04 #@! TD*
G04 #@! TA.AperFunction,SMDPad,CuDef*
%ADD23R,2.000000X1.300000*%
G04 #@! TD*
G04 APERTURE END LIST*
D10*
G04 #@! TO.P,J1,1*
G04 #@! TO.N,Net-(J1-Pad1)*
X208267700Y-98996800D03*
D11*
G04 #@! TO.P,J1,2*
G04 #@! TO.N,Net-(J1-Pad2)*
X208267700Y-96456800D03*
G04 #@! TO.P,J1,3*
G04 #@! TO.N,/GPIO2(SDA1)*
X210807700Y-98996800D03*
G04 #@! TO.P,J1,4*
G04 #@! TO.N,Net-(J1-Pad2)*
X210807700Y-96456800D03*
G04 #@! TO.P,J1,5*
G04 #@! TO.N,/GPIO3(SCL1)*
X213347700Y-98996800D03*
G04 #@! TO.P,J1,6*
G04 #@! TO.N,GND*
X213347700Y-96456800D03*
G04 #@! TO.P,J1,7*
G04 #@! TO.N,/GPIO4(GCLK)*
X215887700Y-98996800D03*
G04 #@! TO.P,J1,8*
G04 #@! TO.N,/GPIO14(TXD0)*
X215887700Y-96456800D03*
G04 #@! TO.P,J1,9*
G04 #@! TO.N,GND*
X218427700Y-98996800D03*
G04 #@! TO.P,J1,10*
G04 #@! TO.N,/GPIO15(RXD0)*
X218427700Y-96456800D03*
G04 #@! TO.P,J1,11*
G04 #@! TO.N,/GPIO17(GEN0)*
X220967700Y-98996800D03*
G04 #@! TO.P,J1,12*
G04 #@! TO.N,/GPIO18(GEN1)(PWM0)*
X220967700Y-96456800D03*
G04 #@! TO.P,J1,13*
G04 #@! TO.N,/GPIO27(GEN2)*
X223507700Y-98996800D03*
G04 #@! TO.P,J1,14*
G04 #@! TO.N,GND*
X223507700Y-96456800D03*
G04 #@! TO.P,J1,15*
G04 #@! TO.N,/GPIO22(GEN3)*
X226047700Y-98996800D03*
G04 #@! TO.P,J1,16*
G04 #@! TO.N,/GPIO23(GEN4)*
X226047700Y-96456800D03*
G04 #@! TO.P,J1,17*
G04 #@! TO.N,Net-(J1-Pad17)*
X228587700Y-98996800D03*
G04 #@! TO.P,J1,18*
G04 #@! TO.N,/GPIO24(GEN5)*
X228587700Y-96456800D03*
G04 #@! TO.P,J1,19*
G04 #@! TO.N,Net-(J1-Pad19)*
X231127700Y-98996800D03*
G04 #@! TO.P,J1,20*
G04 #@! TO.N,GND*
X231127700Y-96456800D03*
G04 #@! TO.P,J1,21*
G04 #@! TO.N,/GPIO9(SPI0_MISO)*
X233667700Y-98996800D03*
G04 #@! TO.P,J1,22*
G04 #@! TO.N,/GPIO25(GEN6)*
X233667700Y-96456800D03*
G04 #@! TO.P,J1,23*
G04 #@! TO.N,/GPIO11(SPI0_SCK)*
X236207700Y-98996800D03*
G04 #@! TO.P,J1,24*
G04 #@! TO.N,/GPIO8(SPI0_CE_N)*
X236207700Y-96456800D03*
G04 #@! TO.P,J1,25*
G04 #@! TO.N,GND*
X238747700Y-98996800D03*
G04 #@! TO.P,J1,26*
G04 #@! TO.N,/GPIO7(SPI1_CE_N)*
X238747700Y-96456800D03*
G04 #@! TO.P,J1,27*
G04 #@! TO.N,/ID_SD*
X241287700Y-98996800D03*
G04 #@! TO.P,J1,28*
G04 #@! TO.N,/ID_SC*
X241287700Y-96456800D03*
G04 #@! TO.P,J1,29*
G04 #@! TO.N,/GPIO5*
X243827700Y-98996800D03*
G04 #@! TO.P,J1,30*
G04 #@! TO.N,GND*
X243827700Y-96456800D03*
G04 #@! TO.P,J1,31*
G04 #@! TO.N,/GPIO6*
X246367700Y-98996800D03*
G04 #@! TO.P,J1,32*
G04 #@! TO.N,/GPIO12(PWM0)*
X246367700Y-96456800D03*
G04 #@! TO.P,J1,33*
G04 #@! TO.N,/GPIO13(PWM1)*
X248907700Y-98996800D03*
G04 #@! TO.P,J1,34*
G04 #@! TO.N,GND*
X248907700Y-96456800D03*
G04 #@! TO.P,J1,35*
G04 #@! TO.N,/GPIO19(SPI1_MISO)*
X251447700Y-98996800D03*
G04 #@! TO.P,J1,36*
G04 #@! TO.N,/GPIO16*
X251447700Y-96456800D03*
G04 #@! TO.P,J1,37*
G04 #@! TO.N,/GPIO26*
X253987700Y-98996800D03*
G04 #@! TO.P,J1,38*
G04 #@! TO.N,/GPIO20(SPI1_MOSI)*
X253987700Y-96456800D03*
G04 #@! TO.P,J1,39*
G04 #@! TO.N,GND*
X256527700Y-98996800D03*
G04 #@! TO.P,J1,40*
G04 #@! TO.N,/GPIO21(SPI1_SCK)*
X256527700Y-96456800D03*
G04 #@! TD*
D12*
G04 #@! TO.N,Net-(C1-Pad1)*
G04 #@! TO.C,C1*
G36*
X209474404Y-103819004D02*
X209498673Y-103822604D01*
X209522471Y-103828565D01*
X209545571Y-103836830D01*
X209567749Y-103847320D01*
X209588793Y-103859933D01*
X209608498Y-103874547D01*
X209626677Y-103891023D01*
X209643153Y-103909202D01*
X209657767Y-103928907D01*
X209670380Y-103949951D01*
X209680870Y-103972129D01*
X209689135Y-103995229D01*
X209695096Y-104019027D01*
X209698696Y-104043296D01*
X209699900Y-104067800D01*
X209699900Y-106117800D01*
X209698696Y-106142304D01*
X209695096Y-106166573D01*
X209689135Y-106190371D01*
X209680870Y-106213471D01*
X209670380Y-106235649D01*
X209657767Y-106256693D01*
X209643153Y-106276398D01*
X209626677Y-106294577D01*
X209608498Y-106311053D01*
X209588793Y-106325667D01*
X209567749Y-106338280D01*
X209545571Y-106348770D01*
X209522471Y-106357035D01*
X209498673Y-106362996D01*
X209474404Y-106366596D01*
X209449900Y-106367800D01*
X207874900Y-106367800D01*
X207850396Y-106366596D01*
X207826127Y-106362996D01*
X207802329Y-106357035D01*
X207779229Y-106348770D01*
X207757051Y-106338280D01*
X207736007Y-106325667D01*
X207716302Y-106311053D01*
X207698123Y-106294577D01*
X207681647Y-106276398D01*
X207667033Y-106256693D01*
X207654420Y-106235649D01*
X207643930Y-106213471D01*
X207635665Y-106190371D01*
X207629704Y-106166573D01*
X207626104Y-106142304D01*
X207624900Y-106117800D01*
X207624900Y-104067800D01*
X207626104Y-104043296D01*
X207629704Y-104019027D01*
X207635665Y-103995229D01*
X207643930Y-103972129D01*
X207654420Y-103949951D01*
X207667033Y-103928907D01*
X207681647Y-103909202D01*
X207698123Y-103891023D01*
X207716302Y-103874547D01*
X207736007Y-103859933D01*
X207757051Y-103847320D01*
X207779229Y-103836830D01*
X207802329Y-103828565D01*
X207826127Y-103822604D01*
X207850396Y-103819004D01*
X207874900Y-103817800D01*
X209449900Y-103817800D01*
X209474404Y-103819004D01*
X209474404Y-103819004D01*
G37*
D13*
G04 #@! TD*
G04 #@! TO.P,C1,1*
G04 #@! TO.N,Net-(C1-Pad1)*
X208662400Y-105092800D03*
D12*
G04 #@! TO.N,GND*
G04 #@! TO.C,C1*
G36*
X203249404Y-103819004D02*
X203273673Y-103822604D01*
X203297471Y-103828565D01*
X203320571Y-103836830D01*
X203342749Y-103847320D01*
X203363793Y-103859933D01*
X203383498Y-103874547D01*
X203401677Y-103891023D01*
X203418153Y-103909202D01*
X203432767Y-103928907D01*
X203445380Y-103949951D01*
X203455870Y-103972129D01*
X203464135Y-103995229D01*
X203470096Y-104019027D01*
X203473696Y-104043296D01*
X203474900Y-104067800D01*
X203474900Y-106117800D01*
X203473696Y-106142304D01*
X203470096Y-106166573D01*
X203464135Y-106190371D01*
X203455870Y-106213471D01*
X203445380Y-106235649D01*
X203432767Y-106256693D01*
X203418153Y-106276398D01*
X203401677Y-106294577D01*
X203383498Y-106311053D01*
X203363793Y-106325667D01*
X203342749Y-106338280D01*
X203320571Y-106348770D01*
X203297471Y-106357035D01*
X203273673Y-106362996D01*
X203249404Y-106366596D01*
X203224900Y-106367800D01*
X201649900Y-106367800D01*
X201625396Y-106366596D01*
X201601127Y-106362996D01*
X201577329Y-106357035D01*
X201554229Y-106348770D01*
X201532051Y-106338280D01*
X201511007Y-106325667D01*
X201491302Y-106311053D01*
X201473123Y-106294577D01*
X201456647Y-106276398D01*
X201442033Y-106256693D01*
X201429420Y-106235649D01*
X201418930Y-106213471D01*
X201410665Y-106190371D01*
X201404704Y-106166573D01*
X201401104Y-106142304D01*
X201399900Y-106117800D01*
X201399900Y-104067800D01*
X201401104Y-104043296D01*
X201404704Y-104019027D01*
X201410665Y-103995229D01*
X201418930Y-103972129D01*
X201429420Y-103949951D01*
X201442033Y-103928907D01*
X201456647Y-103909202D01*
X201473123Y-103891023D01*
X201491302Y-103874547D01*
X201511007Y-103859933D01*
X201532051Y-103847320D01*
X201554229Y-103836830D01*
X201577329Y-103828565D01*
X201601127Y-103822604D01*
X201625396Y-103819004D01*
X201649900Y-103817800D01*
X203224900Y-103817800D01*
X203249404Y-103819004D01*
X203249404Y-103819004D01*
G37*
D13*
G04 #@! TD*
G04 #@! TO.P,C1,2*
G04 #@! TO.N,GND*
X202437400Y-105092800D03*
D12*
G04 #@! TO.N,Net-(C2-Pad1)*
G04 #@! TO.C,C2*
G36*
X230638405Y-107589304D02*
X230662673Y-107592904D01*
X230686472Y-107598865D01*
X230709571Y-107607130D01*
X230731750Y-107617620D01*
X230752793Y-107630232D01*
X230772499Y-107644847D01*
X230790677Y-107661323D01*
X230807153Y-107679501D01*
X230821768Y-107699207D01*
X230834380Y-107720250D01*
X230844870Y-107742429D01*
X230853135Y-107765528D01*
X230859096Y-107789327D01*
X230862696Y-107813595D01*
X230863900Y-107838099D01*
X230863900Y-109688101D01*
X230862696Y-109712605D01*
X230859096Y-109736873D01*
X230853135Y-109760672D01*
X230844870Y-109783771D01*
X230834380Y-109805950D01*
X230821768Y-109826993D01*
X230807153Y-109846699D01*
X230790677Y-109864877D01*
X230772499Y-109881353D01*
X230752793Y-109895968D01*
X230731750Y-109908580D01*
X230709571Y-109919070D01*
X230686472Y-109927335D01*
X230662673Y-109933296D01*
X230638405Y-109936896D01*
X230613901Y-109938100D01*
X229788899Y-109938100D01*
X229764395Y-109936896D01*
X229740127Y-109933296D01*
X229716328Y-109927335D01*
X229693229Y-109919070D01*
X229671050Y-109908580D01*
X229650007Y-109895968D01*
X229630301Y-109881353D01*
X229612123Y-109864877D01*
X229595647Y-109846699D01*
X229581032Y-109826993D01*
X229568420Y-109805950D01*
X229557930Y-109783771D01*
X229549665Y-109760672D01*
X229543704Y-109736873D01*
X229540104Y-109712605D01*
X229538900Y-109688101D01*
X229538900Y-107838099D01*
X229540104Y-107813595D01*
X229543704Y-107789327D01*
X229549665Y-107765528D01*
X229557930Y-107742429D01*
X229568420Y-107720250D01*
X229581032Y-107699207D01*
X229595647Y-107679501D01*
X229612123Y-107661323D01*
X229630301Y-107644847D01*
X229650007Y-107630232D01*
X229671050Y-107617620D01*
X229693229Y-107607130D01*
X229716328Y-107598865D01*
X229740127Y-107592904D01*
X229764395Y-107589304D01*
X229788899Y-107588100D01*
X230613901Y-107588100D01*
X230638405Y-107589304D01*
X230638405Y-107589304D01*
G37*
D14*
G04 #@! TD*
G04 #@! TO.P,C2,1*
G04 #@! TO.N,Net-(C2-Pad1)*
X230201400Y-108763100D03*
D12*
G04 #@! TO.N,GND*
G04 #@! TO.C,C2*
G36*
X227563405Y-107589304D02*
X227587673Y-107592904D01*
X227611472Y-107598865D01*
X227634571Y-107607130D01*
X227656750Y-107617620D01*
X227677793Y-107630232D01*
X227697499Y-107644847D01*
X227715677Y-107661323D01*
X227732153Y-107679501D01*
X227746768Y-107699207D01*
X227759380Y-107720250D01*
X227769870Y-107742429D01*
X227778135Y-107765528D01*
X227784096Y-107789327D01*
X227787696Y-107813595D01*
X227788900Y-107838099D01*
X227788900Y-109688101D01*
X227787696Y-109712605D01*
X227784096Y-109736873D01*
X227778135Y-109760672D01*
X227769870Y-109783771D01*
X227759380Y-109805950D01*
X227746768Y-109826993D01*
X227732153Y-109846699D01*
X227715677Y-109864877D01*
X227697499Y-109881353D01*
X227677793Y-109895968D01*
X227656750Y-109908580D01*
X227634571Y-109919070D01*
X227611472Y-109927335D01*
X227587673Y-109933296D01*
X227563405Y-109936896D01*
X227538901Y-109938100D01*
X226713899Y-109938100D01*
X226689395Y-109936896D01*
X226665127Y-109933296D01*
X226641328Y-109927335D01*
X226618229Y-109919070D01*
X226596050Y-109908580D01*
X226575007Y-109895968D01*
X226555301Y-109881353D01*
X226537123Y-109864877D01*
X226520647Y-109846699D01*
X226506032Y-109826993D01*
X226493420Y-109805950D01*
X226482930Y-109783771D01*
X226474665Y-109760672D01*
X226468704Y-109736873D01*
X226465104Y-109712605D01*
X226463900Y-109688101D01*
X226463900Y-107838099D01*
X226465104Y-107813595D01*
X226468704Y-107789327D01*
X226474665Y-107765528D01*
X226482930Y-107742429D01*
X226493420Y-107720250D01*
X226506032Y-107699207D01*
X226520647Y-107679501D01*
X226537123Y-107661323D01*
X226555301Y-107644847D01*
X226575007Y-107630232D01*
X226596050Y-107617620D01*
X226618229Y-107607130D01*
X226641328Y-107598865D01*
X226665127Y-107592904D01*
X226689395Y-107589304D01*
X226713899Y-107588100D01*
X227538901Y-107588100D01*
X227563405Y-107589304D01*
X227563405Y-107589304D01*
G37*
D14*
G04 #@! TD*
G04 #@! TO.P,C2,2*
G04 #@! TO.N,GND*
X227126400Y-108763100D03*
D12*
G04 #@! TO.N,GND*
G04 #@! TO.C,C3*
G36*
X236147105Y-106603804D02*
X236171373Y-106607404D01*
X236195172Y-106613365D01*
X236218271Y-106621630D01*
X236240450Y-106632120D01*
X236261493Y-106644732D01*
X236281199Y-106659347D01*
X236299377Y-106675823D01*
X236315853Y-106694001D01*
X236330468Y-106713707D01*
X236343080Y-106734750D01*
X236353570Y-106756929D01*
X236361835Y-106780028D01*
X236367796Y-106803827D01*
X236371396Y-106828095D01*
X236372600Y-106852599D01*
X236372600Y-107752601D01*
X236371396Y-107777105D01*
X236367796Y-107801373D01*
X236361835Y-107825172D01*
X236353570Y-107848271D01*
X236343080Y-107870450D01*
X236330468Y-107891493D01*
X236315853Y-107911199D01*
X236299377Y-107929377D01*
X236281199Y-107945853D01*
X236261493Y-107960468D01*
X236240450Y-107973080D01*
X236218271Y-107983570D01*
X236195172Y-107991835D01*
X236171373Y-107997796D01*
X236147105Y-108001396D01*
X236122601Y-108002600D01*
X235472599Y-108002600D01*
X235448095Y-108001396D01*
X235423827Y-107997796D01*
X235400028Y-107991835D01*
X235376929Y-107983570D01*
X235354750Y-107973080D01*
X235333707Y-107960468D01*
X235314001Y-107945853D01*
X235295823Y-107929377D01*
X235279347Y-107911199D01*
X235264732Y-107891493D01*
X235252120Y-107870450D01*
X235241630Y-107848271D01*
X235233365Y-107825172D01*
X235227404Y-107801373D01*
X235223804Y-107777105D01*
X235222600Y-107752601D01*
X235222600Y-106852599D01*
X235223804Y-106828095D01*
X235227404Y-106803827D01*
X235233365Y-106780028D01*
X235241630Y-106756929D01*
X235252120Y-106734750D01*
X235264732Y-106713707D01*
X235279347Y-106694001D01*
X235295823Y-106675823D01*
X235314001Y-106659347D01*
X235333707Y-106644732D01*
X235354750Y-106632120D01*
X235376929Y-106621630D01*
X235400028Y-106613365D01*
X235423827Y-106607404D01*
X235448095Y-106603804D01*
X235472599Y-106602600D01*
X236122601Y-106602600D01*
X236147105Y-106603804D01*
X236147105Y-106603804D01*
G37*
D15*
G04 #@! TD*
G04 #@! TO.P,C3,2*
G04 #@! TO.N,GND*
X235797600Y-107302600D03*
D12*
G04 #@! TO.N,Net-(C3-Pad1)*
G04 #@! TO.C,C3*
G36*
X234097105Y-106603804D02*
X234121373Y-106607404D01*
X234145172Y-106613365D01*
X234168271Y-106621630D01*
X234190450Y-106632120D01*
X234211493Y-106644732D01*
X234231199Y-106659347D01*
X234249377Y-106675823D01*
X234265853Y-106694001D01*
X234280468Y-106713707D01*
X234293080Y-106734750D01*
X234303570Y-106756929D01*
X234311835Y-106780028D01*
X234317796Y-106803827D01*
X234321396Y-106828095D01*
X234322600Y-106852599D01*
X234322600Y-107752601D01*
X234321396Y-107777105D01*
X234317796Y-107801373D01*
X234311835Y-107825172D01*
X234303570Y-107848271D01*
X234293080Y-107870450D01*
X234280468Y-107891493D01*
X234265853Y-107911199D01*
X234249377Y-107929377D01*
X234231199Y-107945853D01*
X234211493Y-107960468D01*
X234190450Y-107973080D01*
X234168271Y-107983570D01*
X234145172Y-107991835D01*
X234121373Y-107997796D01*
X234097105Y-108001396D01*
X234072601Y-108002600D01*
X233422599Y-108002600D01*
X233398095Y-108001396D01*
X233373827Y-107997796D01*
X233350028Y-107991835D01*
X233326929Y-107983570D01*
X233304750Y-107973080D01*
X233283707Y-107960468D01*
X233264001Y-107945853D01*
X233245823Y-107929377D01*
X233229347Y-107911199D01*
X233214732Y-107891493D01*
X233202120Y-107870450D01*
X233191630Y-107848271D01*
X233183365Y-107825172D01*
X233177404Y-107801373D01*
X233173804Y-107777105D01*
X233172600Y-107752601D01*
X233172600Y-106852599D01*
X233173804Y-106828095D01*
X233177404Y-106803827D01*
X233183365Y-106780028D01*
X233191630Y-106756929D01*
X233202120Y-106734750D01*
X233214732Y-106713707D01*
X233229347Y-106694001D01*
X233245823Y-106675823D01*
X233264001Y-106659347D01*
X233283707Y-106644732D01*
X233304750Y-106632120D01*
X233326929Y-106621630D01*
X233350028Y-106613365D01*
X233373827Y-106607404D01*
X233398095Y-106603804D01*
X233422599Y-106602600D01*
X234072601Y-106602600D01*
X234097105Y-106603804D01*
X234097105Y-106603804D01*
G37*
D15*
G04 #@! TD*
G04 #@! TO.P,C3,1*
G04 #@! TO.N,Net-(C3-Pad1)*
X233747600Y-107302600D03*
D12*
G04 #@! TO.N,Net-(C5-Pad1)*
G04 #@! TO.C,C5*
G36*
X236453404Y-117820704D02*
X236477673Y-117824304D01*
X236501471Y-117830265D01*
X236524571Y-117838530D01*
X236546749Y-117849020D01*
X236567793Y-117861633D01*
X236587498Y-117876247D01*
X236605677Y-117892723D01*
X236622153Y-117910902D01*
X236636767Y-117930607D01*
X236649380Y-117951651D01*
X236659870Y-117973829D01*
X236668135Y-117996929D01*
X236674096Y-118020727D01*
X236677696Y-118044996D01*
X236678900Y-118069500D01*
X236678900Y-119319500D01*
X236677696Y-119344004D01*
X236674096Y-119368273D01*
X236668135Y-119392071D01*
X236659870Y-119415171D01*
X236649380Y-119437349D01*
X236636767Y-119458393D01*
X236622153Y-119478098D01*
X236605677Y-119496277D01*
X236587498Y-119512753D01*
X236567793Y-119527367D01*
X236546749Y-119539980D01*
X236524571Y-119550470D01*
X236501471Y-119558735D01*
X236477673Y-119564696D01*
X236453404Y-119568296D01*
X236428900Y-119569500D01*
X235503900Y-119569500D01*
X235479396Y-119568296D01*
X235455127Y-119564696D01*
X235431329Y-119558735D01*
X235408229Y-119550470D01*
X235386051Y-119539980D01*
X235365007Y-119527367D01*
X235345302Y-119512753D01*
X235327123Y-119496277D01*
X235310647Y-119478098D01*
X235296033Y-119458393D01*
X235283420Y-119437349D01*
X235272930Y-119415171D01*
X235264665Y-119392071D01*
X235258704Y-119368273D01*
X235255104Y-119344004D01*
X235253900Y-119319500D01*
X235253900Y-118069500D01*
X235255104Y-118044996D01*
X235258704Y-118020727D01*
X235264665Y-117996929D01*
X235272930Y-117973829D01*
X235283420Y-117951651D01*
X235296033Y-117930607D01*
X235310647Y-117910902D01*
X235327123Y-117892723D01*
X235345302Y-117876247D01*
X235365007Y-117861633D01*
X235386051Y-117849020D01*
X235408229Y-117838530D01*
X235431329Y-117830265D01*
X235455127Y-117824304D01*
X235479396Y-117820704D01*
X235503900Y-117819500D01*
X236428900Y-117819500D01*
X236453404Y-117820704D01*
X236453404Y-117820704D01*
G37*
D16*
G04 #@! TD*
G04 #@! TO.P,C5,1*
G04 #@! TO.N,Net-(C5-Pad1)*
X235966400Y-118694500D03*
D12*
G04 #@! TO.N,/ADC_SPI/Sin*
G04 #@! TO.C,C5*
G36*
X233478404Y-117820704D02*
X233502673Y-117824304D01*
X233526471Y-117830265D01*
X233549571Y-117838530D01*
X233571749Y-117849020D01*
X233592793Y-117861633D01*
X233612498Y-117876247D01*
X233630677Y-117892723D01*
X233647153Y-117910902D01*
X233661767Y-117930607D01*
X233674380Y-117951651D01*
X233684870Y-117973829D01*
X233693135Y-117996929D01*
X233699096Y-118020727D01*
X233702696Y-118044996D01*
X233703900Y-118069500D01*
X233703900Y-119319500D01*
X233702696Y-119344004D01*
X233699096Y-119368273D01*
X233693135Y-119392071D01*
X233684870Y-119415171D01*
X233674380Y-119437349D01*
X233661767Y-119458393D01*
X233647153Y-119478098D01*
X233630677Y-119496277D01*
X233612498Y-119512753D01*
X233592793Y-119527367D01*
X233571749Y-119539980D01*
X233549571Y-119550470D01*
X233526471Y-119558735D01*
X233502673Y-119564696D01*
X233478404Y-119568296D01*
X233453900Y-119569500D01*
X232528900Y-119569500D01*
X232504396Y-119568296D01*
X232480127Y-119564696D01*
X232456329Y-119558735D01*
X232433229Y-119550470D01*
X232411051Y-119539980D01*
X232390007Y-119527367D01*
X232370302Y-119512753D01*
X232352123Y-119496277D01*
X232335647Y-119478098D01*
X232321033Y-119458393D01*
X232308420Y-119437349D01*
X232297930Y-119415171D01*
X232289665Y-119392071D01*
X232283704Y-119368273D01*
X232280104Y-119344004D01*
X232278900Y-119319500D01*
X232278900Y-118069500D01*
X232280104Y-118044996D01*
X232283704Y-118020727D01*
X232289665Y-117996929D01*
X232297930Y-117973829D01*
X232308420Y-117951651D01*
X232321033Y-117930607D01*
X232335647Y-117910902D01*
X232352123Y-117892723D01*
X232370302Y-117876247D01*
X232390007Y-117861633D01*
X232411051Y-117849020D01*
X232433229Y-117838530D01*
X232456329Y-117830265D01*
X232480127Y-117824304D01*
X232504396Y-117820704D01*
X232528900Y-117819500D01*
X233453900Y-117819500D01*
X233478404Y-117820704D01*
X233478404Y-117820704D01*
G37*
D16*
G04 #@! TD*
G04 #@! TO.P,C5,2*
G04 #@! TO.N,/ADC_SPI/Sin*
X232991400Y-118694500D03*
D12*
G04 #@! TO.N,GND*
G04 #@! TO.C,C6*
G36*
X252187104Y-111496104D02*
X252211373Y-111499704D01*
X252235171Y-111505665D01*
X252258271Y-111513930D01*
X252280449Y-111524420D01*
X252301493Y-111537033D01*
X252321198Y-111551647D01*
X252339377Y-111568123D01*
X252355853Y-111586302D01*
X252370467Y-111606007D01*
X252383080Y-111627051D01*
X252393570Y-111649229D01*
X252401835Y-111672329D01*
X252407796Y-111696127D01*
X252411396Y-111720396D01*
X252412600Y-111744900D01*
X252412600Y-112994900D01*
X252411396Y-113019404D01*
X252407796Y-113043673D01*
X252401835Y-113067471D01*
X252393570Y-113090571D01*
X252383080Y-113112749D01*
X252370467Y-113133793D01*
X252355853Y-113153498D01*
X252339377Y-113171677D01*
X252321198Y-113188153D01*
X252301493Y-113202767D01*
X252280449Y-113215380D01*
X252258271Y-113225870D01*
X252235171Y-113234135D01*
X252211373Y-113240096D01*
X252187104Y-113243696D01*
X252162600Y-113244900D01*
X251237600Y-113244900D01*
X251213096Y-113243696D01*
X251188827Y-113240096D01*
X251165029Y-113234135D01*
X251141929Y-113225870D01*
X251119751Y-113215380D01*
X251098707Y-113202767D01*
X251079002Y-113188153D01*
X251060823Y-113171677D01*
X251044347Y-113153498D01*
X251029733Y-113133793D01*
X251017120Y-113112749D01*
X251006630Y-113090571D01*
X250998365Y-113067471D01*
X250992404Y-113043673D01*
X250988804Y-113019404D01*
X250987600Y-112994900D01*
X250987600Y-111744900D01*
X250988804Y-111720396D01*
X250992404Y-111696127D01*
X250998365Y-111672329D01*
X251006630Y-111649229D01*
X251017120Y-111627051D01*
X251029733Y-111606007D01*
X251044347Y-111586302D01*
X251060823Y-111568123D01*
X251079002Y-111551647D01*
X251098707Y-111537033D01*
X251119751Y-111524420D01*
X251141929Y-111513930D01*
X251165029Y-111505665D01*
X251188827Y-111499704D01*
X251213096Y-111496104D01*
X251237600Y-111494900D01*
X252162600Y-111494900D01*
X252187104Y-111496104D01*
X252187104Y-111496104D01*
G37*
D16*
G04 #@! TD*
G04 #@! TO.P,C6,2*
G04 #@! TO.N,GND*
X251700100Y-112369900D03*
D12*
G04 #@! TO.N,Net-(C6-Pad1)*
G04 #@! TO.C,C6*
G36*
X255162104Y-111496104D02*
X255186373Y-111499704D01*
X255210171Y-111505665D01*
X255233271Y-111513930D01*
X255255449Y-111524420D01*
X255276493Y-111537033D01*
X255296198Y-111551647D01*
X255314377Y-111568123D01*
X255330853Y-111586302D01*
X255345467Y-111606007D01*
X255358080Y-111627051D01*
X255368570Y-111649229D01*
X255376835Y-111672329D01*
X255382796Y-111696127D01*
X255386396Y-111720396D01*
X255387600Y-111744900D01*
X255387600Y-112994900D01*
X255386396Y-113019404D01*
X255382796Y-113043673D01*
X255376835Y-113067471D01*
X255368570Y-113090571D01*
X255358080Y-113112749D01*
X255345467Y-113133793D01*
X255330853Y-113153498D01*
X255314377Y-113171677D01*
X255296198Y-113188153D01*
X255276493Y-113202767D01*
X255255449Y-113215380D01*
X255233271Y-113225870D01*
X255210171Y-113234135D01*
X255186373Y-113240096D01*
X255162104Y-113243696D01*
X255137600Y-113244900D01*
X254212600Y-113244900D01*
X254188096Y-113243696D01*
X254163827Y-113240096D01*
X254140029Y-113234135D01*
X254116929Y-113225870D01*
X254094751Y-113215380D01*
X254073707Y-113202767D01*
X254054002Y-113188153D01*
X254035823Y-113171677D01*
X254019347Y-113153498D01*
X254004733Y-113133793D01*
X253992120Y-113112749D01*
X253981630Y-113090571D01*
X253973365Y-113067471D01*
X253967404Y-113043673D01*
X253963804Y-113019404D01*
X253962600Y-112994900D01*
X253962600Y-111744900D01*
X253963804Y-111720396D01*
X253967404Y-111696127D01*
X253973365Y-111672329D01*
X253981630Y-111649229D01*
X253992120Y-111627051D01*
X254004733Y-111606007D01*
X254019347Y-111586302D01*
X254035823Y-111568123D01*
X254054002Y-111551647D01*
X254073707Y-111537033D01*
X254094751Y-111524420D01*
X254116929Y-111513930D01*
X254140029Y-111505665D01*
X254163827Y-111499704D01*
X254188096Y-111496104D01*
X254212600Y-111494900D01*
X255137600Y-111494900D01*
X255162104Y-111496104D01*
X255162104Y-111496104D01*
G37*
D16*
G04 #@! TD*
G04 #@! TO.P,C6,1*
G04 #@! TO.N,Net-(C6-Pad1)*
X254675100Y-112369900D03*
D12*
G04 #@! TO.N,/ADC_SPI/V4.5A*
G04 #@! TO.C,C7*
G36*
X236099404Y-113375704D02*
X236123673Y-113379304D01*
X236147471Y-113385265D01*
X236170571Y-113393530D01*
X236192749Y-113404020D01*
X236213793Y-113416633D01*
X236233498Y-113431247D01*
X236251677Y-113447723D01*
X236268153Y-113465902D01*
X236282767Y-113485607D01*
X236295380Y-113506651D01*
X236305870Y-113528829D01*
X236314135Y-113551929D01*
X236320096Y-113575727D01*
X236323696Y-113599996D01*
X236324900Y-113624500D01*
X236324900Y-114874500D01*
X236323696Y-114899004D01*
X236320096Y-114923273D01*
X236314135Y-114947071D01*
X236305870Y-114970171D01*
X236295380Y-114992349D01*
X236282767Y-115013393D01*
X236268153Y-115033098D01*
X236251677Y-115051277D01*
X236233498Y-115067753D01*
X236213793Y-115082367D01*
X236192749Y-115094980D01*
X236170571Y-115105470D01*
X236147471Y-115113735D01*
X236123673Y-115119696D01*
X236099404Y-115123296D01*
X236074900Y-115124500D01*
X235149900Y-115124500D01*
X235125396Y-115123296D01*
X235101127Y-115119696D01*
X235077329Y-115113735D01*
X235054229Y-115105470D01*
X235032051Y-115094980D01*
X235011007Y-115082367D01*
X234991302Y-115067753D01*
X234973123Y-115051277D01*
X234956647Y-115033098D01*
X234942033Y-115013393D01*
X234929420Y-114992349D01*
X234918930Y-114970171D01*
X234910665Y-114947071D01*
X234904704Y-114923273D01*
X234901104Y-114899004D01*
X234899900Y-114874500D01*
X234899900Y-113624500D01*
X234901104Y-113599996D01*
X234904704Y-113575727D01*
X234910665Y-113551929D01*
X234918930Y-113528829D01*
X234929420Y-113506651D01*
X234942033Y-113485607D01*
X234956647Y-113465902D01*
X234973123Y-113447723D01*
X234991302Y-113431247D01*
X235011007Y-113416633D01*
X235032051Y-113404020D01*
X235054229Y-113393530D01*
X235077329Y-113385265D01*
X235101127Y-113379304D01*
X235125396Y-113375704D01*
X235149900Y-113374500D01*
X236074900Y-113374500D01*
X236099404Y-113375704D01*
X236099404Y-113375704D01*
G37*
D16*
G04 #@! TD*
G04 #@! TO.P,C7,1*
G04 #@! TO.N,/ADC_SPI/V4.5A*
X235612400Y-114249500D03*
D12*
G04 #@! TO.N,GND*
G04 #@! TO.C,C7*
G36*
X233124404Y-113375704D02*
X233148673Y-113379304D01*
X233172471Y-113385265D01*
X233195571Y-113393530D01*
X233217749Y-113404020D01*
X233238793Y-113416633D01*
X233258498Y-113431247D01*
X233276677Y-113447723D01*
X233293153Y-113465902D01*
X233307767Y-113485607D01*
X233320380Y-113506651D01*
X233330870Y-113528829D01*
X233339135Y-113551929D01*
X233345096Y-113575727D01*
X233348696Y-113599996D01*
X233349900Y-113624500D01*
X233349900Y-114874500D01*
X233348696Y-114899004D01*
X233345096Y-114923273D01*
X233339135Y-114947071D01*
X233330870Y-114970171D01*
X233320380Y-114992349D01*
X233307767Y-115013393D01*
X233293153Y-115033098D01*
X233276677Y-115051277D01*
X233258498Y-115067753D01*
X233238793Y-115082367D01*
X233217749Y-115094980D01*
X233195571Y-115105470D01*
X233172471Y-115113735D01*
X233148673Y-115119696D01*
X233124404Y-115123296D01*
X233099900Y-115124500D01*
X232174900Y-115124500D01*
X232150396Y-115123296D01*
X232126127Y-115119696D01*
X232102329Y-115113735D01*
X232079229Y-115105470D01*
X232057051Y-115094980D01*
X232036007Y-115082367D01*
X232016302Y-115067753D01*
X231998123Y-115051277D01*
X231981647Y-115033098D01*
X231967033Y-115013393D01*
X231954420Y-114992349D01*
X231943930Y-114970171D01*
X231935665Y-114947071D01*
X231929704Y-114923273D01*
X231926104Y-114899004D01*
X231924900Y-114874500D01*
X231924900Y-113624500D01*
X231926104Y-113599996D01*
X231929704Y-113575727D01*
X231935665Y-113551929D01*
X231943930Y-113528829D01*
X231954420Y-113506651D01*
X231967033Y-113485607D01*
X231981647Y-113465902D01*
X231998123Y-113447723D01*
X232016302Y-113431247D01*
X232036007Y-113416633D01*
X232057051Y-113404020D01*
X232079229Y-113393530D01*
X232102329Y-113385265D01*
X232126127Y-113379304D01*
X232150396Y-113375704D01*
X232174900Y-113374500D01*
X233099900Y-113374500D01*
X233124404Y-113375704D01*
X233124404Y-113375704D01*
G37*
D16*
G04 #@! TD*
G04 #@! TO.P,C7,2*
G04 #@! TO.N,GND*
X232637400Y-114249500D03*
D12*
G04 #@! TO.N,GND*
G04 #@! TO.C,C8*
G36*
X224932904Y-102631504D02*
X224957173Y-102635104D01*
X224980971Y-102641065D01*
X225004071Y-102649330D01*
X225026249Y-102659820D01*
X225047293Y-102672433D01*
X225066998Y-102687047D01*
X225085177Y-102703523D01*
X225101653Y-102721702D01*
X225116267Y-102741407D01*
X225128880Y-102762451D01*
X225139370Y-102784629D01*
X225147635Y-102807729D01*
X225153596Y-102831527D01*
X225157196Y-102855796D01*
X225158400Y-102880300D01*
X225158400Y-104130300D01*
X225157196Y-104154804D01*
X225153596Y-104179073D01*
X225147635Y-104202871D01*
X225139370Y-104225971D01*
X225128880Y-104248149D01*
X225116267Y-104269193D01*
X225101653Y-104288898D01*
X225085177Y-104307077D01*
X225066998Y-104323553D01*
X225047293Y-104338167D01*
X225026249Y-104350780D01*
X225004071Y-104361270D01*
X224980971Y-104369535D01*
X224957173Y-104375496D01*
X224932904Y-104379096D01*
X224908400Y-104380300D01*
X223983400Y-104380300D01*
X223958896Y-104379096D01*
X223934627Y-104375496D01*
X223910829Y-104369535D01*
X223887729Y-104361270D01*
X223865551Y-104350780D01*
X223844507Y-104338167D01*
X223824802Y-104323553D01*
X223806623Y-104307077D01*
X223790147Y-104288898D01*
X223775533Y-104269193D01*
X223762920Y-104248149D01*
X223752430Y-104225971D01*
X223744165Y-104202871D01*
X223738204Y-104179073D01*
X223734604Y-104154804D01*
X223733400Y-104130300D01*
X223733400Y-102880300D01*
X223734604Y-102855796D01*
X223738204Y-102831527D01*
X223744165Y-102807729D01*
X223752430Y-102784629D01*
X223762920Y-102762451D01*
X223775533Y-102741407D01*
X223790147Y-102721702D01*
X223806623Y-102703523D01*
X223824802Y-102687047D01*
X223844507Y-102672433D01*
X223865551Y-102659820D01*
X223887729Y-102649330D01*
X223910829Y-102641065D01*
X223934627Y-102635104D01*
X223958896Y-102631504D01*
X223983400Y-102630300D01*
X224908400Y-102630300D01*
X224932904Y-102631504D01*
X224932904Y-102631504D01*
G37*
D16*
G04 #@! TD*
G04 #@! TO.P,C8,2*
G04 #@! TO.N,GND*
X224445900Y-103505300D03*
D12*
G04 #@! TO.N,Net-(C8-Pad1)*
G04 #@! TO.C,C8*
G36*
X227907904Y-102631504D02*
X227932173Y-102635104D01*
X227955971Y-102641065D01*
X227979071Y-102649330D01*
X228001249Y-102659820D01*
X228022293Y-102672433D01*
X228041998Y-102687047D01*
X228060177Y-102703523D01*
X228076653Y-102721702D01*
X228091267Y-102741407D01*
X228103880Y-102762451D01*
X228114370Y-102784629D01*
X228122635Y-102807729D01*
X228128596Y-102831527D01*
X228132196Y-102855796D01*
X228133400Y-102880300D01*
X228133400Y-104130300D01*
X228132196Y-104154804D01*
X228128596Y-104179073D01*
X228122635Y-104202871D01*
X228114370Y-104225971D01*
X228103880Y-104248149D01*
X228091267Y-104269193D01*
X228076653Y-104288898D01*
X228060177Y-104307077D01*
X228041998Y-104323553D01*
X228022293Y-104338167D01*
X228001249Y-104350780D01*
X227979071Y-104361270D01*
X227955971Y-104369535D01*
X227932173Y-104375496D01*
X227907904Y-104379096D01*
X227883400Y-104380300D01*
X226958400Y-104380300D01*
X226933896Y-104379096D01*
X226909627Y-104375496D01*
X226885829Y-104369535D01*
X226862729Y-104361270D01*
X226840551Y-104350780D01*
X226819507Y-104338167D01*
X226799802Y-104323553D01*
X226781623Y-104307077D01*
X226765147Y-104288898D01*
X226750533Y-104269193D01*
X226737920Y-104248149D01*
X226727430Y-104225971D01*
X226719165Y-104202871D01*
X226713204Y-104179073D01*
X226709604Y-104154804D01*
X226708400Y-104130300D01*
X226708400Y-102880300D01*
X226709604Y-102855796D01*
X226713204Y-102831527D01*
X226719165Y-102807729D01*
X226727430Y-102784629D01*
X226737920Y-102762451D01*
X226750533Y-102741407D01*
X226765147Y-102721702D01*
X226781623Y-102703523D01*
X226799802Y-102687047D01*
X226819507Y-102672433D01*
X226840551Y-102659820D01*
X226862729Y-102649330D01*
X226885829Y-102641065D01*
X226909627Y-102635104D01*
X226933896Y-102631504D01*
X226958400Y-102630300D01*
X227883400Y-102630300D01*
X227907904Y-102631504D01*
X227907904Y-102631504D01*
G37*
D16*
G04 #@! TD*
G04 #@! TO.P,C8,1*
G04 #@! TO.N,Net-(C8-Pad1)*
X227420900Y-103505300D03*
D12*
G04 #@! TO.N,/PREAMP/Ain*
G04 #@! TO.C,C9*
G36*
X250486904Y-125783604D02*
X250511173Y-125787204D01*
X250534971Y-125793165D01*
X250558071Y-125801430D01*
X250580249Y-125811920D01*
X250601293Y-125824533D01*
X250620998Y-125839147D01*
X250639177Y-125855623D01*
X250655653Y-125873802D01*
X250670267Y-125893507D01*
X250682880Y-125914551D01*
X250693370Y-125936729D01*
X250701635Y-125959829D01*
X250707596Y-125983627D01*
X250711196Y-126007896D01*
X250712400Y-126032400D01*
X250712400Y-127282400D01*
X250711196Y-127306904D01*
X250707596Y-127331173D01*
X250701635Y-127354971D01*
X250693370Y-127378071D01*
X250682880Y-127400249D01*
X250670267Y-127421293D01*
X250655653Y-127440998D01*
X250639177Y-127459177D01*
X250620998Y-127475653D01*
X250601293Y-127490267D01*
X250580249Y-127502880D01*
X250558071Y-127513370D01*
X250534971Y-127521635D01*
X250511173Y-127527596D01*
X250486904Y-127531196D01*
X250462400Y-127532400D01*
X249537400Y-127532400D01*
X249512896Y-127531196D01*
X249488627Y-127527596D01*
X249464829Y-127521635D01*
X249441729Y-127513370D01*
X249419551Y-127502880D01*
X249398507Y-127490267D01*
X249378802Y-127475653D01*
X249360623Y-127459177D01*
X249344147Y-127440998D01*
X249329533Y-127421293D01*
X249316920Y-127400249D01*
X249306430Y-127378071D01*
X249298165Y-127354971D01*
X249292204Y-127331173D01*
X249288604Y-127306904D01*
X249287400Y-127282400D01*
X249287400Y-126032400D01*
X249288604Y-126007896D01*
X249292204Y-125983627D01*
X249298165Y-125959829D01*
X249306430Y-125936729D01*
X249316920Y-125914551D01*
X249329533Y-125893507D01*
X249344147Y-125873802D01*
X249360623Y-125855623D01*
X249378802Y-125839147D01*
X249398507Y-125824533D01*
X249419551Y-125811920D01*
X249441729Y-125801430D01*
X249464829Y-125793165D01*
X249488627Y-125787204D01*
X249512896Y-125783604D01*
X249537400Y-125782400D01*
X250462400Y-125782400D01*
X250486904Y-125783604D01*
X250486904Y-125783604D01*
G37*
D16*
G04 #@! TD*
G04 #@! TO.P,C9,2*
G04 #@! TO.N,/PREAMP/Ain*
X249999900Y-126657400D03*
D12*
G04 #@! TO.N,Net-(C9-Pad1)*
G04 #@! TO.C,C9*
G36*
X247511904Y-125783604D02*
X247536173Y-125787204D01*
X247559971Y-125793165D01*
X247583071Y-125801430D01*
X247605249Y-125811920D01*
X247626293Y-125824533D01*
X247645998Y-125839147D01*
X247664177Y-125855623D01*
X247680653Y-125873802D01*
X247695267Y-125893507D01*
X247707880Y-125914551D01*
X247718370Y-125936729D01*
X247726635Y-125959829D01*
X247732596Y-125983627D01*
X247736196Y-126007896D01*
X247737400Y-126032400D01*
X247737400Y-127282400D01*
X247736196Y-127306904D01*
X247732596Y-127331173D01*
X247726635Y-127354971D01*
X247718370Y-127378071D01*
X247707880Y-127400249D01*
X247695267Y-127421293D01*
X247680653Y-127440998D01*
X247664177Y-127459177D01*
X247645998Y-127475653D01*
X247626293Y-127490267D01*
X247605249Y-127502880D01*
X247583071Y-127513370D01*
X247559971Y-127521635D01*
X247536173Y-127527596D01*
X247511904Y-127531196D01*
X247487400Y-127532400D01*
X246562400Y-127532400D01*
X246537896Y-127531196D01*
X246513627Y-127527596D01*
X246489829Y-127521635D01*
X246466729Y-127513370D01*
X246444551Y-127502880D01*
X246423507Y-127490267D01*
X246403802Y-127475653D01*
X246385623Y-127459177D01*
X246369147Y-127440998D01*
X246354533Y-127421293D01*
X246341920Y-127400249D01*
X246331430Y-127378071D01*
X246323165Y-127354971D01*
X246317204Y-127331173D01*
X246313604Y-127306904D01*
X246312400Y-127282400D01*
X246312400Y-126032400D01*
X246313604Y-126007896D01*
X246317204Y-125983627D01*
X246323165Y-125959829D01*
X246331430Y-125936729D01*
X246341920Y-125914551D01*
X246354533Y-125893507D01*
X246369147Y-125873802D01*
X246385623Y-125855623D01*
X246403802Y-125839147D01*
X246423507Y-125824533D01*
X246444551Y-125811920D01*
X246466729Y-125801430D01*
X246489829Y-125793165D01*
X246513627Y-125787204D01*
X246537896Y-125783604D01*
X246562400Y-125782400D01*
X247487400Y-125782400D01*
X247511904Y-125783604D01*
X247511904Y-125783604D01*
G37*
D16*
G04 #@! TD*
G04 #@! TO.P,C9,1*
G04 #@! TO.N,Net-(C9-Pad1)*
X247024900Y-126657400D03*
D12*
G04 #@! TO.N,Net-(C10-Pad1)*
G04 #@! TO.C,C10*
G36*
X216772106Y-130810405D02*
X216796374Y-130814005D01*
X216820173Y-130819966D01*
X216843272Y-130828231D01*
X216865451Y-130838721D01*
X216886494Y-130851333D01*
X216906200Y-130865948D01*
X216924378Y-130882424D01*
X216940854Y-130900602D01*
X216955469Y-130920308D01*
X216968081Y-130941351D01*
X216978571Y-130963530D01*
X216986836Y-130986629D01*
X216992797Y-131010428D01*
X216996397Y-131034696D01*
X216997601Y-131059200D01*
X216997601Y-131959202D01*
X216996397Y-131983706D01*
X216992797Y-132007974D01*
X216986836Y-132031773D01*
X216978571Y-132054872D01*
X216968081Y-132077051D01*
X216955469Y-132098094D01*
X216940854Y-132117800D01*
X216924378Y-132135978D01*
X216906200Y-132152454D01*
X216886494Y-132167069D01*
X216865451Y-132179681D01*
X216843272Y-132190171D01*
X216820173Y-132198436D01*
X216796374Y-132204397D01*
X216772106Y-132207997D01*
X216747602Y-132209201D01*
X216097600Y-132209201D01*
X216073096Y-132207997D01*
X216048828Y-132204397D01*
X216025029Y-132198436D01*
X216001930Y-132190171D01*
X215979751Y-132179681D01*
X215958708Y-132167069D01*
X215939002Y-132152454D01*
X215920824Y-132135978D01*
X215904348Y-132117800D01*
X215889733Y-132098094D01*
X215877121Y-132077051D01*
X215866631Y-132054872D01*
X215858366Y-132031773D01*
X215852405Y-132007974D01*
X215848805Y-131983706D01*
X215847601Y-131959202D01*
X215847601Y-131059200D01*
X215848805Y-131034696D01*
X215852405Y-131010428D01*
X215858366Y-130986629D01*
X215866631Y-130963530D01*
X215877121Y-130941351D01*
X215889733Y-130920308D01*
X215904348Y-130900602D01*
X215920824Y-130882424D01*
X215939002Y-130865948D01*
X215958708Y-130851333D01*
X215979751Y-130838721D01*
X216001930Y-130828231D01*
X216025029Y-130819966D01*
X216048828Y-130814005D01*
X216073096Y-130810405D01*
X216097600Y-130809201D01*
X216747602Y-130809201D01*
X216772106Y-130810405D01*
X216772106Y-130810405D01*
G37*
D15*
G04 #@! TD*
G04 #@! TO.P,C10,1*
G04 #@! TO.N,Net-(C10-Pad1)*
X216422601Y-131509201D03*
D12*
G04 #@! TO.N,GND*
G04 #@! TO.C,C10*
G36*
X218822106Y-130810405D02*
X218846374Y-130814005D01*
X218870173Y-130819966D01*
X218893272Y-130828231D01*
X218915451Y-130838721D01*
X218936494Y-130851333D01*
X218956200Y-130865948D01*
X218974378Y-130882424D01*
X218990854Y-130900602D01*
X219005469Y-130920308D01*
X219018081Y-130941351D01*
X219028571Y-130963530D01*
X219036836Y-130986629D01*
X219042797Y-131010428D01*
X219046397Y-131034696D01*
X219047601Y-131059200D01*
X219047601Y-131959202D01*
X219046397Y-131983706D01*
X219042797Y-132007974D01*
X219036836Y-132031773D01*
X219028571Y-132054872D01*
X219018081Y-132077051D01*
X219005469Y-132098094D01*
X218990854Y-132117800D01*
X218974378Y-132135978D01*
X218956200Y-132152454D01*
X218936494Y-132167069D01*
X218915451Y-132179681D01*
X218893272Y-132190171D01*
X218870173Y-132198436D01*
X218846374Y-132204397D01*
X218822106Y-132207997D01*
X218797602Y-132209201D01*
X218147600Y-132209201D01*
X218123096Y-132207997D01*
X218098828Y-132204397D01*
X218075029Y-132198436D01*
X218051930Y-132190171D01*
X218029751Y-132179681D01*
X218008708Y-132167069D01*
X217989002Y-132152454D01*
X217970824Y-132135978D01*
X217954348Y-132117800D01*
X217939733Y-132098094D01*
X217927121Y-132077051D01*
X217916631Y-132054872D01*
X217908366Y-132031773D01*
X217902405Y-132007974D01*
X217898805Y-131983706D01*
X217897601Y-131959202D01*
X217897601Y-131059200D01*
X217898805Y-131034696D01*
X217902405Y-131010428D01*
X217908366Y-130986629D01*
X217916631Y-130963530D01*
X217927121Y-130941351D01*
X217939733Y-130920308D01*
X217954348Y-130900602D01*
X217970824Y-130882424D01*
X217989002Y-130865948D01*
X218008708Y-130851333D01*
X218029751Y-130838721D01*
X218051930Y-130828231D01*
X218075029Y-130819966D01*
X218098828Y-130814005D01*
X218123096Y-130810405D01*
X218147600Y-130809201D01*
X218797602Y-130809201D01*
X218822106Y-130810405D01*
X218822106Y-130810405D01*
G37*
D15*
G04 #@! TD*
G04 #@! TO.P,C10,2*
G04 #@! TO.N,GND*
X218472601Y-131509201D03*
D12*
G04 #@! TO.N,Net-(C11-Pad1)*
G04 #@! TO.C,C11*
G36*
X204497105Y-130525405D02*
X204521374Y-130529005D01*
X204545172Y-130534966D01*
X204568272Y-130543231D01*
X204590450Y-130553721D01*
X204611494Y-130566334D01*
X204631199Y-130580948D01*
X204649378Y-130597424D01*
X204665854Y-130615603D01*
X204680468Y-130635308D01*
X204693081Y-130656352D01*
X204703571Y-130678530D01*
X204711836Y-130701630D01*
X204717797Y-130725428D01*
X204721397Y-130749697D01*
X204722601Y-130774201D01*
X204722601Y-132024201D01*
X204721397Y-132048705D01*
X204717797Y-132072974D01*
X204711836Y-132096772D01*
X204703571Y-132119872D01*
X204693081Y-132142050D01*
X204680468Y-132163094D01*
X204665854Y-132182799D01*
X204649378Y-132200978D01*
X204631199Y-132217454D01*
X204611494Y-132232068D01*
X204590450Y-132244681D01*
X204568272Y-132255171D01*
X204545172Y-132263436D01*
X204521374Y-132269397D01*
X204497105Y-132272997D01*
X204472601Y-132274201D01*
X203547601Y-132274201D01*
X203523097Y-132272997D01*
X203498828Y-132269397D01*
X203475030Y-132263436D01*
X203451930Y-132255171D01*
X203429752Y-132244681D01*
X203408708Y-132232068D01*
X203389003Y-132217454D01*
X203370824Y-132200978D01*
X203354348Y-132182799D01*
X203339734Y-132163094D01*
X203327121Y-132142050D01*
X203316631Y-132119872D01*
X203308366Y-132096772D01*
X203302405Y-132072974D01*
X203298805Y-132048705D01*
X203297601Y-132024201D01*
X203297601Y-130774201D01*
X203298805Y-130749697D01*
X203302405Y-130725428D01*
X203308366Y-130701630D01*
X203316631Y-130678530D01*
X203327121Y-130656352D01*
X203339734Y-130635308D01*
X203354348Y-130615603D01*
X203370824Y-130597424D01*
X203389003Y-130580948D01*
X203408708Y-130566334D01*
X203429752Y-130553721D01*
X203451930Y-130543231D01*
X203475030Y-130534966D01*
X203498828Y-130529005D01*
X203523097Y-130525405D01*
X203547601Y-130524201D01*
X204472601Y-130524201D01*
X204497105Y-130525405D01*
X204497105Y-130525405D01*
G37*
D16*
G04 #@! TD*
G04 #@! TO.P,C11,1*
G04 #@! TO.N,Net-(C11-Pad1)*
X204010101Y-131399201D03*
D12*
G04 #@! TO.N,Net-(C11-Pad2)*
G04 #@! TO.C,C11*
G36*
X207472105Y-130525405D02*
X207496374Y-130529005D01*
X207520172Y-130534966D01*
X207543272Y-130543231D01*
X207565450Y-130553721D01*
X207586494Y-130566334D01*
X207606199Y-130580948D01*
X207624378Y-130597424D01*
X207640854Y-130615603D01*
X207655468Y-130635308D01*
X207668081Y-130656352D01*
X207678571Y-130678530D01*
X207686836Y-130701630D01*
X207692797Y-130725428D01*
X207696397Y-130749697D01*
X207697601Y-130774201D01*
X207697601Y-132024201D01*
X207696397Y-132048705D01*
X207692797Y-132072974D01*
X207686836Y-132096772D01*
X207678571Y-132119872D01*
X207668081Y-132142050D01*
X207655468Y-132163094D01*
X207640854Y-132182799D01*
X207624378Y-132200978D01*
X207606199Y-132217454D01*
X207586494Y-132232068D01*
X207565450Y-132244681D01*
X207543272Y-132255171D01*
X207520172Y-132263436D01*
X207496374Y-132269397D01*
X207472105Y-132272997D01*
X207447601Y-132274201D01*
X206522601Y-132274201D01*
X206498097Y-132272997D01*
X206473828Y-132269397D01*
X206450030Y-132263436D01*
X206426930Y-132255171D01*
X206404752Y-132244681D01*
X206383708Y-132232068D01*
X206364003Y-132217454D01*
X206345824Y-132200978D01*
X206329348Y-132182799D01*
X206314734Y-132163094D01*
X206302121Y-132142050D01*
X206291631Y-132119872D01*
X206283366Y-132096772D01*
X206277405Y-132072974D01*
X206273805Y-132048705D01*
X206272601Y-132024201D01*
X206272601Y-130774201D01*
X206273805Y-130749697D01*
X206277405Y-130725428D01*
X206283366Y-130701630D01*
X206291631Y-130678530D01*
X206302121Y-130656352D01*
X206314734Y-130635308D01*
X206329348Y-130615603D01*
X206345824Y-130597424D01*
X206364003Y-130580948D01*
X206383708Y-130566334D01*
X206404752Y-130553721D01*
X206426930Y-130543231D01*
X206450030Y-130534966D01*
X206473828Y-130529005D01*
X206498097Y-130525405D01*
X206522601Y-130524201D01*
X207447601Y-130524201D01*
X207472105Y-130525405D01*
X207472105Y-130525405D01*
G37*
D16*
G04 #@! TD*
G04 #@! TO.P,C11,2*
G04 #@! TO.N,Net-(C11-Pad2)*
X206985101Y-131399201D03*
D12*
G04 #@! TO.N,Net-(C12-Pad2)*
G04 #@! TO.C,C12*
G36*
X217412105Y-120375405D02*
X217436374Y-120379005D01*
X217460172Y-120384966D01*
X217483272Y-120393231D01*
X217505450Y-120403721D01*
X217526494Y-120416334D01*
X217546199Y-120430948D01*
X217564378Y-120447424D01*
X217580854Y-120465603D01*
X217595468Y-120485308D01*
X217608081Y-120506352D01*
X217618571Y-120528530D01*
X217626836Y-120551630D01*
X217632797Y-120575428D01*
X217636397Y-120599697D01*
X217637601Y-120624201D01*
X217637601Y-121874201D01*
X217636397Y-121898705D01*
X217632797Y-121922974D01*
X217626836Y-121946772D01*
X217618571Y-121969872D01*
X217608081Y-121992050D01*
X217595468Y-122013094D01*
X217580854Y-122032799D01*
X217564378Y-122050978D01*
X217546199Y-122067454D01*
X217526494Y-122082068D01*
X217505450Y-122094681D01*
X217483272Y-122105171D01*
X217460172Y-122113436D01*
X217436374Y-122119397D01*
X217412105Y-122122997D01*
X217387601Y-122124201D01*
X216462601Y-122124201D01*
X216438097Y-122122997D01*
X216413828Y-122119397D01*
X216390030Y-122113436D01*
X216366930Y-122105171D01*
X216344752Y-122094681D01*
X216323708Y-122082068D01*
X216304003Y-122067454D01*
X216285824Y-122050978D01*
X216269348Y-122032799D01*
X216254734Y-122013094D01*
X216242121Y-121992050D01*
X216231631Y-121969872D01*
X216223366Y-121946772D01*
X216217405Y-121922974D01*
X216213805Y-121898705D01*
X216212601Y-121874201D01*
X216212601Y-120624201D01*
X216213805Y-120599697D01*
X216217405Y-120575428D01*
X216223366Y-120551630D01*
X216231631Y-120528530D01*
X216242121Y-120506352D01*
X216254734Y-120485308D01*
X216269348Y-120465603D01*
X216285824Y-120447424D01*
X216304003Y-120430948D01*
X216323708Y-120416334D01*
X216344752Y-120403721D01*
X216366930Y-120393231D01*
X216390030Y-120384966D01*
X216413828Y-120379005D01*
X216438097Y-120375405D01*
X216462601Y-120374201D01*
X217387601Y-120374201D01*
X217412105Y-120375405D01*
X217412105Y-120375405D01*
G37*
D16*
G04 #@! TD*
G04 #@! TO.P,C12,2*
G04 #@! TO.N,Net-(C12-Pad2)*
X216925101Y-121249201D03*
D12*
G04 #@! TO.N,Net-(C12-Pad1)*
G04 #@! TO.C,C12*
G36*
X214437105Y-120375405D02*
X214461374Y-120379005D01*
X214485172Y-120384966D01*
X214508272Y-120393231D01*
X214530450Y-120403721D01*
X214551494Y-120416334D01*
X214571199Y-120430948D01*
X214589378Y-120447424D01*
X214605854Y-120465603D01*
X214620468Y-120485308D01*
X214633081Y-120506352D01*
X214643571Y-120528530D01*
X214651836Y-120551630D01*
X214657797Y-120575428D01*
X214661397Y-120599697D01*
X214662601Y-120624201D01*
X214662601Y-121874201D01*
X214661397Y-121898705D01*
X214657797Y-121922974D01*
X214651836Y-121946772D01*
X214643571Y-121969872D01*
X214633081Y-121992050D01*
X214620468Y-122013094D01*
X214605854Y-122032799D01*
X214589378Y-122050978D01*
X214571199Y-122067454D01*
X214551494Y-122082068D01*
X214530450Y-122094681D01*
X214508272Y-122105171D01*
X214485172Y-122113436D01*
X214461374Y-122119397D01*
X214437105Y-122122997D01*
X214412601Y-122124201D01*
X213487601Y-122124201D01*
X213463097Y-122122997D01*
X213438828Y-122119397D01*
X213415030Y-122113436D01*
X213391930Y-122105171D01*
X213369752Y-122094681D01*
X213348708Y-122082068D01*
X213329003Y-122067454D01*
X213310824Y-122050978D01*
X213294348Y-122032799D01*
X213279734Y-122013094D01*
X213267121Y-121992050D01*
X213256631Y-121969872D01*
X213248366Y-121946772D01*
X213242405Y-121922974D01*
X213238805Y-121898705D01*
X213237601Y-121874201D01*
X213237601Y-120624201D01*
X213238805Y-120599697D01*
X213242405Y-120575428D01*
X213248366Y-120551630D01*
X213256631Y-120528530D01*
X213267121Y-120506352D01*
X213279734Y-120485308D01*
X213294348Y-120465603D01*
X213310824Y-120447424D01*
X213329003Y-120430948D01*
X213348708Y-120416334D01*
X213369752Y-120403721D01*
X213391930Y-120393231D01*
X213415030Y-120384966D01*
X213438828Y-120379005D01*
X213463097Y-120375405D01*
X213487601Y-120374201D01*
X214412601Y-120374201D01*
X214437105Y-120375405D01*
X214437105Y-120375405D01*
G37*
D16*
G04 #@! TD*
G04 #@! TO.P,C12,1*
G04 #@! TO.N,Net-(C12-Pad1)*
X213950101Y-121249201D03*
D12*
G04 #@! TO.N,GND*
G04 #@! TO.C,C13*
G36*
X220062106Y-124960405D02*
X220086374Y-124964005D01*
X220110173Y-124969966D01*
X220133272Y-124978231D01*
X220155451Y-124988721D01*
X220176494Y-125001333D01*
X220196200Y-125015948D01*
X220214378Y-125032424D01*
X220230854Y-125050602D01*
X220245469Y-125070308D01*
X220258081Y-125091351D01*
X220268571Y-125113530D01*
X220276836Y-125136629D01*
X220282797Y-125160428D01*
X220286397Y-125184696D01*
X220287601Y-125209200D01*
X220287601Y-126109202D01*
X220286397Y-126133706D01*
X220282797Y-126157974D01*
X220276836Y-126181773D01*
X220268571Y-126204872D01*
X220258081Y-126227051D01*
X220245469Y-126248094D01*
X220230854Y-126267800D01*
X220214378Y-126285978D01*
X220196200Y-126302454D01*
X220176494Y-126317069D01*
X220155451Y-126329681D01*
X220133272Y-126340171D01*
X220110173Y-126348436D01*
X220086374Y-126354397D01*
X220062106Y-126357997D01*
X220037602Y-126359201D01*
X219387600Y-126359201D01*
X219363096Y-126357997D01*
X219338828Y-126354397D01*
X219315029Y-126348436D01*
X219291930Y-126340171D01*
X219269751Y-126329681D01*
X219248708Y-126317069D01*
X219229002Y-126302454D01*
X219210824Y-126285978D01*
X219194348Y-126267800D01*
X219179733Y-126248094D01*
X219167121Y-126227051D01*
X219156631Y-126204872D01*
X219148366Y-126181773D01*
X219142405Y-126157974D01*
X219138805Y-126133706D01*
X219137601Y-126109202D01*
X219137601Y-125209200D01*
X219138805Y-125184696D01*
X219142405Y-125160428D01*
X219148366Y-125136629D01*
X219156631Y-125113530D01*
X219167121Y-125091351D01*
X219179733Y-125070308D01*
X219194348Y-125050602D01*
X219210824Y-125032424D01*
X219229002Y-125015948D01*
X219248708Y-125001333D01*
X219269751Y-124988721D01*
X219291930Y-124978231D01*
X219315029Y-124969966D01*
X219338828Y-124964005D01*
X219363096Y-124960405D01*
X219387600Y-124959201D01*
X220037602Y-124959201D01*
X220062106Y-124960405D01*
X220062106Y-124960405D01*
G37*
D15*
G04 #@! TD*
G04 #@! TO.P,C13,2*
G04 #@! TO.N,GND*
X219712601Y-125659201D03*
D12*
G04 #@! TO.N,Net-(C13-Pad1)*
G04 #@! TO.C,C13*
G36*
X218012106Y-124960405D02*
X218036374Y-124964005D01*
X218060173Y-124969966D01*
X218083272Y-124978231D01*
X218105451Y-124988721D01*
X218126494Y-125001333D01*
X218146200Y-125015948D01*
X218164378Y-125032424D01*
X218180854Y-125050602D01*
X218195469Y-125070308D01*
X218208081Y-125091351D01*
X218218571Y-125113530D01*
X218226836Y-125136629D01*
X218232797Y-125160428D01*
X218236397Y-125184696D01*
X218237601Y-125209200D01*
X218237601Y-126109202D01*
X218236397Y-126133706D01*
X218232797Y-126157974D01*
X218226836Y-126181773D01*
X218218571Y-126204872D01*
X218208081Y-126227051D01*
X218195469Y-126248094D01*
X218180854Y-126267800D01*
X218164378Y-126285978D01*
X218146200Y-126302454D01*
X218126494Y-126317069D01*
X218105451Y-126329681D01*
X218083272Y-126340171D01*
X218060173Y-126348436D01*
X218036374Y-126354397D01*
X218012106Y-126357997D01*
X217987602Y-126359201D01*
X217337600Y-126359201D01*
X217313096Y-126357997D01*
X217288828Y-126354397D01*
X217265029Y-126348436D01*
X217241930Y-126340171D01*
X217219751Y-126329681D01*
X217198708Y-126317069D01*
X217179002Y-126302454D01*
X217160824Y-126285978D01*
X217144348Y-126267800D01*
X217129733Y-126248094D01*
X217117121Y-126227051D01*
X217106631Y-126204872D01*
X217098366Y-126181773D01*
X217092405Y-126157974D01*
X217088805Y-126133706D01*
X217087601Y-126109202D01*
X217087601Y-125209200D01*
X217088805Y-125184696D01*
X217092405Y-125160428D01*
X217098366Y-125136629D01*
X217106631Y-125113530D01*
X217117121Y-125091351D01*
X217129733Y-125070308D01*
X217144348Y-125050602D01*
X217160824Y-125032424D01*
X217179002Y-125015948D01*
X217198708Y-125001333D01*
X217219751Y-124988721D01*
X217241930Y-124978231D01*
X217265029Y-124969966D01*
X217288828Y-124964005D01*
X217313096Y-124960405D01*
X217337600Y-124959201D01*
X217987602Y-124959201D01*
X218012106Y-124960405D01*
X218012106Y-124960405D01*
G37*
D15*
G04 #@! TD*
G04 #@! TO.P,C13,1*
G04 #@! TO.N,Net-(C13-Pad1)*
X217662601Y-125659201D03*
D12*
G04 #@! TO.N,GND*
G04 #@! TO.C,C14*
G36*
X214865605Y-145199104D02*
X214889873Y-145202704D01*
X214913672Y-145208665D01*
X214936771Y-145216930D01*
X214958950Y-145227420D01*
X214979993Y-145240032D01*
X214999699Y-145254647D01*
X215017877Y-145271123D01*
X215034353Y-145289301D01*
X215048968Y-145309007D01*
X215061580Y-145330050D01*
X215072070Y-145352229D01*
X215080335Y-145375328D01*
X215086296Y-145399127D01*
X215089896Y-145423395D01*
X215091100Y-145447899D01*
X215091100Y-146347901D01*
X215089896Y-146372405D01*
X215086296Y-146396673D01*
X215080335Y-146420472D01*
X215072070Y-146443571D01*
X215061580Y-146465750D01*
X215048968Y-146486793D01*
X215034353Y-146506499D01*
X215017877Y-146524677D01*
X214999699Y-146541153D01*
X214979993Y-146555768D01*
X214958950Y-146568380D01*
X214936771Y-146578870D01*
X214913672Y-146587135D01*
X214889873Y-146593096D01*
X214865605Y-146596696D01*
X214841101Y-146597900D01*
X214191099Y-146597900D01*
X214166595Y-146596696D01*
X214142327Y-146593096D01*
X214118528Y-146587135D01*
X214095429Y-146578870D01*
X214073250Y-146568380D01*
X214052207Y-146555768D01*
X214032501Y-146541153D01*
X214014323Y-146524677D01*
X213997847Y-146506499D01*
X213983232Y-146486793D01*
X213970620Y-146465750D01*
X213960130Y-146443571D01*
X213951865Y-146420472D01*
X213945904Y-146396673D01*
X213942304Y-146372405D01*
X213941100Y-146347901D01*
X213941100Y-145447899D01*
X213942304Y-145423395D01*
X213945904Y-145399127D01*
X213951865Y-145375328D01*
X213960130Y-145352229D01*
X213970620Y-145330050D01*
X213983232Y-145309007D01*
X213997847Y-145289301D01*
X214014323Y-145271123D01*
X214032501Y-145254647D01*
X214052207Y-145240032D01*
X214073250Y-145227420D01*
X214095429Y-145216930D01*
X214118528Y-145208665D01*
X214142327Y-145202704D01*
X214166595Y-145199104D01*
X214191099Y-145197900D01*
X214841101Y-145197900D01*
X214865605Y-145199104D01*
X214865605Y-145199104D01*
G37*
D15*
G04 #@! TD*
G04 #@! TO.P,C14,2*
G04 #@! TO.N,GND*
X214516100Y-145897900D03*
D12*
G04 #@! TO.N,Net-(C14-Pad1)*
G04 #@! TO.C,C14*
G36*
X212815605Y-145199104D02*
X212839873Y-145202704D01*
X212863672Y-145208665D01*
X212886771Y-145216930D01*
X212908950Y-145227420D01*
X212929993Y-145240032D01*
X212949699Y-145254647D01*
X212967877Y-145271123D01*
X212984353Y-145289301D01*
X212998968Y-145309007D01*
X213011580Y-145330050D01*
X213022070Y-145352229D01*
X213030335Y-145375328D01*
X213036296Y-145399127D01*
X213039896Y-145423395D01*
X213041100Y-145447899D01*
X213041100Y-146347901D01*
X213039896Y-146372405D01*
X213036296Y-146396673D01*
X213030335Y-146420472D01*
X213022070Y-146443571D01*
X213011580Y-146465750D01*
X212998968Y-146486793D01*
X212984353Y-146506499D01*
X212967877Y-146524677D01*
X212949699Y-146541153D01*
X212929993Y-146555768D01*
X212908950Y-146568380D01*
X212886771Y-146578870D01*
X212863672Y-146587135D01*
X212839873Y-146593096D01*
X212815605Y-146596696D01*
X212791101Y-146597900D01*
X212141099Y-146597900D01*
X212116595Y-146596696D01*
X212092327Y-146593096D01*
X212068528Y-146587135D01*
X212045429Y-146578870D01*
X212023250Y-146568380D01*
X212002207Y-146555768D01*
X211982501Y-146541153D01*
X211964323Y-146524677D01*
X211947847Y-146506499D01*
X211933232Y-146486793D01*
X211920620Y-146465750D01*
X211910130Y-146443571D01*
X211901865Y-146420472D01*
X211895904Y-146396673D01*
X211892304Y-146372405D01*
X211891100Y-146347901D01*
X211891100Y-145447899D01*
X211892304Y-145423395D01*
X211895904Y-145399127D01*
X211901865Y-145375328D01*
X211910130Y-145352229D01*
X211920620Y-145330050D01*
X211933232Y-145309007D01*
X211947847Y-145289301D01*
X211964323Y-145271123D01*
X211982501Y-145254647D01*
X212002207Y-145240032D01*
X212023250Y-145227420D01*
X212045429Y-145216930D01*
X212068528Y-145208665D01*
X212092327Y-145202704D01*
X212116595Y-145199104D01*
X212141099Y-145197900D01*
X212791101Y-145197900D01*
X212815605Y-145199104D01*
X212815605Y-145199104D01*
G37*
D15*
G04 #@! TD*
G04 #@! TO.P,C14,1*
G04 #@! TO.N,Net-(C14-Pad1)*
X212466100Y-145897900D03*
D12*
G04 #@! TO.N,GND*
G04 #@! TO.C,C15*
G36*
X214379305Y-141097004D02*
X214403573Y-141100604D01*
X214427372Y-141106565D01*
X214450471Y-141114830D01*
X214472650Y-141125320D01*
X214493693Y-141137932D01*
X214513399Y-141152547D01*
X214531577Y-141169023D01*
X214548053Y-141187201D01*
X214562668Y-141206907D01*
X214575280Y-141227950D01*
X214585770Y-141250129D01*
X214594035Y-141273228D01*
X214599996Y-141297027D01*
X214603596Y-141321295D01*
X214604800Y-141345799D01*
X214604800Y-142245801D01*
X214603596Y-142270305D01*
X214599996Y-142294573D01*
X214594035Y-142318372D01*
X214585770Y-142341471D01*
X214575280Y-142363650D01*
X214562668Y-142384693D01*
X214548053Y-142404399D01*
X214531577Y-142422577D01*
X214513399Y-142439053D01*
X214493693Y-142453668D01*
X214472650Y-142466280D01*
X214450471Y-142476770D01*
X214427372Y-142485035D01*
X214403573Y-142490996D01*
X214379305Y-142494596D01*
X214354801Y-142495800D01*
X213704799Y-142495800D01*
X213680295Y-142494596D01*
X213656027Y-142490996D01*
X213632228Y-142485035D01*
X213609129Y-142476770D01*
X213586950Y-142466280D01*
X213565907Y-142453668D01*
X213546201Y-142439053D01*
X213528023Y-142422577D01*
X213511547Y-142404399D01*
X213496932Y-142384693D01*
X213484320Y-142363650D01*
X213473830Y-142341471D01*
X213465565Y-142318372D01*
X213459604Y-142294573D01*
X213456004Y-142270305D01*
X213454800Y-142245801D01*
X213454800Y-141345799D01*
X213456004Y-141321295D01*
X213459604Y-141297027D01*
X213465565Y-141273228D01*
X213473830Y-141250129D01*
X213484320Y-141227950D01*
X213496932Y-141206907D01*
X213511547Y-141187201D01*
X213528023Y-141169023D01*
X213546201Y-141152547D01*
X213565907Y-141137932D01*
X213586950Y-141125320D01*
X213609129Y-141114830D01*
X213632228Y-141106565D01*
X213656027Y-141100604D01*
X213680295Y-141097004D01*
X213704799Y-141095800D01*
X214354801Y-141095800D01*
X214379305Y-141097004D01*
X214379305Y-141097004D01*
G37*
D15*
G04 #@! TD*
G04 #@! TO.P,C15,2*
G04 #@! TO.N,GND*
X214029800Y-141795800D03*
D12*
G04 #@! TO.N,Net-(C14-Pad1)*
G04 #@! TO.C,C15*
G36*
X212329305Y-141097004D02*
X212353573Y-141100604D01*
X212377372Y-141106565D01*
X212400471Y-141114830D01*
X212422650Y-141125320D01*
X212443693Y-141137932D01*
X212463399Y-141152547D01*
X212481577Y-141169023D01*
X212498053Y-141187201D01*
X212512668Y-141206907D01*
X212525280Y-141227950D01*
X212535770Y-141250129D01*
X212544035Y-141273228D01*
X212549996Y-141297027D01*
X212553596Y-141321295D01*
X212554800Y-141345799D01*
X212554800Y-142245801D01*
X212553596Y-142270305D01*
X212549996Y-142294573D01*
X212544035Y-142318372D01*
X212535770Y-142341471D01*
X212525280Y-142363650D01*
X212512668Y-142384693D01*
X212498053Y-142404399D01*
X212481577Y-142422577D01*
X212463399Y-142439053D01*
X212443693Y-142453668D01*
X212422650Y-142466280D01*
X212400471Y-142476770D01*
X212377372Y-142485035D01*
X212353573Y-142490996D01*
X212329305Y-142494596D01*
X212304801Y-142495800D01*
X211654799Y-142495800D01*
X211630295Y-142494596D01*
X211606027Y-142490996D01*
X211582228Y-142485035D01*
X211559129Y-142476770D01*
X211536950Y-142466280D01*
X211515907Y-142453668D01*
X211496201Y-142439053D01*
X211478023Y-142422577D01*
X211461547Y-142404399D01*
X211446932Y-142384693D01*
X211434320Y-142363650D01*
X211423830Y-142341471D01*
X211415565Y-142318372D01*
X211409604Y-142294573D01*
X211406004Y-142270305D01*
X211404800Y-142245801D01*
X211404800Y-141345799D01*
X211406004Y-141321295D01*
X211409604Y-141297027D01*
X211415565Y-141273228D01*
X211423830Y-141250129D01*
X211434320Y-141227950D01*
X211446932Y-141206907D01*
X211461547Y-141187201D01*
X211478023Y-141169023D01*
X211496201Y-141152547D01*
X211515907Y-141137932D01*
X211536950Y-141125320D01*
X211559129Y-141114830D01*
X211582228Y-141106565D01*
X211606027Y-141100604D01*
X211630295Y-141097004D01*
X211654799Y-141095800D01*
X212304801Y-141095800D01*
X212329305Y-141097004D01*
X212329305Y-141097004D01*
G37*
D15*
G04 #@! TD*
G04 #@! TO.P,C15,1*
G04 #@! TO.N,Net-(C14-Pad1)*
X211979800Y-141795800D03*
D12*
G04 #@! TO.N,Net-(C16-Pad1)*
G04 #@! TO.C,C16*
G36*
X221380705Y-146405604D02*
X221404973Y-146409204D01*
X221428772Y-146415165D01*
X221451871Y-146423430D01*
X221474050Y-146433920D01*
X221495093Y-146446532D01*
X221514799Y-146461147D01*
X221532977Y-146477623D01*
X221549453Y-146495801D01*
X221564068Y-146515507D01*
X221576680Y-146536550D01*
X221587170Y-146558729D01*
X221595435Y-146581828D01*
X221601396Y-146605627D01*
X221604996Y-146629895D01*
X221606200Y-146654399D01*
X221606200Y-147554401D01*
X221604996Y-147578905D01*
X221601396Y-147603173D01*
X221595435Y-147626972D01*
X221587170Y-147650071D01*
X221576680Y-147672250D01*
X221564068Y-147693293D01*
X221549453Y-147712999D01*
X221532977Y-147731177D01*
X221514799Y-147747653D01*
X221495093Y-147762268D01*
X221474050Y-147774880D01*
X221451871Y-147785370D01*
X221428772Y-147793635D01*
X221404973Y-147799596D01*
X221380705Y-147803196D01*
X221356201Y-147804400D01*
X220706199Y-147804400D01*
X220681695Y-147803196D01*
X220657427Y-147799596D01*
X220633628Y-147793635D01*
X220610529Y-147785370D01*
X220588350Y-147774880D01*
X220567307Y-147762268D01*
X220547601Y-147747653D01*
X220529423Y-147731177D01*
X220512947Y-147712999D01*
X220498332Y-147693293D01*
X220485720Y-147672250D01*
X220475230Y-147650071D01*
X220466965Y-147626972D01*
X220461004Y-147603173D01*
X220457404Y-147578905D01*
X220456200Y-147554401D01*
X220456200Y-146654399D01*
X220457404Y-146629895D01*
X220461004Y-146605627D01*
X220466965Y-146581828D01*
X220475230Y-146558729D01*
X220485720Y-146536550D01*
X220498332Y-146515507D01*
X220512947Y-146495801D01*
X220529423Y-146477623D01*
X220547601Y-146461147D01*
X220567307Y-146446532D01*
X220588350Y-146433920D01*
X220610529Y-146423430D01*
X220633628Y-146415165D01*
X220657427Y-146409204D01*
X220681695Y-146405604D01*
X220706199Y-146404400D01*
X221356201Y-146404400D01*
X221380705Y-146405604D01*
X221380705Y-146405604D01*
G37*
D15*
G04 #@! TD*
G04 #@! TO.P,C16,1*
G04 #@! TO.N,Net-(C16-Pad1)*
X221031200Y-147104400D03*
D12*
G04 #@! TO.N,Net-(C14-Pad1)*
G04 #@! TO.C,C16*
G36*
X223430705Y-146405604D02*
X223454973Y-146409204D01*
X223478772Y-146415165D01*
X223501871Y-146423430D01*
X223524050Y-146433920D01*
X223545093Y-146446532D01*
X223564799Y-146461147D01*
X223582977Y-146477623D01*
X223599453Y-146495801D01*
X223614068Y-146515507D01*
X223626680Y-146536550D01*
X223637170Y-146558729D01*
X223645435Y-146581828D01*
X223651396Y-146605627D01*
X223654996Y-146629895D01*
X223656200Y-146654399D01*
X223656200Y-147554401D01*
X223654996Y-147578905D01*
X223651396Y-147603173D01*
X223645435Y-147626972D01*
X223637170Y-147650071D01*
X223626680Y-147672250D01*
X223614068Y-147693293D01*
X223599453Y-147712999D01*
X223582977Y-147731177D01*
X223564799Y-147747653D01*
X223545093Y-147762268D01*
X223524050Y-147774880D01*
X223501871Y-147785370D01*
X223478772Y-147793635D01*
X223454973Y-147799596D01*
X223430705Y-147803196D01*
X223406201Y-147804400D01*
X222756199Y-147804400D01*
X222731695Y-147803196D01*
X222707427Y-147799596D01*
X222683628Y-147793635D01*
X222660529Y-147785370D01*
X222638350Y-147774880D01*
X222617307Y-147762268D01*
X222597601Y-147747653D01*
X222579423Y-147731177D01*
X222562947Y-147712999D01*
X222548332Y-147693293D01*
X222535720Y-147672250D01*
X222525230Y-147650071D01*
X222516965Y-147626972D01*
X222511004Y-147603173D01*
X222507404Y-147578905D01*
X222506200Y-147554401D01*
X222506200Y-146654399D01*
X222507404Y-146629895D01*
X222511004Y-146605627D01*
X222516965Y-146581828D01*
X222525230Y-146558729D01*
X222535720Y-146536550D01*
X222548332Y-146515507D01*
X222562947Y-146495801D01*
X222579423Y-146477623D01*
X222597601Y-146461147D01*
X222617307Y-146446532D01*
X222638350Y-146433920D01*
X222660529Y-146423430D01*
X222683628Y-146415165D01*
X222707427Y-146409204D01*
X222731695Y-146405604D01*
X222756199Y-146404400D01*
X223406201Y-146404400D01*
X223430705Y-146405604D01*
X223430705Y-146405604D01*
G37*
D15*
G04 #@! TD*
G04 #@! TO.P,C16,2*
G04 #@! TO.N,Net-(C14-Pad1)*
X223081200Y-147104400D03*
D12*
G04 #@! TO.N,Net-(C16-Pad1)*
G04 #@! TO.C,C17*
G36*
X216291705Y-138023604D02*
X216315973Y-138027204D01*
X216339772Y-138033165D01*
X216362871Y-138041430D01*
X216385050Y-138051920D01*
X216406093Y-138064532D01*
X216425799Y-138079147D01*
X216443977Y-138095623D01*
X216460453Y-138113801D01*
X216475068Y-138133507D01*
X216487680Y-138154550D01*
X216498170Y-138176729D01*
X216506435Y-138199828D01*
X216512396Y-138223627D01*
X216515996Y-138247895D01*
X216517200Y-138272399D01*
X216517200Y-139172401D01*
X216515996Y-139196905D01*
X216512396Y-139221173D01*
X216506435Y-139244972D01*
X216498170Y-139268071D01*
X216487680Y-139290250D01*
X216475068Y-139311293D01*
X216460453Y-139330999D01*
X216443977Y-139349177D01*
X216425799Y-139365653D01*
X216406093Y-139380268D01*
X216385050Y-139392880D01*
X216362871Y-139403370D01*
X216339772Y-139411635D01*
X216315973Y-139417596D01*
X216291705Y-139421196D01*
X216267201Y-139422400D01*
X215617199Y-139422400D01*
X215592695Y-139421196D01*
X215568427Y-139417596D01*
X215544628Y-139411635D01*
X215521529Y-139403370D01*
X215499350Y-139392880D01*
X215478307Y-139380268D01*
X215458601Y-139365653D01*
X215440423Y-139349177D01*
X215423947Y-139330999D01*
X215409332Y-139311293D01*
X215396720Y-139290250D01*
X215386230Y-139268071D01*
X215377965Y-139244972D01*
X215372004Y-139221173D01*
X215368404Y-139196905D01*
X215367200Y-139172401D01*
X215367200Y-138272399D01*
X215368404Y-138247895D01*
X215372004Y-138223627D01*
X215377965Y-138199828D01*
X215386230Y-138176729D01*
X215396720Y-138154550D01*
X215409332Y-138133507D01*
X215423947Y-138113801D01*
X215440423Y-138095623D01*
X215458601Y-138079147D01*
X215478307Y-138064532D01*
X215499350Y-138051920D01*
X215521529Y-138041430D01*
X215544628Y-138033165D01*
X215568427Y-138027204D01*
X215592695Y-138023604D01*
X215617199Y-138022400D01*
X216267201Y-138022400D01*
X216291705Y-138023604D01*
X216291705Y-138023604D01*
G37*
D15*
G04 #@! TD*
G04 #@! TO.P,C17,1*
G04 #@! TO.N,Net-(C16-Pad1)*
X215942200Y-138722400D03*
D12*
G04 #@! TO.N,GND*
G04 #@! TO.C,C17*
G36*
X218341705Y-138023604D02*
X218365973Y-138027204D01*
X218389772Y-138033165D01*
X218412871Y-138041430D01*
X218435050Y-138051920D01*
X218456093Y-138064532D01*
X218475799Y-138079147D01*
X218493977Y-138095623D01*
X218510453Y-138113801D01*
X218525068Y-138133507D01*
X218537680Y-138154550D01*
X218548170Y-138176729D01*
X218556435Y-138199828D01*
X218562396Y-138223627D01*
X218565996Y-138247895D01*
X218567200Y-138272399D01*
X218567200Y-139172401D01*
X218565996Y-139196905D01*
X218562396Y-139221173D01*
X218556435Y-139244972D01*
X218548170Y-139268071D01*
X218537680Y-139290250D01*
X218525068Y-139311293D01*
X218510453Y-139330999D01*
X218493977Y-139349177D01*
X218475799Y-139365653D01*
X218456093Y-139380268D01*
X218435050Y-139392880D01*
X218412871Y-139403370D01*
X218389772Y-139411635D01*
X218365973Y-139417596D01*
X218341705Y-139421196D01*
X218317201Y-139422400D01*
X217667199Y-139422400D01*
X217642695Y-139421196D01*
X217618427Y-139417596D01*
X217594628Y-139411635D01*
X217571529Y-139403370D01*
X217549350Y-139392880D01*
X217528307Y-139380268D01*
X217508601Y-139365653D01*
X217490423Y-139349177D01*
X217473947Y-139330999D01*
X217459332Y-139311293D01*
X217446720Y-139290250D01*
X217436230Y-139268071D01*
X217427965Y-139244972D01*
X217422004Y-139221173D01*
X217418404Y-139196905D01*
X217417200Y-139172401D01*
X217417200Y-138272399D01*
X217418404Y-138247895D01*
X217422004Y-138223627D01*
X217427965Y-138199828D01*
X217436230Y-138176729D01*
X217446720Y-138154550D01*
X217459332Y-138133507D01*
X217473947Y-138113801D01*
X217490423Y-138095623D01*
X217508601Y-138079147D01*
X217528307Y-138064532D01*
X217549350Y-138051920D01*
X217571529Y-138041430D01*
X217594628Y-138033165D01*
X217618427Y-138027204D01*
X217642695Y-138023604D01*
X217667199Y-138022400D01*
X218317201Y-138022400D01*
X218341705Y-138023604D01*
X218341705Y-138023604D01*
G37*
D15*
G04 #@! TD*
G04 #@! TO.P,C17,2*
G04 #@! TO.N,GND*
X217992200Y-138722400D03*
D12*
G04 #@! TO.N,Net-(C16-Pad1)*
G04 #@! TO.C,C18*
G36*
X212215005Y-137680704D02*
X212239273Y-137684304D01*
X212263072Y-137690265D01*
X212286171Y-137698530D01*
X212308350Y-137709020D01*
X212329393Y-137721632D01*
X212349099Y-137736247D01*
X212367277Y-137752723D01*
X212383753Y-137770901D01*
X212398368Y-137790607D01*
X212410980Y-137811650D01*
X212421470Y-137833829D01*
X212429735Y-137856928D01*
X212435696Y-137880727D01*
X212439296Y-137904995D01*
X212440500Y-137929499D01*
X212440500Y-138829501D01*
X212439296Y-138854005D01*
X212435696Y-138878273D01*
X212429735Y-138902072D01*
X212421470Y-138925171D01*
X212410980Y-138947350D01*
X212398368Y-138968393D01*
X212383753Y-138988099D01*
X212367277Y-139006277D01*
X212349099Y-139022753D01*
X212329393Y-139037368D01*
X212308350Y-139049980D01*
X212286171Y-139060470D01*
X212263072Y-139068735D01*
X212239273Y-139074696D01*
X212215005Y-139078296D01*
X212190501Y-139079500D01*
X211540499Y-139079500D01*
X211515995Y-139078296D01*
X211491727Y-139074696D01*
X211467928Y-139068735D01*
X211444829Y-139060470D01*
X211422650Y-139049980D01*
X211401607Y-139037368D01*
X211381901Y-139022753D01*
X211363723Y-139006277D01*
X211347247Y-138988099D01*
X211332632Y-138968393D01*
X211320020Y-138947350D01*
X211309530Y-138925171D01*
X211301265Y-138902072D01*
X211295304Y-138878273D01*
X211291704Y-138854005D01*
X211290500Y-138829501D01*
X211290500Y-137929499D01*
X211291704Y-137904995D01*
X211295304Y-137880727D01*
X211301265Y-137856928D01*
X211309530Y-137833829D01*
X211320020Y-137811650D01*
X211332632Y-137790607D01*
X211347247Y-137770901D01*
X211363723Y-137752723D01*
X211381901Y-137736247D01*
X211401607Y-137721632D01*
X211422650Y-137709020D01*
X211444829Y-137698530D01*
X211467928Y-137690265D01*
X211491727Y-137684304D01*
X211515995Y-137680704D01*
X211540499Y-137679500D01*
X212190501Y-137679500D01*
X212215005Y-137680704D01*
X212215005Y-137680704D01*
G37*
D15*
G04 #@! TD*
G04 #@! TO.P,C18,1*
G04 #@! TO.N,Net-(C16-Pad1)*
X211865500Y-138379500D03*
D12*
G04 #@! TO.N,GND*
G04 #@! TO.C,C18*
G36*
X214265005Y-137680704D02*
X214289273Y-137684304D01*
X214313072Y-137690265D01*
X214336171Y-137698530D01*
X214358350Y-137709020D01*
X214379393Y-137721632D01*
X214399099Y-137736247D01*
X214417277Y-137752723D01*
X214433753Y-137770901D01*
X214448368Y-137790607D01*
X214460980Y-137811650D01*
X214471470Y-137833829D01*
X214479735Y-137856928D01*
X214485696Y-137880727D01*
X214489296Y-137904995D01*
X214490500Y-137929499D01*
X214490500Y-138829501D01*
X214489296Y-138854005D01*
X214485696Y-138878273D01*
X214479735Y-138902072D01*
X214471470Y-138925171D01*
X214460980Y-138947350D01*
X214448368Y-138968393D01*
X214433753Y-138988099D01*
X214417277Y-139006277D01*
X214399099Y-139022753D01*
X214379393Y-139037368D01*
X214358350Y-139049980D01*
X214336171Y-139060470D01*
X214313072Y-139068735D01*
X214289273Y-139074696D01*
X214265005Y-139078296D01*
X214240501Y-139079500D01*
X213590499Y-139079500D01*
X213565995Y-139078296D01*
X213541727Y-139074696D01*
X213517928Y-139068735D01*
X213494829Y-139060470D01*
X213472650Y-139049980D01*
X213451607Y-139037368D01*
X213431901Y-139022753D01*
X213413723Y-139006277D01*
X213397247Y-138988099D01*
X213382632Y-138968393D01*
X213370020Y-138947350D01*
X213359530Y-138925171D01*
X213351265Y-138902072D01*
X213345304Y-138878273D01*
X213341704Y-138854005D01*
X213340500Y-138829501D01*
X213340500Y-137929499D01*
X213341704Y-137904995D01*
X213345304Y-137880727D01*
X213351265Y-137856928D01*
X213359530Y-137833829D01*
X213370020Y-137811650D01*
X213382632Y-137790607D01*
X213397247Y-137770901D01*
X213413723Y-137752723D01*
X213431901Y-137736247D01*
X213451607Y-137721632D01*
X213472650Y-137709020D01*
X213494829Y-137698530D01*
X213517928Y-137690265D01*
X213541727Y-137684304D01*
X213565995Y-137680704D01*
X213590499Y-137679500D01*
X214240501Y-137679500D01*
X214265005Y-137680704D01*
X214265005Y-137680704D01*
G37*
D15*
G04 #@! TD*
G04 #@! TO.P,C18,2*
G04 #@! TO.N,GND*
X213915500Y-138379500D03*
D12*
G04 #@! TO.N,Net-(C16-Pad1)*
G04 #@! TO.C,C19*
G36*
X220030805Y-145859504D02*
X220055073Y-145863104D01*
X220078872Y-145869065D01*
X220101971Y-145877330D01*
X220124150Y-145887820D01*
X220145193Y-145900432D01*
X220164899Y-145915047D01*
X220183077Y-145931523D01*
X220199553Y-145949701D01*
X220214168Y-145969407D01*
X220226780Y-145990450D01*
X220237270Y-146012629D01*
X220245535Y-146035728D01*
X220251496Y-146059527D01*
X220255096Y-146083795D01*
X220256300Y-146108299D01*
X220256300Y-147008301D01*
X220255096Y-147032805D01*
X220251496Y-147057073D01*
X220245535Y-147080872D01*
X220237270Y-147103971D01*
X220226780Y-147126150D01*
X220214168Y-147147193D01*
X220199553Y-147166899D01*
X220183077Y-147185077D01*
X220164899Y-147201553D01*
X220145193Y-147216168D01*
X220124150Y-147228780D01*
X220101971Y-147239270D01*
X220078872Y-147247535D01*
X220055073Y-147253496D01*
X220030805Y-147257096D01*
X220006301Y-147258300D01*
X219356299Y-147258300D01*
X219331795Y-147257096D01*
X219307527Y-147253496D01*
X219283728Y-147247535D01*
X219260629Y-147239270D01*
X219238450Y-147228780D01*
X219217407Y-147216168D01*
X219197701Y-147201553D01*
X219179523Y-147185077D01*
X219163047Y-147166899D01*
X219148432Y-147147193D01*
X219135820Y-147126150D01*
X219125330Y-147103971D01*
X219117065Y-147080872D01*
X219111104Y-147057073D01*
X219107504Y-147032805D01*
X219106300Y-147008301D01*
X219106300Y-146108299D01*
X219107504Y-146083795D01*
X219111104Y-146059527D01*
X219117065Y-146035728D01*
X219125330Y-146012629D01*
X219135820Y-145990450D01*
X219148432Y-145969407D01*
X219163047Y-145949701D01*
X219179523Y-145931523D01*
X219197701Y-145915047D01*
X219217407Y-145900432D01*
X219238450Y-145887820D01*
X219260629Y-145877330D01*
X219283728Y-145869065D01*
X219307527Y-145863104D01*
X219331795Y-145859504D01*
X219356299Y-145858300D01*
X220006301Y-145858300D01*
X220030805Y-145859504D01*
X220030805Y-145859504D01*
G37*
D15*
G04 #@! TD*
G04 #@! TO.P,C19,2*
G04 #@! TO.N,Net-(C16-Pad1)*
X219681300Y-146558300D03*
D12*
G04 #@! TO.N,Net-(C12-Pad2)*
G04 #@! TO.C,C19*
G36*
X217980805Y-145859504D02*
X218005073Y-145863104D01*
X218028872Y-145869065D01*
X218051971Y-145877330D01*
X218074150Y-145887820D01*
X218095193Y-145900432D01*
X218114899Y-145915047D01*
X218133077Y-145931523D01*
X218149553Y-145949701D01*
X218164168Y-145969407D01*
X218176780Y-145990450D01*
X218187270Y-146012629D01*
X218195535Y-146035728D01*
X218201496Y-146059527D01*
X218205096Y-146083795D01*
X218206300Y-146108299D01*
X218206300Y-147008301D01*
X218205096Y-147032805D01*
X218201496Y-147057073D01*
X218195535Y-147080872D01*
X218187270Y-147103971D01*
X218176780Y-147126150D01*
X218164168Y-147147193D01*
X218149553Y-147166899D01*
X218133077Y-147185077D01*
X218114899Y-147201553D01*
X218095193Y-147216168D01*
X218074150Y-147228780D01*
X218051971Y-147239270D01*
X218028872Y-147247535D01*
X218005073Y-147253496D01*
X217980805Y-147257096D01*
X217956301Y-147258300D01*
X217306299Y-147258300D01*
X217281795Y-147257096D01*
X217257527Y-147253496D01*
X217233728Y-147247535D01*
X217210629Y-147239270D01*
X217188450Y-147228780D01*
X217167407Y-147216168D01*
X217147701Y-147201553D01*
X217129523Y-147185077D01*
X217113047Y-147166899D01*
X217098432Y-147147193D01*
X217085820Y-147126150D01*
X217075330Y-147103971D01*
X217067065Y-147080872D01*
X217061104Y-147057073D01*
X217057504Y-147032805D01*
X217056300Y-147008301D01*
X217056300Y-146108299D01*
X217057504Y-146083795D01*
X217061104Y-146059527D01*
X217067065Y-146035728D01*
X217075330Y-146012629D01*
X217085820Y-145990450D01*
X217098432Y-145969407D01*
X217113047Y-145949701D01*
X217129523Y-145931523D01*
X217147701Y-145915047D01*
X217167407Y-145900432D01*
X217188450Y-145887820D01*
X217210629Y-145877330D01*
X217233728Y-145869065D01*
X217257527Y-145863104D01*
X217281795Y-145859504D01*
X217306299Y-145858300D01*
X217956301Y-145858300D01*
X217980805Y-145859504D01*
X217980805Y-145859504D01*
G37*
D15*
G04 #@! TD*
G04 #@! TO.P,C19,1*
G04 #@! TO.N,Net-(C12-Pad2)*
X217631300Y-146558300D03*
D12*
G04 #@! TO.N,GND*
G04 #@! TO.C,C20*
G36*
X222164405Y-136245604D02*
X222188673Y-136249204D01*
X222212472Y-136255165D01*
X222235571Y-136263430D01*
X222257750Y-136273920D01*
X222278793Y-136286532D01*
X222298499Y-136301147D01*
X222316677Y-136317623D01*
X222333153Y-136335801D01*
X222347768Y-136355507D01*
X222360380Y-136376550D01*
X222370870Y-136398729D01*
X222379135Y-136421828D01*
X222385096Y-136445627D01*
X222388696Y-136469895D01*
X222389900Y-136494399D01*
X222389900Y-137394401D01*
X222388696Y-137418905D01*
X222385096Y-137443173D01*
X222379135Y-137466972D01*
X222370870Y-137490071D01*
X222360380Y-137512250D01*
X222347768Y-137533293D01*
X222333153Y-137552999D01*
X222316677Y-137571177D01*
X222298499Y-137587653D01*
X222278793Y-137602268D01*
X222257750Y-137614880D01*
X222235571Y-137625370D01*
X222212472Y-137633635D01*
X222188673Y-137639596D01*
X222164405Y-137643196D01*
X222139901Y-137644400D01*
X221489899Y-137644400D01*
X221465395Y-137643196D01*
X221441127Y-137639596D01*
X221417328Y-137633635D01*
X221394229Y-137625370D01*
X221372050Y-137614880D01*
X221351007Y-137602268D01*
X221331301Y-137587653D01*
X221313123Y-137571177D01*
X221296647Y-137552999D01*
X221282032Y-137533293D01*
X221269420Y-137512250D01*
X221258930Y-137490071D01*
X221250665Y-137466972D01*
X221244704Y-137443173D01*
X221241104Y-137418905D01*
X221239900Y-137394401D01*
X221239900Y-136494399D01*
X221241104Y-136469895D01*
X221244704Y-136445627D01*
X221250665Y-136421828D01*
X221258930Y-136398729D01*
X221269420Y-136376550D01*
X221282032Y-136355507D01*
X221296647Y-136335801D01*
X221313123Y-136317623D01*
X221331301Y-136301147D01*
X221351007Y-136286532D01*
X221372050Y-136273920D01*
X221394229Y-136263430D01*
X221417328Y-136255165D01*
X221441127Y-136249204D01*
X221465395Y-136245604D01*
X221489899Y-136244400D01*
X222139901Y-136244400D01*
X222164405Y-136245604D01*
X222164405Y-136245604D01*
G37*
D15*
G04 #@! TD*
G04 #@! TO.P,C20,2*
G04 #@! TO.N,GND*
X221814900Y-136944400D03*
D12*
G04 #@! TO.N,Net-(C12-Pad2)*
G04 #@! TO.C,C20*
G36*
X220114405Y-136245604D02*
X220138673Y-136249204D01*
X220162472Y-136255165D01*
X220185571Y-136263430D01*
X220207750Y-136273920D01*
X220228793Y-136286532D01*
X220248499Y-136301147D01*
X220266677Y-136317623D01*
X220283153Y-136335801D01*
X220297768Y-136355507D01*
X220310380Y-136376550D01*
X220320870Y-136398729D01*
X220329135Y-136421828D01*
X220335096Y-136445627D01*
X220338696Y-136469895D01*
X220339900Y-136494399D01*
X220339900Y-137394401D01*
X220338696Y-137418905D01*
X220335096Y-137443173D01*
X220329135Y-137466972D01*
X220320870Y-137490071D01*
X220310380Y-137512250D01*
X220297768Y-137533293D01*
X220283153Y-137552999D01*
X220266677Y-137571177D01*
X220248499Y-137587653D01*
X220228793Y-137602268D01*
X220207750Y-137614880D01*
X220185571Y-137625370D01*
X220162472Y-137633635D01*
X220138673Y-137639596D01*
X220114405Y-137643196D01*
X220089901Y-137644400D01*
X219439899Y-137644400D01*
X219415395Y-137643196D01*
X219391127Y-137639596D01*
X219367328Y-137633635D01*
X219344229Y-137625370D01*
X219322050Y-137614880D01*
X219301007Y-137602268D01*
X219281301Y-137587653D01*
X219263123Y-137571177D01*
X219246647Y-137552999D01*
X219232032Y-137533293D01*
X219219420Y-137512250D01*
X219208930Y-137490071D01*
X219200665Y-137466972D01*
X219194704Y-137443173D01*
X219191104Y-137418905D01*
X219189900Y-137394401D01*
X219189900Y-136494399D01*
X219191104Y-136469895D01*
X219194704Y-136445627D01*
X219200665Y-136421828D01*
X219208930Y-136398729D01*
X219219420Y-136376550D01*
X219232032Y-136355507D01*
X219246647Y-136335801D01*
X219263123Y-136317623D01*
X219281301Y-136301147D01*
X219301007Y-136286532D01*
X219322050Y-136273920D01*
X219344229Y-136263430D01*
X219367328Y-136255165D01*
X219391127Y-136249204D01*
X219415395Y-136245604D01*
X219439899Y-136244400D01*
X220089901Y-136244400D01*
X220114405Y-136245604D01*
X220114405Y-136245604D01*
G37*
D15*
G04 #@! TD*
G04 #@! TO.P,C20,1*
G04 #@! TO.N,Net-(C12-Pad2)*
X219764900Y-136944400D03*
D12*
G04 #@! TO.N,Net-(C12-Pad2)*
G04 #@! TO.C,C21*
G36*
X208862205Y-135255004D02*
X208886473Y-135258604D01*
X208910272Y-135264565D01*
X208933371Y-135272830D01*
X208955550Y-135283320D01*
X208976593Y-135295932D01*
X208996299Y-135310547D01*
X209014477Y-135327023D01*
X209030953Y-135345201D01*
X209045568Y-135364907D01*
X209058180Y-135385950D01*
X209068670Y-135408129D01*
X209076935Y-135431228D01*
X209082896Y-135455027D01*
X209086496Y-135479295D01*
X209087700Y-135503799D01*
X209087700Y-136403801D01*
X209086496Y-136428305D01*
X209082896Y-136452573D01*
X209076935Y-136476372D01*
X209068670Y-136499471D01*
X209058180Y-136521650D01*
X209045568Y-136542693D01*
X209030953Y-136562399D01*
X209014477Y-136580577D01*
X208996299Y-136597053D01*
X208976593Y-136611668D01*
X208955550Y-136624280D01*
X208933371Y-136634770D01*
X208910272Y-136643035D01*
X208886473Y-136648996D01*
X208862205Y-136652596D01*
X208837701Y-136653800D01*
X208187699Y-136653800D01*
X208163195Y-136652596D01*
X208138927Y-136648996D01*
X208115128Y-136643035D01*
X208092029Y-136634770D01*
X208069850Y-136624280D01*
X208048807Y-136611668D01*
X208029101Y-136597053D01*
X208010923Y-136580577D01*
X207994447Y-136562399D01*
X207979832Y-136542693D01*
X207967220Y-136521650D01*
X207956730Y-136499471D01*
X207948465Y-136476372D01*
X207942504Y-136452573D01*
X207938904Y-136428305D01*
X207937700Y-136403801D01*
X207937700Y-135503799D01*
X207938904Y-135479295D01*
X207942504Y-135455027D01*
X207948465Y-135431228D01*
X207956730Y-135408129D01*
X207967220Y-135385950D01*
X207979832Y-135364907D01*
X207994447Y-135345201D01*
X208010923Y-135327023D01*
X208029101Y-135310547D01*
X208048807Y-135295932D01*
X208069850Y-135283320D01*
X208092029Y-135272830D01*
X208115128Y-135264565D01*
X208138927Y-135258604D01*
X208163195Y-135255004D01*
X208187699Y-135253800D01*
X208837701Y-135253800D01*
X208862205Y-135255004D01*
X208862205Y-135255004D01*
G37*
D15*
G04 #@! TD*
G04 #@! TO.P,C21,1*
G04 #@! TO.N,Net-(C12-Pad2)*
X208512700Y-135953800D03*
D12*
G04 #@! TO.N,GND*
G04 #@! TO.C,C21*
G36*
X210912205Y-135255004D02*
X210936473Y-135258604D01*
X210960272Y-135264565D01*
X210983371Y-135272830D01*
X211005550Y-135283320D01*
X211026593Y-135295932D01*
X211046299Y-135310547D01*
X211064477Y-135327023D01*
X211080953Y-135345201D01*
X211095568Y-135364907D01*
X211108180Y-135385950D01*
X211118670Y-135408129D01*
X211126935Y-135431228D01*
X211132896Y-135455027D01*
X211136496Y-135479295D01*
X211137700Y-135503799D01*
X211137700Y-136403801D01*
X211136496Y-136428305D01*
X211132896Y-136452573D01*
X211126935Y-136476372D01*
X211118670Y-136499471D01*
X211108180Y-136521650D01*
X211095568Y-136542693D01*
X211080953Y-136562399D01*
X211064477Y-136580577D01*
X211046299Y-136597053D01*
X211026593Y-136611668D01*
X211005550Y-136624280D01*
X210983371Y-136634770D01*
X210960272Y-136643035D01*
X210936473Y-136648996D01*
X210912205Y-136652596D01*
X210887701Y-136653800D01*
X210237699Y-136653800D01*
X210213195Y-136652596D01*
X210188927Y-136648996D01*
X210165128Y-136643035D01*
X210142029Y-136634770D01*
X210119850Y-136624280D01*
X210098807Y-136611668D01*
X210079101Y-136597053D01*
X210060923Y-136580577D01*
X210044447Y-136562399D01*
X210029832Y-136542693D01*
X210017220Y-136521650D01*
X210006730Y-136499471D01*
X209998465Y-136476372D01*
X209992504Y-136452573D01*
X209988904Y-136428305D01*
X209987700Y-136403801D01*
X209987700Y-135503799D01*
X209988904Y-135479295D01*
X209992504Y-135455027D01*
X209998465Y-135431228D01*
X210006730Y-135408129D01*
X210017220Y-135385950D01*
X210029832Y-135364907D01*
X210044447Y-135345201D01*
X210060923Y-135327023D01*
X210079101Y-135310547D01*
X210098807Y-135295932D01*
X210119850Y-135283320D01*
X210142029Y-135272830D01*
X210165128Y-135264565D01*
X210188927Y-135258604D01*
X210213195Y-135255004D01*
X210237699Y-135253800D01*
X210887701Y-135253800D01*
X210912205Y-135255004D01*
X210912205Y-135255004D01*
G37*
D15*
G04 #@! TD*
G04 #@! TO.P,C21,2*
G04 #@! TO.N,GND*
X210562700Y-135953800D03*
D12*
G04 #@! TO.N,Net-(C22-Pad1)*
G04 #@! TO.C,C22*
G36*
X208147105Y-126575405D02*
X208171374Y-126579005D01*
X208195172Y-126584966D01*
X208218272Y-126593231D01*
X208240450Y-126603721D01*
X208261494Y-126616334D01*
X208281199Y-126630948D01*
X208299378Y-126647424D01*
X208315854Y-126665603D01*
X208330468Y-126685308D01*
X208343081Y-126706352D01*
X208353571Y-126728530D01*
X208361836Y-126751630D01*
X208367797Y-126775428D01*
X208371397Y-126799697D01*
X208372601Y-126824201D01*
X208372601Y-128074201D01*
X208371397Y-128098705D01*
X208367797Y-128122974D01*
X208361836Y-128146772D01*
X208353571Y-128169872D01*
X208343081Y-128192050D01*
X208330468Y-128213094D01*
X208315854Y-128232799D01*
X208299378Y-128250978D01*
X208281199Y-128267454D01*
X208261494Y-128282068D01*
X208240450Y-128294681D01*
X208218272Y-128305171D01*
X208195172Y-128313436D01*
X208171374Y-128319397D01*
X208147105Y-128322997D01*
X208122601Y-128324201D01*
X207197601Y-128324201D01*
X207173097Y-128322997D01*
X207148828Y-128319397D01*
X207125030Y-128313436D01*
X207101930Y-128305171D01*
X207079752Y-128294681D01*
X207058708Y-128282068D01*
X207039003Y-128267454D01*
X207020824Y-128250978D01*
X207004348Y-128232799D01*
X206989734Y-128213094D01*
X206977121Y-128192050D01*
X206966631Y-128169872D01*
X206958366Y-128146772D01*
X206952405Y-128122974D01*
X206948805Y-128098705D01*
X206947601Y-128074201D01*
X206947601Y-126824201D01*
X206948805Y-126799697D01*
X206952405Y-126775428D01*
X206958366Y-126751630D01*
X206966631Y-126728530D01*
X206977121Y-126706352D01*
X206989734Y-126685308D01*
X207004348Y-126665603D01*
X207020824Y-126647424D01*
X207039003Y-126630948D01*
X207058708Y-126616334D01*
X207079752Y-126603721D01*
X207101930Y-126593231D01*
X207125030Y-126584966D01*
X207148828Y-126579005D01*
X207173097Y-126575405D01*
X207197601Y-126574201D01*
X208122601Y-126574201D01*
X208147105Y-126575405D01*
X208147105Y-126575405D01*
G37*
D16*
G04 #@! TD*
G04 #@! TO.P,C22,1*
G04 #@! TO.N,Net-(C22-Pad1)*
X207660101Y-127449201D03*
D12*
G04 #@! TO.N,GND*
G04 #@! TO.C,C22*
G36*
X211122105Y-126575405D02*
X211146374Y-126579005D01*
X211170172Y-126584966D01*
X211193272Y-126593231D01*
X211215450Y-126603721D01*
X211236494Y-126616334D01*
X211256199Y-126630948D01*
X211274378Y-126647424D01*
X211290854Y-126665603D01*
X211305468Y-126685308D01*
X211318081Y-126706352D01*
X211328571Y-126728530D01*
X211336836Y-126751630D01*
X211342797Y-126775428D01*
X211346397Y-126799697D01*
X211347601Y-126824201D01*
X211347601Y-128074201D01*
X211346397Y-128098705D01*
X211342797Y-128122974D01*
X211336836Y-128146772D01*
X211328571Y-128169872D01*
X211318081Y-128192050D01*
X211305468Y-128213094D01*
X211290854Y-128232799D01*
X211274378Y-128250978D01*
X211256199Y-128267454D01*
X211236494Y-128282068D01*
X211215450Y-128294681D01*
X211193272Y-128305171D01*
X211170172Y-128313436D01*
X211146374Y-128319397D01*
X211122105Y-128322997D01*
X211097601Y-128324201D01*
X210172601Y-128324201D01*
X210148097Y-128322997D01*
X210123828Y-128319397D01*
X210100030Y-128313436D01*
X210076930Y-128305171D01*
X210054752Y-128294681D01*
X210033708Y-128282068D01*
X210014003Y-128267454D01*
X209995824Y-128250978D01*
X209979348Y-128232799D01*
X209964734Y-128213094D01*
X209952121Y-128192050D01*
X209941631Y-128169872D01*
X209933366Y-128146772D01*
X209927405Y-128122974D01*
X209923805Y-128098705D01*
X209922601Y-128074201D01*
X209922601Y-126824201D01*
X209923805Y-126799697D01*
X209927405Y-126775428D01*
X209933366Y-126751630D01*
X209941631Y-126728530D01*
X209952121Y-126706352D01*
X209964734Y-126685308D01*
X209979348Y-126665603D01*
X209995824Y-126647424D01*
X210014003Y-126630948D01*
X210033708Y-126616334D01*
X210054752Y-126603721D01*
X210076930Y-126593231D01*
X210100030Y-126584966D01*
X210123828Y-126579005D01*
X210148097Y-126575405D01*
X210172601Y-126574201D01*
X211097601Y-126574201D01*
X211122105Y-126575405D01*
X211122105Y-126575405D01*
G37*
D16*
G04 #@! TD*
G04 #@! TO.P,C22,2*
G04 #@! TO.N,GND*
X210635101Y-127449201D03*
D12*
G04 #@! TO.N,Net-(J1-Pad2)*
G04 #@! TO.C,L1*
G36*
X213109304Y-103317804D02*
X213133573Y-103321404D01*
X213157371Y-103327365D01*
X213180471Y-103335630D01*
X213202649Y-103346120D01*
X213223693Y-103358733D01*
X213243398Y-103373347D01*
X213261577Y-103389823D01*
X213278053Y-103408002D01*
X213292667Y-103427707D01*
X213305280Y-103448751D01*
X213315770Y-103470929D01*
X213324035Y-103494029D01*
X213329996Y-103517827D01*
X213333596Y-103542096D01*
X213334800Y-103566600D01*
X213334800Y-106466600D01*
X213333596Y-106491104D01*
X213329996Y-106515373D01*
X213324035Y-106539171D01*
X213315770Y-106562271D01*
X213305280Y-106584449D01*
X213292667Y-106605493D01*
X213278053Y-106625198D01*
X213261577Y-106643377D01*
X213243398Y-106659853D01*
X213223693Y-106674467D01*
X213202649Y-106687080D01*
X213180471Y-106697570D01*
X213157371Y-106705835D01*
X213133573Y-106711796D01*
X213109304Y-106715396D01*
X213084800Y-106716600D01*
X212284800Y-106716600D01*
X212260296Y-106715396D01*
X212236027Y-106711796D01*
X212212229Y-106705835D01*
X212189129Y-106697570D01*
X212166951Y-106687080D01*
X212145907Y-106674467D01*
X212126202Y-106659853D01*
X212108023Y-106643377D01*
X212091547Y-106625198D01*
X212076933Y-106605493D01*
X212064320Y-106584449D01*
X212053830Y-106562271D01*
X212045565Y-106539171D01*
X212039604Y-106515373D01*
X212036004Y-106491104D01*
X212034800Y-106466600D01*
X212034800Y-103566600D01*
X212036004Y-103542096D01*
X212039604Y-103517827D01*
X212045565Y-103494029D01*
X212053830Y-103470929D01*
X212064320Y-103448751D01*
X212076933Y-103427707D01*
X212091547Y-103408002D01*
X212108023Y-103389823D01*
X212126202Y-103373347D01*
X212145907Y-103358733D01*
X212166951Y-103346120D01*
X212189129Y-103335630D01*
X212212229Y-103327365D01*
X212236027Y-103321404D01*
X212260296Y-103317804D01*
X212284800Y-103316600D01*
X213084800Y-103316600D01*
X213109304Y-103317804D01*
X213109304Y-103317804D01*
G37*
D17*
G04 #@! TD*
G04 #@! TO.P,L1,2*
G04 #@! TO.N,Net-(J1-Pad2)*
X212684800Y-105016600D03*
D12*
G04 #@! TO.N,Net-(C1-Pad1)*
G04 #@! TO.C,L1*
G36*
X217559304Y-103317804D02*
X217583573Y-103321404D01*
X217607371Y-103327365D01*
X217630471Y-103335630D01*
X217652649Y-103346120D01*
X217673693Y-103358733D01*
X217693398Y-103373347D01*
X217711577Y-103389823D01*
X217728053Y-103408002D01*
X217742667Y-103427707D01*
X217755280Y-103448751D01*
X217765770Y-103470929D01*
X217774035Y-103494029D01*
X217779996Y-103517827D01*
X217783596Y-103542096D01*
X217784800Y-103566600D01*
X217784800Y-106466600D01*
X217783596Y-106491104D01*
X217779996Y-106515373D01*
X217774035Y-106539171D01*
X217765770Y-106562271D01*
X217755280Y-106584449D01*
X217742667Y-106605493D01*
X217728053Y-106625198D01*
X217711577Y-106643377D01*
X217693398Y-106659853D01*
X217673693Y-106674467D01*
X217652649Y-106687080D01*
X217630471Y-106697570D01*
X217607371Y-106705835D01*
X217583573Y-106711796D01*
X217559304Y-106715396D01*
X217534800Y-106716600D01*
X216734800Y-106716600D01*
X216710296Y-106715396D01*
X216686027Y-106711796D01*
X216662229Y-106705835D01*
X216639129Y-106697570D01*
X216616951Y-106687080D01*
X216595907Y-106674467D01*
X216576202Y-106659853D01*
X216558023Y-106643377D01*
X216541547Y-106625198D01*
X216526933Y-106605493D01*
X216514320Y-106584449D01*
X216503830Y-106562271D01*
X216495565Y-106539171D01*
X216489604Y-106515373D01*
X216486004Y-106491104D01*
X216484800Y-106466600D01*
X216484800Y-103566600D01*
X216486004Y-103542096D01*
X216489604Y-103517827D01*
X216495565Y-103494029D01*
X216503830Y-103470929D01*
X216514320Y-103448751D01*
X216526933Y-103427707D01*
X216541547Y-103408002D01*
X216558023Y-103389823D01*
X216576202Y-103373347D01*
X216595907Y-103358733D01*
X216616951Y-103346120D01*
X216639129Y-103335630D01*
X216662229Y-103327365D01*
X216686027Y-103321404D01*
X216710296Y-103317804D01*
X216734800Y-103316600D01*
X217534800Y-103316600D01*
X217559304Y-103317804D01*
X217559304Y-103317804D01*
G37*
D17*
G04 #@! TD*
G04 #@! TO.P,L1,1*
G04 #@! TO.N,Net-(C1-Pad1)*
X217134800Y-105016600D03*
D12*
G04 #@! TO.N,Net-(C2-Pad1)*
G04 #@! TO.C,L2*
G36*
X217826004Y-108461304D02*
X217850273Y-108464904D01*
X217874071Y-108470865D01*
X217897171Y-108479130D01*
X217919349Y-108489620D01*
X217940393Y-108502233D01*
X217960098Y-108516847D01*
X217978277Y-108533323D01*
X217994753Y-108551502D01*
X218009367Y-108571207D01*
X218021980Y-108592251D01*
X218032470Y-108614429D01*
X218040735Y-108637529D01*
X218046696Y-108661327D01*
X218050296Y-108685596D01*
X218051500Y-108710100D01*
X218051500Y-111610100D01*
X218050296Y-111634604D01*
X218046696Y-111658873D01*
X218040735Y-111682671D01*
X218032470Y-111705771D01*
X218021980Y-111727949D01*
X218009367Y-111748993D01*
X217994753Y-111768698D01*
X217978277Y-111786877D01*
X217960098Y-111803353D01*
X217940393Y-111817967D01*
X217919349Y-111830580D01*
X217897171Y-111841070D01*
X217874071Y-111849335D01*
X217850273Y-111855296D01*
X217826004Y-111858896D01*
X217801500Y-111860100D01*
X217001500Y-111860100D01*
X216976996Y-111858896D01*
X216952727Y-111855296D01*
X216928929Y-111849335D01*
X216905829Y-111841070D01*
X216883651Y-111830580D01*
X216862607Y-111817967D01*
X216842902Y-111803353D01*
X216824723Y-111786877D01*
X216808247Y-111768698D01*
X216793633Y-111748993D01*
X216781020Y-111727949D01*
X216770530Y-111705771D01*
X216762265Y-111682671D01*
X216756304Y-111658873D01*
X216752704Y-111634604D01*
X216751500Y-111610100D01*
X216751500Y-108710100D01*
X216752704Y-108685596D01*
X216756304Y-108661327D01*
X216762265Y-108637529D01*
X216770530Y-108614429D01*
X216781020Y-108592251D01*
X216793633Y-108571207D01*
X216808247Y-108551502D01*
X216824723Y-108533323D01*
X216842902Y-108516847D01*
X216862607Y-108502233D01*
X216883651Y-108489620D01*
X216905829Y-108479130D01*
X216928929Y-108470865D01*
X216952727Y-108464904D01*
X216976996Y-108461304D01*
X217001500Y-108460100D01*
X217801500Y-108460100D01*
X217826004Y-108461304D01*
X217826004Y-108461304D01*
G37*
D17*
G04 #@! TD*
G04 #@! TO.P,L2,2*
G04 #@! TO.N,Net-(C2-Pad1)*
X217401500Y-110160100D03*
D12*
G04 #@! TO.N,/ADC_SPI/4.5Volt*
G04 #@! TO.C,L2*
G36*
X213376004Y-108461304D02*
X213400273Y-108464904D01*
X213424071Y-108470865D01*
X213447171Y-108479130D01*
X213469349Y-108489620D01*
X213490393Y-108502233D01*
X213510098Y-108516847D01*
X213528277Y-108533323D01*
X213544753Y-108551502D01*
X213559367Y-108571207D01*
X213571980Y-108592251D01*
X213582470Y-108614429D01*
X213590735Y-108637529D01*
X213596696Y-108661327D01*
X213600296Y-108685596D01*
X213601500Y-108710100D01*
X213601500Y-111610100D01*
X213600296Y-111634604D01*
X213596696Y-111658873D01*
X213590735Y-111682671D01*
X213582470Y-111705771D01*
X213571980Y-111727949D01*
X213559367Y-111748993D01*
X213544753Y-111768698D01*
X213528277Y-111786877D01*
X213510098Y-111803353D01*
X213490393Y-111817967D01*
X213469349Y-111830580D01*
X213447171Y-111841070D01*
X213424071Y-111849335D01*
X213400273Y-111855296D01*
X213376004Y-111858896D01*
X213351500Y-111860100D01*
X212551500Y-111860100D01*
X212526996Y-111858896D01*
X212502727Y-111855296D01*
X212478929Y-111849335D01*
X212455829Y-111841070D01*
X212433651Y-111830580D01*
X212412607Y-111817967D01*
X212392902Y-111803353D01*
X212374723Y-111786877D01*
X212358247Y-111768698D01*
X212343633Y-111748993D01*
X212331020Y-111727949D01*
X212320530Y-111705771D01*
X212312265Y-111682671D01*
X212306304Y-111658873D01*
X212302704Y-111634604D01*
X212301500Y-111610100D01*
X212301500Y-108710100D01*
X212302704Y-108685596D01*
X212306304Y-108661327D01*
X212312265Y-108637529D01*
X212320530Y-108614429D01*
X212331020Y-108592251D01*
X212343633Y-108571207D01*
X212358247Y-108551502D01*
X212374723Y-108533323D01*
X212392902Y-108516847D01*
X212412607Y-108502233D01*
X212433651Y-108489620D01*
X212455829Y-108479130D01*
X212478929Y-108470865D01*
X212502727Y-108464904D01*
X212526996Y-108461304D01*
X212551500Y-108460100D01*
X213351500Y-108460100D01*
X213376004Y-108461304D01*
X213376004Y-108461304D01*
G37*
D17*
G04 #@! TD*
G04 #@! TO.P,L2,1*
G04 #@! TO.N,/ADC_SPI/4.5Volt*
X212951500Y-110160100D03*
D12*
G04 #@! TO.N,Net-(C2-Pad1)*
G04 #@! TO.C,L3*
G36*
X224145604Y-111737904D02*
X224169873Y-111741504D01*
X224193671Y-111747465D01*
X224216771Y-111755730D01*
X224238949Y-111766220D01*
X224259993Y-111778833D01*
X224279698Y-111793447D01*
X224297877Y-111809923D01*
X224314353Y-111828102D01*
X224328967Y-111847807D01*
X224341580Y-111868851D01*
X224352070Y-111891029D01*
X224360335Y-111914129D01*
X224366296Y-111937927D01*
X224369896Y-111962196D01*
X224371100Y-111986700D01*
X224371100Y-114886700D01*
X224369896Y-114911204D01*
X224366296Y-114935473D01*
X224360335Y-114959271D01*
X224352070Y-114982371D01*
X224341580Y-115004549D01*
X224328967Y-115025593D01*
X224314353Y-115045298D01*
X224297877Y-115063477D01*
X224279698Y-115079953D01*
X224259993Y-115094567D01*
X224238949Y-115107180D01*
X224216771Y-115117670D01*
X224193671Y-115125935D01*
X224169873Y-115131896D01*
X224145604Y-115135496D01*
X224121100Y-115136700D01*
X223321100Y-115136700D01*
X223296596Y-115135496D01*
X223272327Y-115131896D01*
X223248529Y-115125935D01*
X223225429Y-115117670D01*
X223203251Y-115107180D01*
X223182207Y-115094567D01*
X223162502Y-115079953D01*
X223144323Y-115063477D01*
X223127847Y-115045298D01*
X223113233Y-115025593D01*
X223100620Y-115004549D01*
X223090130Y-114982371D01*
X223081865Y-114959271D01*
X223075904Y-114935473D01*
X223072304Y-114911204D01*
X223071100Y-114886700D01*
X223071100Y-111986700D01*
X223072304Y-111962196D01*
X223075904Y-111937927D01*
X223081865Y-111914129D01*
X223090130Y-111891029D01*
X223100620Y-111868851D01*
X223113233Y-111847807D01*
X223127847Y-111828102D01*
X223144323Y-111809923D01*
X223162502Y-111793447D01*
X223182207Y-111778833D01*
X223203251Y-111766220D01*
X223225429Y-111755730D01*
X223248529Y-111747465D01*
X223272327Y-111741504D01*
X223296596Y-111737904D01*
X223321100Y-111736700D01*
X224121100Y-111736700D01*
X224145604Y-111737904D01*
X224145604Y-111737904D01*
G37*
D17*
G04 #@! TD*
G04 #@! TO.P,L3,1*
G04 #@! TO.N,Net-(C2-Pad1)*
X223721100Y-113436700D03*
D12*
G04 #@! TO.N,/ADC_SPI/V4.5A*
G04 #@! TO.C,L3*
G36*
X228595604Y-111737904D02*
X228619873Y-111741504D01*
X228643671Y-111747465D01*
X228666771Y-111755730D01*
X228688949Y-111766220D01*
X228709993Y-111778833D01*
X228729698Y-111793447D01*
X228747877Y-111809923D01*
X228764353Y-111828102D01*
X228778967Y-111847807D01*
X228791580Y-111868851D01*
X228802070Y-111891029D01*
X228810335Y-111914129D01*
X228816296Y-111937927D01*
X228819896Y-111962196D01*
X228821100Y-111986700D01*
X228821100Y-114886700D01*
X228819896Y-114911204D01*
X228816296Y-114935473D01*
X228810335Y-114959271D01*
X228802070Y-114982371D01*
X228791580Y-115004549D01*
X228778967Y-115025593D01*
X228764353Y-115045298D01*
X228747877Y-115063477D01*
X228729698Y-115079953D01*
X228709993Y-115094567D01*
X228688949Y-115107180D01*
X228666771Y-115117670D01*
X228643671Y-115125935D01*
X228619873Y-115131896D01*
X228595604Y-115135496D01*
X228571100Y-115136700D01*
X227771100Y-115136700D01*
X227746596Y-115135496D01*
X227722327Y-115131896D01*
X227698529Y-115125935D01*
X227675429Y-115117670D01*
X227653251Y-115107180D01*
X227632207Y-115094567D01*
X227612502Y-115079953D01*
X227594323Y-115063477D01*
X227577847Y-115045298D01*
X227563233Y-115025593D01*
X227550620Y-115004549D01*
X227540130Y-114982371D01*
X227531865Y-114959271D01*
X227525904Y-114935473D01*
X227522304Y-114911204D01*
X227521100Y-114886700D01*
X227521100Y-111986700D01*
X227522304Y-111962196D01*
X227525904Y-111937927D01*
X227531865Y-111914129D01*
X227540130Y-111891029D01*
X227550620Y-111868851D01*
X227563233Y-111847807D01*
X227577847Y-111828102D01*
X227594323Y-111809923D01*
X227612502Y-111793447D01*
X227632207Y-111778833D01*
X227653251Y-111766220D01*
X227675429Y-111755730D01*
X227698529Y-111747465D01*
X227722327Y-111741504D01*
X227746596Y-111737904D01*
X227771100Y-111736700D01*
X228571100Y-111736700D01*
X228595604Y-111737904D01*
X228595604Y-111737904D01*
G37*
D17*
G04 #@! TD*
G04 #@! TO.P,L3,2*
G04 #@! TO.N,/ADC_SPI/V4.5A*
X228171100Y-113436700D03*
D10*
G04 #@! TO.P,L4,1*
G04 #@! TO.N,Net-(C16-Pad1)*
X219431000Y-140309900D03*
D11*
G04 #@! TO.P,L4,2*
G04 #@! TO.N,Net-(C14-Pad1)*
X219431000Y-142849900D03*
G04 #@! TD*
G04 #@! TO.P,L5,2*
G04 #@! TO.N,Net-(C16-Pad1)*
X224765000Y-141059200D03*
D10*
G04 #@! TO.P,L5,1*
G04 #@! TO.N,Net-(C12-Pad2)*
X224765000Y-138519200D03*
G04 #@! TD*
D12*
G04 #@! TO.N,Net-(C22-Pad1)*
G04 #@! TO.C,L6*
G36*
X204367105Y-120380405D02*
X204391374Y-120384005D01*
X204415172Y-120389966D01*
X204438272Y-120398231D01*
X204460450Y-120408721D01*
X204481494Y-120421334D01*
X204501199Y-120435948D01*
X204519378Y-120452424D01*
X204535854Y-120470603D01*
X204550468Y-120490308D01*
X204563081Y-120511352D01*
X204573571Y-120533530D01*
X204581836Y-120556630D01*
X204587797Y-120580428D01*
X204591397Y-120604697D01*
X204592601Y-120629201D01*
X204592601Y-123529201D01*
X204591397Y-123553705D01*
X204587797Y-123577974D01*
X204581836Y-123601772D01*
X204573571Y-123624872D01*
X204563081Y-123647050D01*
X204550468Y-123668094D01*
X204535854Y-123687799D01*
X204519378Y-123705978D01*
X204501199Y-123722454D01*
X204481494Y-123737068D01*
X204460450Y-123749681D01*
X204438272Y-123760171D01*
X204415172Y-123768436D01*
X204391374Y-123774397D01*
X204367105Y-123777997D01*
X204342601Y-123779201D01*
X203542601Y-123779201D01*
X203518097Y-123777997D01*
X203493828Y-123774397D01*
X203470030Y-123768436D01*
X203446930Y-123760171D01*
X203424752Y-123749681D01*
X203403708Y-123737068D01*
X203384003Y-123722454D01*
X203365824Y-123705978D01*
X203349348Y-123687799D01*
X203334734Y-123668094D01*
X203322121Y-123647050D01*
X203311631Y-123624872D01*
X203303366Y-123601772D01*
X203297405Y-123577974D01*
X203293805Y-123553705D01*
X203292601Y-123529201D01*
X203292601Y-120629201D01*
X203293805Y-120604697D01*
X203297405Y-120580428D01*
X203303366Y-120556630D01*
X203311631Y-120533530D01*
X203322121Y-120511352D01*
X203334734Y-120490308D01*
X203349348Y-120470603D01*
X203365824Y-120452424D01*
X203384003Y-120435948D01*
X203403708Y-120421334D01*
X203424752Y-120408721D01*
X203446930Y-120398231D01*
X203470030Y-120389966D01*
X203493828Y-120384005D01*
X203518097Y-120380405D01*
X203542601Y-120379201D01*
X204342601Y-120379201D01*
X204367105Y-120380405D01*
X204367105Y-120380405D01*
G37*
D17*
G04 #@! TD*
G04 #@! TO.P,L6,1*
G04 #@! TO.N,Net-(C22-Pad1)*
X203942601Y-122079201D03*
D12*
G04 #@! TO.N,/ADC_SPI/V4.5A*
G04 #@! TO.C,L6*
G36*
X208817105Y-120380405D02*
X208841374Y-120384005D01*
X208865172Y-120389966D01*
X208888272Y-120398231D01*
X208910450Y-120408721D01*
X208931494Y-120421334D01*
X208951199Y-120435948D01*
X208969378Y-120452424D01*
X208985854Y-120470603D01*
X209000468Y-120490308D01*
X209013081Y-120511352D01*
X209023571Y-120533530D01*
X209031836Y-120556630D01*
X209037797Y-120580428D01*
X209041397Y-120604697D01*
X209042601Y-120629201D01*
X209042601Y-123529201D01*
X209041397Y-123553705D01*
X209037797Y-123577974D01*
X209031836Y-123601772D01*
X209023571Y-123624872D01*
X209013081Y-123647050D01*
X209000468Y-123668094D01*
X208985854Y-123687799D01*
X208969378Y-123705978D01*
X208951199Y-123722454D01*
X208931494Y-123737068D01*
X208910450Y-123749681D01*
X208888272Y-123760171D01*
X208865172Y-123768436D01*
X208841374Y-123774397D01*
X208817105Y-123777997D01*
X208792601Y-123779201D01*
X207992601Y-123779201D01*
X207968097Y-123777997D01*
X207943828Y-123774397D01*
X207920030Y-123768436D01*
X207896930Y-123760171D01*
X207874752Y-123749681D01*
X207853708Y-123737068D01*
X207834003Y-123722454D01*
X207815824Y-123705978D01*
X207799348Y-123687799D01*
X207784734Y-123668094D01*
X207772121Y-123647050D01*
X207761631Y-123624872D01*
X207753366Y-123601772D01*
X207747405Y-123577974D01*
X207743805Y-123553705D01*
X207742601Y-123529201D01*
X207742601Y-120629201D01*
X207743805Y-120604697D01*
X207747405Y-120580428D01*
X207753366Y-120556630D01*
X207761631Y-120533530D01*
X207772121Y-120511352D01*
X207784734Y-120490308D01*
X207799348Y-120470603D01*
X207815824Y-120452424D01*
X207834003Y-120435948D01*
X207853708Y-120421334D01*
X207874752Y-120408721D01*
X207896930Y-120398231D01*
X207920030Y-120389966D01*
X207943828Y-120384005D01*
X207968097Y-120380405D01*
X207992601Y-120379201D01*
X208792601Y-120379201D01*
X208817105Y-120380405D01*
X208817105Y-120380405D01*
G37*
D17*
G04 #@! TD*
G04 #@! TO.P,L6,2*
G04 #@! TO.N,/ADC_SPI/V4.5A*
X208392601Y-122079201D03*
D12*
G04 #@! TO.N,Net-(R1-Pad2)*
G04 #@! TO.C,R1*
G36*
X240896905Y-107454704D02*
X240921173Y-107458304D01*
X240944972Y-107464265D01*
X240968071Y-107472530D01*
X240990250Y-107483020D01*
X241011293Y-107495632D01*
X241030999Y-107510247D01*
X241049177Y-107526723D01*
X241065653Y-107544901D01*
X241080268Y-107564607D01*
X241092880Y-107585650D01*
X241103370Y-107607829D01*
X241111635Y-107630928D01*
X241117596Y-107654727D01*
X241121196Y-107678995D01*
X241122400Y-107703499D01*
X241122400Y-108603501D01*
X241121196Y-108628005D01*
X241117596Y-108652273D01*
X241111635Y-108676072D01*
X241103370Y-108699171D01*
X241092880Y-108721350D01*
X241080268Y-108742393D01*
X241065653Y-108762099D01*
X241049177Y-108780277D01*
X241030999Y-108796753D01*
X241011293Y-108811368D01*
X240990250Y-108823980D01*
X240968071Y-108834470D01*
X240944972Y-108842735D01*
X240921173Y-108848696D01*
X240896905Y-108852296D01*
X240872401Y-108853500D01*
X240222399Y-108853500D01*
X240197895Y-108852296D01*
X240173627Y-108848696D01*
X240149828Y-108842735D01*
X240126729Y-108834470D01*
X240104550Y-108823980D01*
X240083507Y-108811368D01*
X240063801Y-108796753D01*
X240045623Y-108780277D01*
X240029147Y-108762099D01*
X240014532Y-108742393D01*
X240001920Y-108721350D01*
X239991430Y-108699171D01*
X239983165Y-108676072D01*
X239977204Y-108652273D01*
X239973604Y-108628005D01*
X239972400Y-108603501D01*
X239972400Y-107703499D01*
X239973604Y-107678995D01*
X239977204Y-107654727D01*
X239983165Y-107630928D01*
X239991430Y-107607829D01*
X240001920Y-107585650D01*
X240014532Y-107564607D01*
X240029147Y-107544901D01*
X240045623Y-107526723D01*
X240063801Y-107510247D01*
X240083507Y-107495632D01*
X240104550Y-107483020D01*
X240126729Y-107472530D01*
X240149828Y-107464265D01*
X240173627Y-107458304D01*
X240197895Y-107454704D01*
X240222399Y-107453500D01*
X240872401Y-107453500D01*
X240896905Y-107454704D01*
X240896905Y-107454704D01*
G37*
D15*
G04 #@! TD*
G04 #@! TO.P,R1,2*
G04 #@! TO.N,Net-(R1-Pad2)*
X240547400Y-108153500D03*
D12*
G04 #@! TO.N,Net-(C3-Pad1)*
G04 #@! TO.C,R1*
G36*
X238846905Y-107454704D02*
X238871173Y-107458304D01*
X238894972Y-107464265D01*
X238918071Y-107472530D01*
X238940250Y-107483020D01*
X238961293Y-107495632D01*
X238980999Y-107510247D01*
X238999177Y-107526723D01*
X239015653Y-107544901D01*
X239030268Y-107564607D01*
X239042880Y-107585650D01*
X239053370Y-107607829D01*
X239061635Y-107630928D01*
X239067596Y-107654727D01*
X239071196Y-107678995D01*
X239072400Y-107703499D01*
X239072400Y-108603501D01*
X239071196Y-108628005D01*
X239067596Y-108652273D01*
X239061635Y-108676072D01*
X239053370Y-108699171D01*
X239042880Y-108721350D01*
X239030268Y-108742393D01*
X239015653Y-108762099D01*
X238999177Y-108780277D01*
X238980999Y-108796753D01*
X238961293Y-108811368D01*
X238940250Y-108823980D01*
X238918071Y-108834470D01*
X238894972Y-108842735D01*
X238871173Y-108848696D01*
X238846905Y-108852296D01*
X238822401Y-108853500D01*
X238172399Y-108853500D01*
X238147895Y-108852296D01*
X238123627Y-108848696D01*
X238099828Y-108842735D01*
X238076729Y-108834470D01*
X238054550Y-108823980D01*
X238033507Y-108811368D01*
X238013801Y-108796753D01*
X237995623Y-108780277D01*
X237979147Y-108762099D01*
X237964532Y-108742393D01*
X237951920Y-108721350D01*
X237941430Y-108699171D01*
X237933165Y-108676072D01*
X237927204Y-108652273D01*
X237923604Y-108628005D01*
X237922400Y-108603501D01*
X237922400Y-107703499D01*
X237923604Y-107678995D01*
X237927204Y-107654727D01*
X237933165Y-107630928D01*
X237941430Y-107607829D01*
X237951920Y-107585650D01*
X237964532Y-107564607D01*
X237979147Y-107544901D01*
X237995623Y-107526723D01*
X238013801Y-107510247D01*
X238033507Y-107495632D01*
X238054550Y-107483020D01*
X238076729Y-107472530D01*
X238099828Y-107464265D01*
X238123627Y-107458304D01*
X238147895Y-107454704D01*
X238172399Y-107453500D01*
X238822401Y-107453500D01*
X238846905Y-107454704D01*
X238846905Y-107454704D01*
G37*
D15*
G04 #@! TD*
G04 #@! TO.P,R1,1*
G04 #@! TO.N,Net-(C3-Pad1)*
X238497400Y-108153500D03*
D12*
G04 #@! TO.N,Net-(C4-Pad1)*
G04 #@! TO.C,R2*
G36*
X243406205Y-107657904D02*
X243430473Y-107661504D01*
X243454272Y-107667465D01*
X243477371Y-107675730D01*
X243499550Y-107686220D01*
X243520593Y-107698832D01*
X243540299Y-107713447D01*
X243558477Y-107729923D01*
X243574953Y-107748101D01*
X243589568Y-107767807D01*
X243602180Y-107788850D01*
X243612670Y-107811029D01*
X243620935Y-107834128D01*
X243626896Y-107857927D01*
X243630496Y-107882195D01*
X243631700Y-107906699D01*
X243631700Y-108806701D01*
X243630496Y-108831205D01*
X243626896Y-108855473D01*
X243620935Y-108879272D01*
X243612670Y-108902371D01*
X243602180Y-108924550D01*
X243589568Y-108945593D01*
X243574953Y-108965299D01*
X243558477Y-108983477D01*
X243540299Y-108999953D01*
X243520593Y-109014568D01*
X243499550Y-109027180D01*
X243477371Y-109037670D01*
X243454272Y-109045935D01*
X243430473Y-109051896D01*
X243406205Y-109055496D01*
X243381701Y-109056700D01*
X242731699Y-109056700D01*
X242707195Y-109055496D01*
X242682927Y-109051896D01*
X242659128Y-109045935D01*
X242636029Y-109037670D01*
X242613850Y-109027180D01*
X242592807Y-109014568D01*
X242573101Y-108999953D01*
X242554923Y-108983477D01*
X242538447Y-108965299D01*
X242523832Y-108945593D01*
X242511220Y-108924550D01*
X242500730Y-108902371D01*
X242492465Y-108879272D01*
X242486504Y-108855473D01*
X242482904Y-108831205D01*
X242481700Y-108806701D01*
X242481700Y-107906699D01*
X242482904Y-107882195D01*
X242486504Y-107857927D01*
X242492465Y-107834128D01*
X242500730Y-107811029D01*
X242511220Y-107788850D01*
X242523832Y-107767807D01*
X242538447Y-107748101D01*
X242554923Y-107729923D01*
X242573101Y-107713447D01*
X242592807Y-107698832D01*
X242613850Y-107686220D01*
X242636029Y-107675730D01*
X242659128Y-107667465D01*
X242682927Y-107661504D01*
X242707195Y-107657904D01*
X242731699Y-107656700D01*
X243381701Y-107656700D01*
X243406205Y-107657904D01*
X243406205Y-107657904D01*
G37*
D15*
G04 #@! TD*
G04 #@! TO.P,R2,1*
G04 #@! TO.N,Net-(C4-Pad1)*
X243056700Y-108356700D03*
D12*
G04 #@! TO.N,Net-(R2-Pad2)*
G04 #@! TO.C,R2*
G36*
X245456205Y-107657904D02*
X245480473Y-107661504D01*
X245504272Y-107667465D01*
X245527371Y-107675730D01*
X245549550Y-107686220D01*
X245570593Y-107698832D01*
X245590299Y-107713447D01*
X245608477Y-107729923D01*
X245624953Y-107748101D01*
X245639568Y-107767807D01*
X245652180Y-107788850D01*
X245662670Y-107811029D01*
X245670935Y-107834128D01*
X245676896Y-107857927D01*
X245680496Y-107882195D01*
X245681700Y-107906699D01*
X245681700Y-108806701D01*
X245680496Y-108831205D01*
X245676896Y-108855473D01*
X245670935Y-108879272D01*
X245662670Y-108902371D01*
X245652180Y-108924550D01*
X245639568Y-108945593D01*
X245624953Y-108965299D01*
X245608477Y-108983477D01*
X245590299Y-108999953D01*
X245570593Y-109014568D01*
X245549550Y-109027180D01*
X245527371Y-109037670D01*
X245504272Y-109045935D01*
X245480473Y-109051896D01*
X245456205Y-109055496D01*
X245431701Y-109056700D01*
X244781699Y-109056700D01*
X244757195Y-109055496D01*
X244732927Y-109051896D01*
X244709128Y-109045935D01*
X244686029Y-109037670D01*
X244663850Y-109027180D01*
X244642807Y-109014568D01*
X244623101Y-108999953D01*
X244604923Y-108983477D01*
X244588447Y-108965299D01*
X244573832Y-108945593D01*
X244561220Y-108924550D01*
X244550730Y-108902371D01*
X244542465Y-108879272D01*
X244536504Y-108855473D01*
X244532904Y-108831205D01*
X244531700Y-108806701D01*
X244531700Y-107906699D01*
X244532904Y-107882195D01*
X244536504Y-107857927D01*
X244542465Y-107834128D01*
X244550730Y-107811029D01*
X244561220Y-107788850D01*
X244573832Y-107767807D01*
X244588447Y-107748101D01*
X244604923Y-107729923D01*
X244623101Y-107713447D01*
X244642807Y-107698832D01*
X244663850Y-107686220D01*
X244686029Y-107675730D01*
X244709128Y-107667465D01*
X244732927Y-107661504D01*
X244757195Y-107657904D01*
X244781699Y-107656700D01*
X245431701Y-107656700D01*
X245456205Y-107657904D01*
X245456205Y-107657904D01*
G37*
D15*
G04 #@! TD*
G04 #@! TO.P,R2,2*
G04 #@! TO.N,Net-(R2-Pad2)*
X245106700Y-108356700D03*
D12*
G04 #@! TO.N,Net-(R3-Pad1)*
G04 #@! TO.C,R3*
G36*
X242852705Y-118592604D02*
X242876973Y-118596204D01*
X242900772Y-118602165D01*
X242923871Y-118610430D01*
X242946050Y-118620920D01*
X242967093Y-118633532D01*
X242986799Y-118648147D01*
X243004977Y-118664623D01*
X243021453Y-118682801D01*
X243036068Y-118702507D01*
X243048680Y-118723550D01*
X243059170Y-118745729D01*
X243067435Y-118768828D01*
X243073396Y-118792627D01*
X243076996Y-118816895D01*
X243078200Y-118841399D01*
X243078200Y-119741401D01*
X243076996Y-119765905D01*
X243073396Y-119790173D01*
X243067435Y-119813972D01*
X243059170Y-119837071D01*
X243048680Y-119859250D01*
X243036068Y-119880293D01*
X243021453Y-119899999D01*
X243004977Y-119918177D01*
X242986799Y-119934653D01*
X242967093Y-119949268D01*
X242946050Y-119961880D01*
X242923871Y-119972370D01*
X242900772Y-119980635D01*
X242876973Y-119986596D01*
X242852705Y-119990196D01*
X242828201Y-119991400D01*
X242178199Y-119991400D01*
X242153695Y-119990196D01*
X242129427Y-119986596D01*
X242105628Y-119980635D01*
X242082529Y-119972370D01*
X242060350Y-119961880D01*
X242039307Y-119949268D01*
X242019601Y-119934653D01*
X242001423Y-119918177D01*
X241984947Y-119899999D01*
X241970332Y-119880293D01*
X241957720Y-119859250D01*
X241947230Y-119837071D01*
X241938965Y-119813972D01*
X241933004Y-119790173D01*
X241929404Y-119765905D01*
X241928200Y-119741401D01*
X241928200Y-118841399D01*
X241929404Y-118816895D01*
X241933004Y-118792627D01*
X241938965Y-118768828D01*
X241947230Y-118745729D01*
X241957720Y-118723550D01*
X241970332Y-118702507D01*
X241984947Y-118682801D01*
X242001423Y-118664623D01*
X242019601Y-118648147D01*
X242039307Y-118633532D01*
X242060350Y-118620920D01*
X242082529Y-118610430D01*
X242105628Y-118602165D01*
X242129427Y-118596204D01*
X242153695Y-118592604D01*
X242178199Y-118591400D01*
X242828201Y-118591400D01*
X242852705Y-118592604D01*
X242852705Y-118592604D01*
G37*
D15*
G04 #@! TD*
G04 #@! TO.P,R3,1*
G04 #@! TO.N,Net-(R3-Pad1)*
X242503200Y-119291400D03*
D12*
G04 #@! TO.N,Net-(C5-Pad1)*
G04 #@! TO.C,R3*
G36*
X240802705Y-118592604D02*
X240826973Y-118596204D01*
X240850772Y-118602165D01*
X240873871Y-118610430D01*
X240896050Y-118620920D01*
X240917093Y-118633532D01*
X240936799Y-118648147D01*
X240954977Y-118664623D01*
X240971453Y-118682801D01*
X240986068Y-118702507D01*
X240998680Y-118723550D01*
X241009170Y-118745729D01*
X241017435Y-118768828D01*
X241023396Y-118792627D01*
X241026996Y-118816895D01*
X241028200Y-118841399D01*
X241028200Y-119741401D01*
X241026996Y-119765905D01*
X241023396Y-119790173D01*
X241017435Y-119813972D01*
X241009170Y-119837071D01*
X240998680Y-119859250D01*
X240986068Y-119880293D01*
X240971453Y-119899999D01*
X240954977Y-119918177D01*
X240936799Y-119934653D01*
X240917093Y-119949268D01*
X240896050Y-119961880D01*
X240873871Y-119972370D01*
X240850772Y-119980635D01*
X240826973Y-119986596D01*
X240802705Y-119990196D01*
X240778201Y-119991400D01*
X240128199Y-119991400D01*
X240103695Y-119990196D01*
X240079427Y-119986596D01*
X240055628Y-119980635D01*
X240032529Y-119972370D01*
X240010350Y-119961880D01*
X239989307Y-119949268D01*
X239969601Y-119934653D01*
X239951423Y-119918177D01*
X239934947Y-119899999D01*
X239920332Y-119880293D01*
X239907720Y-119859250D01*
X239897230Y-119837071D01*
X239888965Y-119813972D01*
X239883004Y-119790173D01*
X239879404Y-119765905D01*
X239878200Y-119741401D01*
X239878200Y-118841399D01*
X239879404Y-118816895D01*
X239883004Y-118792627D01*
X239888965Y-118768828D01*
X239897230Y-118745729D01*
X239907720Y-118723550D01*
X239920332Y-118702507D01*
X239934947Y-118682801D01*
X239951423Y-118664623D01*
X239969601Y-118648147D01*
X239989307Y-118633532D01*
X240010350Y-118620920D01*
X240032529Y-118610430D01*
X240055628Y-118602165D01*
X240079427Y-118596204D01*
X240103695Y-118592604D01*
X240128199Y-118591400D01*
X240778201Y-118591400D01*
X240802705Y-118592604D01*
X240802705Y-118592604D01*
G37*
D15*
G04 #@! TD*
G04 #@! TO.P,R3,2*
G04 #@! TO.N,Net-(C5-Pad1)*
X240453200Y-119291400D03*
D12*
G04 #@! TO.N,Net-(C6-Pad1)*
G04 #@! TO.C,R4*
G36*
X247343205Y-114871504D02*
X247367473Y-114875104D01*
X247391272Y-114881065D01*
X247414371Y-114889330D01*
X247436550Y-114899820D01*
X247457593Y-114912432D01*
X247477299Y-114927047D01*
X247495477Y-114943523D01*
X247511953Y-114961701D01*
X247526568Y-114981407D01*
X247539180Y-115002450D01*
X247549670Y-115024629D01*
X247557935Y-115047728D01*
X247563896Y-115071527D01*
X247567496Y-115095795D01*
X247568700Y-115120299D01*
X247568700Y-116020301D01*
X247567496Y-116044805D01*
X247563896Y-116069073D01*
X247557935Y-116092872D01*
X247549670Y-116115971D01*
X247539180Y-116138150D01*
X247526568Y-116159193D01*
X247511953Y-116178899D01*
X247495477Y-116197077D01*
X247477299Y-116213553D01*
X247457593Y-116228168D01*
X247436550Y-116240780D01*
X247414371Y-116251270D01*
X247391272Y-116259535D01*
X247367473Y-116265496D01*
X247343205Y-116269096D01*
X247318701Y-116270300D01*
X246668699Y-116270300D01*
X246644195Y-116269096D01*
X246619927Y-116265496D01*
X246596128Y-116259535D01*
X246573029Y-116251270D01*
X246550850Y-116240780D01*
X246529807Y-116228168D01*
X246510101Y-116213553D01*
X246491923Y-116197077D01*
X246475447Y-116178899D01*
X246460832Y-116159193D01*
X246448220Y-116138150D01*
X246437730Y-116115971D01*
X246429465Y-116092872D01*
X246423504Y-116069073D01*
X246419904Y-116044805D01*
X246418700Y-116020301D01*
X246418700Y-115120299D01*
X246419904Y-115095795D01*
X246423504Y-115071527D01*
X246429465Y-115047728D01*
X246437730Y-115024629D01*
X246448220Y-115002450D01*
X246460832Y-114981407D01*
X246475447Y-114961701D01*
X246491923Y-114943523D01*
X246510101Y-114927047D01*
X246529807Y-114912432D01*
X246550850Y-114899820D01*
X246573029Y-114889330D01*
X246596128Y-114881065D01*
X246619927Y-114875104D01*
X246644195Y-114871504D01*
X246668699Y-114870300D01*
X247318701Y-114870300D01*
X247343205Y-114871504D01*
X247343205Y-114871504D01*
G37*
D15*
G04 #@! TD*
G04 #@! TO.P,R4,2*
G04 #@! TO.N,Net-(C6-Pad1)*
X246993700Y-115570300D03*
D12*
G04 #@! TO.N,Net-(R4-Pad1)*
G04 #@! TO.C,R4*
G36*
X249393205Y-114871504D02*
X249417473Y-114875104D01*
X249441272Y-114881065D01*
X249464371Y-114889330D01*
X249486550Y-114899820D01*
X249507593Y-114912432D01*
X249527299Y-114927047D01*
X249545477Y-114943523D01*
X249561953Y-114961701D01*
X249576568Y-114981407D01*
X249589180Y-115002450D01*
X249599670Y-115024629D01*
X249607935Y-115047728D01*
X249613896Y-115071527D01*
X249617496Y-115095795D01*
X249618700Y-115120299D01*
X249618700Y-116020301D01*
X249617496Y-116044805D01*
X249613896Y-116069073D01*
X249607935Y-116092872D01*
X249599670Y-116115971D01*
X249589180Y-116138150D01*
X249576568Y-116159193D01*
X249561953Y-116178899D01*
X249545477Y-116197077D01*
X249527299Y-116213553D01*
X249507593Y-116228168D01*
X249486550Y-116240780D01*
X249464371Y-116251270D01*
X249441272Y-116259535D01*
X249417473Y-116265496D01*
X249393205Y-116269096D01*
X249368701Y-116270300D01*
X248718699Y-116270300D01*
X248694195Y-116269096D01*
X248669927Y-116265496D01*
X248646128Y-116259535D01*
X248623029Y-116251270D01*
X248600850Y-116240780D01*
X248579807Y-116228168D01*
X248560101Y-116213553D01*
X248541923Y-116197077D01*
X248525447Y-116178899D01*
X248510832Y-116159193D01*
X248498220Y-116138150D01*
X248487730Y-116115971D01*
X248479465Y-116092872D01*
X248473504Y-116069073D01*
X248469904Y-116044805D01*
X248468700Y-116020301D01*
X248468700Y-115120299D01*
X248469904Y-115095795D01*
X248473504Y-115071527D01*
X248479465Y-115047728D01*
X248487730Y-115024629D01*
X248498220Y-115002450D01*
X248510832Y-114981407D01*
X248525447Y-114961701D01*
X248541923Y-114943523D01*
X248560101Y-114927047D01*
X248579807Y-114912432D01*
X248600850Y-114899820D01*
X248623029Y-114889330D01*
X248646128Y-114881065D01*
X248669927Y-114875104D01*
X248694195Y-114871504D01*
X248718699Y-114870300D01*
X249368701Y-114870300D01*
X249393205Y-114871504D01*
X249393205Y-114871504D01*
G37*
D15*
G04 #@! TD*
G04 #@! TO.P,R4,1*
G04 #@! TO.N,Net-(R4-Pad1)*
X249043700Y-115570300D03*
D12*
G04 #@! TO.N,Net-(R3-Pad1)*
G04 #@! TO.C,R5*
G36*
X242751105Y-115316004D02*
X242775373Y-115319604D01*
X242799172Y-115325565D01*
X242822271Y-115333830D01*
X242844450Y-115344320D01*
X242865493Y-115356932D01*
X242885199Y-115371547D01*
X242903377Y-115388023D01*
X242919853Y-115406201D01*
X242934468Y-115425907D01*
X242947080Y-115446950D01*
X242957570Y-115469129D01*
X242965835Y-115492228D01*
X242971796Y-115516027D01*
X242975396Y-115540295D01*
X242976600Y-115564799D01*
X242976600Y-116464801D01*
X242975396Y-116489305D01*
X242971796Y-116513573D01*
X242965835Y-116537372D01*
X242957570Y-116560471D01*
X242947080Y-116582650D01*
X242934468Y-116603693D01*
X242919853Y-116623399D01*
X242903377Y-116641577D01*
X242885199Y-116658053D01*
X242865493Y-116672668D01*
X242844450Y-116685280D01*
X242822271Y-116695770D01*
X242799172Y-116704035D01*
X242775373Y-116709996D01*
X242751105Y-116713596D01*
X242726601Y-116714800D01*
X242076599Y-116714800D01*
X242052095Y-116713596D01*
X242027827Y-116709996D01*
X242004028Y-116704035D01*
X241980929Y-116695770D01*
X241958750Y-116685280D01*
X241937707Y-116672668D01*
X241918001Y-116658053D01*
X241899823Y-116641577D01*
X241883347Y-116623399D01*
X241868732Y-116603693D01*
X241856120Y-116582650D01*
X241845630Y-116560471D01*
X241837365Y-116537372D01*
X241831404Y-116513573D01*
X241827804Y-116489305D01*
X241826600Y-116464801D01*
X241826600Y-115564799D01*
X241827804Y-115540295D01*
X241831404Y-115516027D01*
X241837365Y-115492228D01*
X241845630Y-115469129D01*
X241856120Y-115446950D01*
X241868732Y-115425907D01*
X241883347Y-115406201D01*
X241899823Y-115388023D01*
X241918001Y-115371547D01*
X241937707Y-115356932D01*
X241958750Y-115344320D01*
X241980929Y-115333830D01*
X242004028Y-115325565D01*
X242027827Y-115319604D01*
X242052095Y-115316004D01*
X242076599Y-115314800D01*
X242726601Y-115314800D01*
X242751105Y-115316004D01*
X242751105Y-115316004D01*
G37*
D15*
G04 #@! TD*
G04 #@! TO.P,R5,2*
G04 #@! TO.N,Net-(R3-Pad1)*
X242401600Y-116014800D03*
D12*
G04 #@! TO.N,Net-(R1-Pad2)*
G04 #@! TO.C,R5*
G36*
X240701105Y-115316004D02*
X240725373Y-115319604D01*
X240749172Y-115325565D01*
X240772271Y-115333830D01*
X240794450Y-115344320D01*
X240815493Y-115356932D01*
X240835199Y-115371547D01*
X240853377Y-115388023D01*
X240869853Y-115406201D01*
X240884468Y-115425907D01*
X240897080Y-115446950D01*
X240907570Y-115469129D01*
X240915835Y-115492228D01*
X240921796Y-115516027D01*
X240925396Y-115540295D01*
X240926600Y-115564799D01*
X240926600Y-116464801D01*
X240925396Y-116489305D01*
X240921796Y-116513573D01*
X240915835Y-116537372D01*
X240907570Y-116560471D01*
X240897080Y-116582650D01*
X240884468Y-116603693D01*
X240869853Y-116623399D01*
X240853377Y-116641577D01*
X240835199Y-116658053D01*
X240815493Y-116672668D01*
X240794450Y-116685280D01*
X240772271Y-116695770D01*
X240749172Y-116704035D01*
X240725373Y-116709996D01*
X240701105Y-116713596D01*
X240676601Y-116714800D01*
X240026599Y-116714800D01*
X240002095Y-116713596D01*
X239977827Y-116709996D01*
X239954028Y-116704035D01*
X239930929Y-116695770D01*
X239908750Y-116685280D01*
X239887707Y-116672668D01*
X239868001Y-116658053D01*
X239849823Y-116641577D01*
X239833347Y-116623399D01*
X239818732Y-116603693D01*
X239806120Y-116582650D01*
X239795630Y-116560471D01*
X239787365Y-116537372D01*
X239781404Y-116513573D01*
X239777804Y-116489305D01*
X239776600Y-116464801D01*
X239776600Y-115564799D01*
X239777804Y-115540295D01*
X239781404Y-115516027D01*
X239787365Y-115492228D01*
X239795630Y-115469129D01*
X239806120Y-115446950D01*
X239818732Y-115425907D01*
X239833347Y-115406201D01*
X239849823Y-115388023D01*
X239868001Y-115371547D01*
X239887707Y-115356932D01*
X239908750Y-115344320D01*
X239930929Y-115333830D01*
X239954028Y-115325565D01*
X239977827Y-115319604D01*
X240002095Y-115316004D01*
X240026599Y-115314800D01*
X240676601Y-115314800D01*
X240701105Y-115316004D01*
X240701105Y-115316004D01*
G37*
D15*
G04 #@! TD*
G04 #@! TO.P,R5,1*
G04 #@! TO.N,Net-(R1-Pad2)*
X240351600Y-116014800D03*
D12*
G04 #@! TO.N,Net-(R2-Pad2)*
G04 #@! TO.C,R6*
G36*
X247292405Y-111442504D02*
X247316673Y-111446104D01*
X247340472Y-111452065D01*
X247363571Y-111460330D01*
X247385750Y-111470820D01*
X247406793Y-111483432D01*
X247426499Y-111498047D01*
X247444677Y-111514523D01*
X247461153Y-111532701D01*
X247475768Y-111552407D01*
X247488380Y-111573450D01*
X247498870Y-111595629D01*
X247507135Y-111618728D01*
X247513096Y-111642527D01*
X247516696Y-111666795D01*
X247517900Y-111691299D01*
X247517900Y-112591301D01*
X247516696Y-112615805D01*
X247513096Y-112640073D01*
X247507135Y-112663872D01*
X247498870Y-112686971D01*
X247488380Y-112709150D01*
X247475768Y-112730193D01*
X247461153Y-112749899D01*
X247444677Y-112768077D01*
X247426499Y-112784553D01*
X247406793Y-112799168D01*
X247385750Y-112811780D01*
X247363571Y-112822270D01*
X247340472Y-112830535D01*
X247316673Y-112836496D01*
X247292405Y-112840096D01*
X247267901Y-112841300D01*
X246617899Y-112841300D01*
X246593395Y-112840096D01*
X246569127Y-112836496D01*
X246545328Y-112830535D01*
X246522229Y-112822270D01*
X246500050Y-112811780D01*
X246479007Y-112799168D01*
X246459301Y-112784553D01*
X246441123Y-112768077D01*
X246424647Y-112749899D01*
X246410032Y-112730193D01*
X246397420Y-112709150D01*
X246386930Y-112686971D01*
X246378665Y-112663872D01*
X246372704Y-112640073D01*
X246369104Y-112615805D01*
X246367900Y-112591301D01*
X246367900Y-111691299D01*
X246369104Y-111666795D01*
X246372704Y-111642527D01*
X246378665Y-111618728D01*
X246386930Y-111595629D01*
X246397420Y-111573450D01*
X246410032Y-111552407D01*
X246424647Y-111532701D01*
X246441123Y-111514523D01*
X246459301Y-111498047D01*
X246479007Y-111483432D01*
X246500050Y-111470820D01*
X246522229Y-111460330D01*
X246545328Y-111452065D01*
X246569127Y-111446104D01*
X246593395Y-111442504D01*
X246617899Y-111441300D01*
X247267901Y-111441300D01*
X247292405Y-111442504D01*
X247292405Y-111442504D01*
G37*
D15*
G04 #@! TD*
G04 #@! TO.P,R6,1*
G04 #@! TO.N,Net-(R2-Pad2)*
X246942900Y-112141300D03*
D12*
G04 #@! TO.N,Net-(R4-Pad1)*
G04 #@! TO.C,R6*
G36*
X249342405Y-111442504D02*
X249366673Y-111446104D01*
X249390472Y-111452065D01*
X249413571Y-111460330D01*
X249435750Y-111470820D01*
X249456793Y-111483432D01*
X249476499Y-111498047D01*
X249494677Y-111514523D01*
X249511153Y-111532701D01*
X249525768Y-111552407D01*
X249538380Y-111573450D01*
X249548870Y-111595629D01*
X249557135Y-111618728D01*
X249563096Y-111642527D01*
X249566696Y-111666795D01*
X249567900Y-111691299D01*
X249567900Y-112591301D01*
X249566696Y-112615805D01*
X249563096Y-112640073D01*
X249557135Y-112663872D01*
X249548870Y-112686971D01*
X249538380Y-112709150D01*
X249525768Y-112730193D01*
X249511153Y-112749899D01*
X249494677Y-112768077D01*
X249476499Y-112784553D01*
X249456793Y-112799168D01*
X249435750Y-112811780D01*
X249413571Y-112822270D01*
X249390472Y-112830535D01*
X249366673Y-112836496D01*
X249342405Y-112840096D01*
X249317901Y-112841300D01*
X248667899Y-112841300D01*
X248643395Y-112840096D01*
X248619127Y-112836496D01*
X248595328Y-112830535D01*
X248572229Y-112822270D01*
X248550050Y-112811780D01*
X248529007Y-112799168D01*
X248509301Y-112784553D01*
X248491123Y-112768077D01*
X248474647Y-112749899D01*
X248460032Y-112730193D01*
X248447420Y-112709150D01*
X248436930Y-112686971D01*
X248428665Y-112663872D01*
X248422704Y-112640073D01*
X248419104Y-112615805D01*
X248417900Y-112591301D01*
X248417900Y-111691299D01*
X248419104Y-111666795D01*
X248422704Y-111642527D01*
X248428665Y-111618728D01*
X248436930Y-111595629D01*
X248447420Y-111573450D01*
X248460032Y-111552407D01*
X248474647Y-111532701D01*
X248491123Y-111514523D01*
X248509301Y-111498047D01*
X248529007Y-111483432D01*
X248550050Y-111470820D01*
X248572229Y-111460330D01*
X248595328Y-111452065D01*
X248619127Y-111446104D01*
X248643395Y-111442504D01*
X248667899Y-111441300D01*
X249317901Y-111441300D01*
X249342405Y-111442504D01*
X249342405Y-111442504D01*
G37*
D15*
G04 #@! TD*
G04 #@! TO.P,R6,2*
G04 #@! TO.N,Net-(R4-Pad1)*
X248992900Y-112141300D03*
D12*
G04 #@! TO.N,Net-(C10-Pad1)*
G04 #@! TO.C,R7*
G36*
X214201505Y-132130804D02*
X214225773Y-132134404D01*
X214249572Y-132140365D01*
X214272671Y-132148630D01*
X214294850Y-132159120D01*
X214315893Y-132171732D01*
X214335599Y-132186347D01*
X214353777Y-132202823D01*
X214370253Y-132221001D01*
X214384868Y-132240707D01*
X214397480Y-132261750D01*
X214407970Y-132283929D01*
X214416235Y-132307028D01*
X214422196Y-132330827D01*
X214425796Y-132355095D01*
X214427000Y-132379599D01*
X214427000Y-133279601D01*
X214425796Y-133304105D01*
X214422196Y-133328373D01*
X214416235Y-133352172D01*
X214407970Y-133375271D01*
X214397480Y-133397450D01*
X214384868Y-133418493D01*
X214370253Y-133438199D01*
X214353777Y-133456377D01*
X214335599Y-133472853D01*
X214315893Y-133487468D01*
X214294850Y-133500080D01*
X214272671Y-133510570D01*
X214249572Y-133518835D01*
X214225773Y-133524796D01*
X214201505Y-133528396D01*
X214177001Y-133529600D01*
X213526999Y-133529600D01*
X213502495Y-133528396D01*
X213478227Y-133524796D01*
X213454428Y-133518835D01*
X213431329Y-133510570D01*
X213409150Y-133500080D01*
X213388107Y-133487468D01*
X213368401Y-133472853D01*
X213350223Y-133456377D01*
X213333747Y-133438199D01*
X213319132Y-133418493D01*
X213306520Y-133397450D01*
X213296030Y-133375271D01*
X213287765Y-133352172D01*
X213281804Y-133328373D01*
X213278204Y-133304105D01*
X213277000Y-133279601D01*
X213277000Y-132379599D01*
X213278204Y-132355095D01*
X213281804Y-132330827D01*
X213287765Y-132307028D01*
X213296030Y-132283929D01*
X213306520Y-132261750D01*
X213319132Y-132240707D01*
X213333747Y-132221001D01*
X213350223Y-132202823D01*
X213368401Y-132186347D01*
X213388107Y-132171732D01*
X213409150Y-132159120D01*
X213431329Y-132148630D01*
X213454428Y-132140365D01*
X213478227Y-132134404D01*
X213502495Y-132130804D01*
X213526999Y-132129600D01*
X214177001Y-132129600D01*
X214201505Y-132130804D01*
X214201505Y-132130804D01*
G37*
D15*
G04 #@! TD*
G04 #@! TO.P,R7,2*
G04 #@! TO.N,Net-(C10-Pad1)*
X213852000Y-132829600D03*
D12*
G04 #@! TO.N,Net-(C22-Pad1)*
G04 #@! TO.C,R7*
G36*
X212151505Y-132130804D02*
X212175773Y-132134404D01*
X212199572Y-132140365D01*
X212222671Y-132148630D01*
X212244850Y-132159120D01*
X212265893Y-132171732D01*
X212285599Y-132186347D01*
X212303777Y-132202823D01*
X212320253Y-132221001D01*
X212334868Y-132240707D01*
X212347480Y-132261750D01*
X212357970Y-132283929D01*
X212366235Y-132307028D01*
X212372196Y-132330827D01*
X212375796Y-132355095D01*
X212377000Y-132379599D01*
X212377000Y-133279601D01*
X212375796Y-133304105D01*
X212372196Y-133328373D01*
X212366235Y-133352172D01*
X212357970Y-133375271D01*
X212347480Y-133397450D01*
X212334868Y-133418493D01*
X212320253Y-133438199D01*
X212303777Y-133456377D01*
X212285599Y-133472853D01*
X212265893Y-133487468D01*
X212244850Y-133500080D01*
X212222671Y-133510570D01*
X212199572Y-133518835D01*
X212175773Y-133524796D01*
X212151505Y-133528396D01*
X212127001Y-133529600D01*
X211476999Y-133529600D01*
X211452495Y-133528396D01*
X211428227Y-133524796D01*
X211404428Y-133518835D01*
X211381329Y-133510570D01*
X211359150Y-133500080D01*
X211338107Y-133487468D01*
X211318401Y-133472853D01*
X211300223Y-133456377D01*
X211283747Y-133438199D01*
X211269132Y-133418493D01*
X211256520Y-133397450D01*
X211246030Y-133375271D01*
X211237765Y-133352172D01*
X211231804Y-133328373D01*
X211228204Y-133304105D01*
X211227000Y-133279601D01*
X211227000Y-132379599D01*
X211228204Y-132355095D01*
X211231804Y-132330827D01*
X211237765Y-132307028D01*
X211246030Y-132283929D01*
X211256520Y-132261750D01*
X211269132Y-132240707D01*
X211283747Y-132221001D01*
X211300223Y-132202823D01*
X211318401Y-132186347D01*
X211338107Y-132171732D01*
X211359150Y-132159120D01*
X211381329Y-132148630D01*
X211404428Y-132140365D01*
X211428227Y-132134404D01*
X211452495Y-132130804D01*
X211476999Y-132129600D01*
X212127001Y-132129600D01*
X212151505Y-132130804D01*
X212151505Y-132130804D01*
G37*
D15*
G04 #@! TD*
G04 #@! TO.P,R7,1*
G04 #@! TO.N,Net-(C22-Pad1)*
X211802000Y-132829600D03*
D12*
G04 #@! TO.N,Net-(C10-Pad1)*
G04 #@! TO.C,R8*
G36*
X212964305Y-129044704D02*
X212988573Y-129048304D01*
X213012372Y-129054265D01*
X213035471Y-129062530D01*
X213057650Y-129073020D01*
X213078693Y-129085632D01*
X213098399Y-129100247D01*
X213116577Y-129116723D01*
X213133053Y-129134901D01*
X213147668Y-129154607D01*
X213160280Y-129175650D01*
X213170770Y-129197829D01*
X213179035Y-129220928D01*
X213184996Y-129244727D01*
X213188596Y-129268995D01*
X213189800Y-129293499D01*
X213189800Y-130193501D01*
X213188596Y-130218005D01*
X213184996Y-130242273D01*
X213179035Y-130266072D01*
X213170770Y-130289171D01*
X213160280Y-130311350D01*
X213147668Y-130332393D01*
X213133053Y-130352099D01*
X213116577Y-130370277D01*
X213098399Y-130386753D01*
X213078693Y-130401368D01*
X213057650Y-130413980D01*
X213035471Y-130424470D01*
X213012372Y-130432735D01*
X212988573Y-130438696D01*
X212964305Y-130442296D01*
X212939801Y-130443500D01*
X212289799Y-130443500D01*
X212265295Y-130442296D01*
X212241027Y-130438696D01*
X212217228Y-130432735D01*
X212194129Y-130424470D01*
X212171950Y-130413980D01*
X212150907Y-130401368D01*
X212131201Y-130386753D01*
X212113023Y-130370277D01*
X212096547Y-130352099D01*
X212081932Y-130332393D01*
X212069320Y-130311350D01*
X212058830Y-130289171D01*
X212050565Y-130266072D01*
X212044604Y-130242273D01*
X212041004Y-130218005D01*
X212039800Y-130193501D01*
X212039800Y-129293499D01*
X212041004Y-129268995D01*
X212044604Y-129244727D01*
X212050565Y-129220928D01*
X212058830Y-129197829D01*
X212069320Y-129175650D01*
X212081932Y-129154607D01*
X212096547Y-129134901D01*
X212113023Y-129116723D01*
X212131201Y-129100247D01*
X212150907Y-129085632D01*
X212171950Y-129073020D01*
X212194129Y-129062530D01*
X212217228Y-129054265D01*
X212241027Y-129048304D01*
X212265295Y-129044704D01*
X212289799Y-129043500D01*
X212939801Y-129043500D01*
X212964305Y-129044704D01*
X212964305Y-129044704D01*
G37*
D15*
G04 #@! TD*
G04 #@! TO.P,R8,1*
G04 #@! TO.N,Net-(C10-Pad1)*
X212614800Y-129743500D03*
D12*
G04 #@! TO.N,GND*
G04 #@! TO.C,R8*
G36*
X215014305Y-129044704D02*
X215038573Y-129048304D01*
X215062372Y-129054265D01*
X215085471Y-129062530D01*
X215107650Y-129073020D01*
X215128693Y-129085632D01*
X215148399Y-129100247D01*
X215166577Y-129116723D01*
X215183053Y-129134901D01*
X215197668Y-129154607D01*
X215210280Y-129175650D01*
X215220770Y-129197829D01*
X215229035Y-129220928D01*
X215234996Y-129244727D01*
X215238596Y-129268995D01*
X215239800Y-129293499D01*
X215239800Y-130193501D01*
X215238596Y-130218005D01*
X215234996Y-130242273D01*
X215229035Y-130266072D01*
X215220770Y-130289171D01*
X215210280Y-130311350D01*
X215197668Y-130332393D01*
X215183053Y-130352099D01*
X215166577Y-130370277D01*
X215148399Y-130386753D01*
X215128693Y-130401368D01*
X215107650Y-130413980D01*
X215085471Y-130424470D01*
X215062372Y-130432735D01*
X215038573Y-130438696D01*
X215014305Y-130442296D01*
X214989801Y-130443500D01*
X214339799Y-130443500D01*
X214315295Y-130442296D01*
X214291027Y-130438696D01*
X214267228Y-130432735D01*
X214244129Y-130424470D01*
X214221950Y-130413980D01*
X214200907Y-130401368D01*
X214181201Y-130386753D01*
X214163023Y-130370277D01*
X214146547Y-130352099D01*
X214131932Y-130332393D01*
X214119320Y-130311350D01*
X214108830Y-130289171D01*
X214100565Y-130266072D01*
X214094604Y-130242273D01*
X214091004Y-130218005D01*
X214089800Y-130193501D01*
X214089800Y-129293499D01*
X214091004Y-129268995D01*
X214094604Y-129244727D01*
X214100565Y-129220928D01*
X214108830Y-129197829D01*
X214119320Y-129175650D01*
X214131932Y-129154607D01*
X214146547Y-129134901D01*
X214163023Y-129116723D01*
X214181201Y-129100247D01*
X214200907Y-129085632D01*
X214221950Y-129073020D01*
X214244129Y-129062530D01*
X214267228Y-129054265D01*
X214291027Y-129048304D01*
X214315295Y-129044704D01*
X214339799Y-129043500D01*
X214989801Y-129043500D01*
X215014305Y-129044704D01*
X215014305Y-129044704D01*
G37*
D15*
G04 #@! TD*
G04 #@! TO.P,R8,2*
G04 #@! TO.N,GND*
X214664800Y-129743500D03*
D12*
G04 #@! TO.N,Net-(R10-Pad2)*
G04 #@! TO.C,R9*
G36*
X242457405Y-125844304D02*
X242481673Y-125847904D01*
X242505472Y-125853865D01*
X242528571Y-125862130D01*
X242550750Y-125872620D01*
X242571793Y-125885232D01*
X242591499Y-125899847D01*
X242609677Y-125916323D01*
X242626153Y-125934501D01*
X242640768Y-125954207D01*
X242653380Y-125975250D01*
X242663870Y-125997429D01*
X242672135Y-126020528D01*
X242678096Y-126044327D01*
X242681696Y-126068595D01*
X242682900Y-126093099D01*
X242682900Y-126993101D01*
X242681696Y-127017605D01*
X242678096Y-127041873D01*
X242672135Y-127065672D01*
X242663870Y-127088771D01*
X242653380Y-127110950D01*
X242640768Y-127131993D01*
X242626153Y-127151699D01*
X242609677Y-127169877D01*
X242591499Y-127186353D01*
X242571793Y-127200968D01*
X242550750Y-127213580D01*
X242528571Y-127224070D01*
X242505472Y-127232335D01*
X242481673Y-127238296D01*
X242457405Y-127241896D01*
X242432901Y-127243100D01*
X241782899Y-127243100D01*
X241758395Y-127241896D01*
X241734127Y-127238296D01*
X241710328Y-127232335D01*
X241687229Y-127224070D01*
X241665050Y-127213580D01*
X241644007Y-127200968D01*
X241624301Y-127186353D01*
X241606123Y-127169877D01*
X241589647Y-127151699D01*
X241575032Y-127131993D01*
X241562420Y-127110950D01*
X241551930Y-127088771D01*
X241543665Y-127065672D01*
X241537704Y-127041873D01*
X241534104Y-127017605D01*
X241532900Y-126993101D01*
X241532900Y-126093099D01*
X241534104Y-126068595D01*
X241537704Y-126044327D01*
X241543665Y-126020528D01*
X241551930Y-125997429D01*
X241562420Y-125975250D01*
X241575032Y-125954207D01*
X241589647Y-125934501D01*
X241606123Y-125916323D01*
X241624301Y-125899847D01*
X241644007Y-125885232D01*
X241665050Y-125872620D01*
X241687229Y-125862130D01*
X241710328Y-125853865D01*
X241734127Y-125847904D01*
X241758395Y-125844304D01*
X241782899Y-125843100D01*
X242432901Y-125843100D01*
X242457405Y-125844304D01*
X242457405Y-125844304D01*
G37*
D15*
G04 #@! TD*
G04 #@! TO.P,R9,1*
G04 #@! TO.N,Net-(R10-Pad2)*
X242107900Y-126543100D03*
D12*
G04 #@! TO.N,Net-(C9-Pad1)*
G04 #@! TO.C,R9*
G36*
X244507405Y-125844304D02*
X244531673Y-125847904D01*
X244555472Y-125853865D01*
X244578571Y-125862130D01*
X244600750Y-125872620D01*
X244621793Y-125885232D01*
X244641499Y-125899847D01*
X244659677Y-125916323D01*
X244676153Y-125934501D01*
X244690768Y-125954207D01*
X244703380Y-125975250D01*
X244713870Y-125997429D01*
X244722135Y-126020528D01*
X244728096Y-126044327D01*
X244731696Y-126068595D01*
X244732900Y-126093099D01*
X244732900Y-126993101D01*
X244731696Y-127017605D01*
X244728096Y-127041873D01*
X244722135Y-127065672D01*
X244713870Y-127088771D01*
X244703380Y-127110950D01*
X244690768Y-127131993D01*
X244676153Y-127151699D01*
X244659677Y-127169877D01*
X244641499Y-127186353D01*
X244621793Y-127200968D01*
X244600750Y-127213580D01*
X244578571Y-127224070D01*
X244555472Y-127232335D01*
X244531673Y-127238296D01*
X244507405Y-127241896D01*
X244482901Y-127243100D01*
X243832899Y-127243100D01*
X243808395Y-127241896D01*
X243784127Y-127238296D01*
X243760328Y-127232335D01*
X243737229Y-127224070D01*
X243715050Y-127213580D01*
X243694007Y-127200968D01*
X243674301Y-127186353D01*
X243656123Y-127169877D01*
X243639647Y-127151699D01*
X243625032Y-127131993D01*
X243612420Y-127110950D01*
X243601930Y-127088771D01*
X243593665Y-127065672D01*
X243587704Y-127041873D01*
X243584104Y-127017605D01*
X243582900Y-126993101D01*
X243582900Y-126093099D01*
X243584104Y-126068595D01*
X243587704Y-126044327D01*
X243593665Y-126020528D01*
X243601930Y-125997429D01*
X243612420Y-125975250D01*
X243625032Y-125954207D01*
X243639647Y-125934501D01*
X243656123Y-125916323D01*
X243674301Y-125899847D01*
X243694007Y-125885232D01*
X243715050Y-125872620D01*
X243737229Y-125862130D01*
X243760328Y-125853865D01*
X243784127Y-125847904D01*
X243808395Y-125844304D01*
X243832899Y-125843100D01*
X244482901Y-125843100D01*
X244507405Y-125844304D01*
X244507405Y-125844304D01*
G37*
D15*
G04 #@! TD*
G04 #@! TO.P,R9,2*
G04 #@! TO.N,Net-(C9-Pad1)*
X244157900Y-126543100D03*
D12*
G04 #@! TO.N,Net-(R10-Pad2)*
G04 #@! TO.C,R10*
G36*
X222572106Y-130810405D02*
X222596374Y-130814005D01*
X222620173Y-130819966D01*
X222643272Y-130828231D01*
X222665451Y-130838721D01*
X222686494Y-130851333D01*
X222706200Y-130865948D01*
X222724378Y-130882424D01*
X222740854Y-130900602D01*
X222755469Y-130920308D01*
X222768081Y-130941351D01*
X222778571Y-130963530D01*
X222786836Y-130986629D01*
X222792797Y-131010428D01*
X222796397Y-131034696D01*
X222797601Y-131059200D01*
X222797601Y-131959202D01*
X222796397Y-131983706D01*
X222792797Y-132007974D01*
X222786836Y-132031773D01*
X222778571Y-132054872D01*
X222768081Y-132077051D01*
X222755469Y-132098094D01*
X222740854Y-132117800D01*
X222724378Y-132135978D01*
X222706200Y-132152454D01*
X222686494Y-132167069D01*
X222665451Y-132179681D01*
X222643272Y-132190171D01*
X222620173Y-132198436D01*
X222596374Y-132204397D01*
X222572106Y-132207997D01*
X222547602Y-132209201D01*
X221897600Y-132209201D01*
X221873096Y-132207997D01*
X221848828Y-132204397D01*
X221825029Y-132198436D01*
X221801930Y-132190171D01*
X221779751Y-132179681D01*
X221758708Y-132167069D01*
X221739002Y-132152454D01*
X221720824Y-132135978D01*
X221704348Y-132117800D01*
X221689733Y-132098094D01*
X221677121Y-132077051D01*
X221666631Y-132054872D01*
X221658366Y-132031773D01*
X221652405Y-132007974D01*
X221648805Y-131983706D01*
X221647601Y-131959202D01*
X221647601Y-131059200D01*
X221648805Y-131034696D01*
X221652405Y-131010428D01*
X221658366Y-130986629D01*
X221666631Y-130963530D01*
X221677121Y-130941351D01*
X221689733Y-130920308D01*
X221704348Y-130900602D01*
X221720824Y-130882424D01*
X221739002Y-130865948D01*
X221758708Y-130851333D01*
X221779751Y-130838721D01*
X221801930Y-130828231D01*
X221825029Y-130819966D01*
X221848828Y-130814005D01*
X221873096Y-130810405D01*
X221897600Y-130809201D01*
X222547602Y-130809201D01*
X222572106Y-130810405D01*
X222572106Y-130810405D01*
G37*
D15*
G04 #@! TD*
G04 #@! TO.P,R10,2*
G04 #@! TO.N,Net-(R10-Pad2)*
X222222601Y-131509201D03*
D12*
G04 #@! TO.N,Net-(C11-Pad1)*
G04 #@! TO.C,R10*
G36*
X220522106Y-130810405D02*
X220546374Y-130814005D01*
X220570173Y-130819966D01*
X220593272Y-130828231D01*
X220615451Y-130838721D01*
X220636494Y-130851333D01*
X220656200Y-130865948D01*
X220674378Y-130882424D01*
X220690854Y-130900602D01*
X220705469Y-130920308D01*
X220718081Y-130941351D01*
X220728571Y-130963530D01*
X220736836Y-130986629D01*
X220742797Y-131010428D01*
X220746397Y-131034696D01*
X220747601Y-131059200D01*
X220747601Y-131959202D01*
X220746397Y-131983706D01*
X220742797Y-132007974D01*
X220736836Y-132031773D01*
X220728571Y-132054872D01*
X220718081Y-132077051D01*
X220705469Y-132098094D01*
X220690854Y-132117800D01*
X220674378Y-132135978D01*
X220656200Y-132152454D01*
X220636494Y-132167069D01*
X220615451Y-132179681D01*
X220593272Y-132190171D01*
X220570173Y-132198436D01*
X220546374Y-132204397D01*
X220522106Y-132207997D01*
X220497602Y-132209201D01*
X219847600Y-132209201D01*
X219823096Y-132207997D01*
X219798828Y-132204397D01*
X219775029Y-132198436D01*
X219751930Y-132190171D01*
X219729751Y-132179681D01*
X219708708Y-132167069D01*
X219689002Y-132152454D01*
X219670824Y-132135978D01*
X219654348Y-132117800D01*
X219639733Y-132098094D01*
X219627121Y-132077051D01*
X219616631Y-132054872D01*
X219608366Y-132031773D01*
X219602405Y-132007974D01*
X219598805Y-131983706D01*
X219597601Y-131959202D01*
X219597601Y-131059200D01*
X219598805Y-131034696D01*
X219602405Y-131010428D01*
X219608366Y-130986629D01*
X219616631Y-130963530D01*
X219627121Y-130941351D01*
X219639733Y-130920308D01*
X219654348Y-130900602D01*
X219670824Y-130882424D01*
X219689002Y-130865948D01*
X219708708Y-130851333D01*
X219729751Y-130838721D01*
X219751930Y-130828231D01*
X219775029Y-130819966D01*
X219798828Y-130814005D01*
X219823096Y-130810405D01*
X219847600Y-130809201D01*
X220497602Y-130809201D01*
X220522106Y-130810405D01*
X220522106Y-130810405D01*
G37*
D15*
G04 #@! TD*
G04 #@! TO.P,R10,1*
G04 #@! TO.N,Net-(C11-Pad1)*
X220172601Y-131509201D03*
D12*
G04 #@! TO.N,Net-(C13-Pad1)*
G04 #@! TO.C,R11*
G36*
X223812106Y-124280405D02*
X223836374Y-124284005D01*
X223860173Y-124289966D01*
X223883272Y-124298231D01*
X223905451Y-124308721D01*
X223926494Y-124321333D01*
X223946200Y-124335948D01*
X223964378Y-124352424D01*
X223980854Y-124370602D01*
X223995469Y-124390308D01*
X224008081Y-124411351D01*
X224018571Y-124433530D01*
X224026836Y-124456629D01*
X224032797Y-124480428D01*
X224036397Y-124504696D01*
X224037601Y-124529200D01*
X224037601Y-125429202D01*
X224036397Y-125453706D01*
X224032797Y-125477974D01*
X224026836Y-125501773D01*
X224018571Y-125524872D01*
X224008081Y-125547051D01*
X223995469Y-125568094D01*
X223980854Y-125587800D01*
X223964378Y-125605978D01*
X223946200Y-125622454D01*
X223926494Y-125637069D01*
X223905451Y-125649681D01*
X223883272Y-125660171D01*
X223860173Y-125668436D01*
X223836374Y-125674397D01*
X223812106Y-125677997D01*
X223787602Y-125679201D01*
X223137600Y-125679201D01*
X223113096Y-125677997D01*
X223088828Y-125674397D01*
X223065029Y-125668436D01*
X223041930Y-125660171D01*
X223019751Y-125649681D01*
X222998708Y-125637069D01*
X222979002Y-125622454D01*
X222960824Y-125605978D01*
X222944348Y-125587800D01*
X222929733Y-125568094D01*
X222917121Y-125547051D01*
X222906631Y-125524872D01*
X222898366Y-125501773D01*
X222892405Y-125477974D01*
X222888805Y-125453706D01*
X222887601Y-125429202D01*
X222887601Y-124529200D01*
X222888805Y-124504696D01*
X222892405Y-124480428D01*
X222898366Y-124456629D01*
X222906631Y-124433530D01*
X222917121Y-124411351D01*
X222929733Y-124390308D01*
X222944348Y-124370602D01*
X222960824Y-124352424D01*
X222979002Y-124335948D01*
X222998708Y-124321333D01*
X223019751Y-124308721D01*
X223041930Y-124298231D01*
X223065029Y-124289966D01*
X223088828Y-124284005D01*
X223113096Y-124280405D01*
X223137600Y-124279201D01*
X223787602Y-124279201D01*
X223812106Y-124280405D01*
X223812106Y-124280405D01*
G37*
D15*
G04 #@! TD*
G04 #@! TO.P,R11,2*
G04 #@! TO.N,Net-(C13-Pad1)*
X223462601Y-124979201D03*
D12*
G04 #@! TO.N,/ADC_SPI/V4.5A*
G04 #@! TO.C,R11*
G36*
X221762106Y-124280405D02*
X221786374Y-124284005D01*
X221810173Y-124289966D01*
X221833272Y-124298231D01*
X221855451Y-124308721D01*
X221876494Y-124321333D01*
X221896200Y-124335948D01*
X221914378Y-124352424D01*
X221930854Y-124370602D01*
X221945469Y-124390308D01*
X221958081Y-124411351D01*
X221968571Y-124433530D01*
X221976836Y-124456629D01*
X221982797Y-124480428D01*
X221986397Y-124504696D01*
X221987601Y-124529200D01*
X221987601Y-125429202D01*
X221986397Y-125453706D01*
X221982797Y-125477974D01*
X221976836Y-125501773D01*
X221968571Y-125524872D01*
X221958081Y-125547051D01*
X221945469Y-125568094D01*
X221930854Y-125587800D01*
X221914378Y-125605978D01*
X221896200Y-125622454D01*
X221876494Y-125637069D01*
X221855451Y-125649681D01*
X221833272Y-125660171D01*
X221810173Y-125668436D01*
X221786374Y-125674397D01*
X221762106Y-125677997D01*
X221737602Y-125679201D01*
X221087600Y-125679201D01*
X221063096Y-125677997D01*
X221038828Y-125674397D01*
X221015029Y-125668436D01*
X220991930Y-125660171D01*
X220969751Y-125649681D01*
X220948708Y-125637069D01*
X220929002Y-125622454D01*
X220910824Y-125605978D01*
X220894348Y-125587800D01*
X220879733Y-125568094D01*
X220867121Y-125547051D01*
X220856631Y-125524872D01*
X220848366Y-125501773D01*
X220842405Y-125477974D01*
X220838805Y-125453706D01*
X220837601Y-125429202D01*
X220837601Y-124529200D01*
X220838805Y-124504696D01*
X220842405Y-124480428D01*
X220848366Y-124456629D01*
X220856631Y-124433530D01*
X220867121Y-124411351D01*
X220879733Y-124390308D01*
X220894348Y-124370602D01*
X220910824Y-124352424D01*
X220929002Y-124335948D01*
X220948708Y-124321333D01*
X220969751Y-124308721D01*
X220991930Y-124298231D01*
X221015029Y-124289966D01*
X221038828Y-124284005D01*
X221063096Y-124280405D01*
X221087600Y-124279201D01*
X221737602Y-124279201D01*
X221762106Y-124280405D01*
X221762106Y-124280405D01*
G37*
D15*
G04 #@! TD*
G04 #@! TO.P,R11,1*
G04 #@! TO.N,/ADC_SPI/V4.5A*
X221412601Y-124979201D03*
D12*
G04 #@! TO.N,Net-(C13-Pad1)*
G04 #@! TO.C,R12*
G36*
X220522106Y-128860405D02*
X220546374Y-128864005D01*
X220570173Y-128869966D01*
X220593272Y-128878231D01*
X220615451Y-128888721D01*
X220636494Y-128901333D01*
X220656200Y-128915948D01*
X220674378Y-128932424D01*
X220690854Y-128950602D01*
X220705469Y-128970308D01*
X220718081Y-128991351D01*
X220728571Y-129013530D01*
X220736836Y-129036629D01*
X220742797Y-129060428D01*
X220746397Y-129084696D01*
X220747601Y-129109200D01*
X220747601Y-130009202D01*
X220746397Y-130033706D01*
X220742797Y-130057974D01*
X220736836Y-130081773D01*
X220728571Y-130104872D01*
X220718081Y-130127051D01*
X220705469Y-130148094D01*
X220690854Y-130167800D01*
X220674378Y-130185978D01*
X220656200Y-130202454D01*
X220636494Y-130217069D01*
X220615451Y-130229681D01*
X220593272Y-130240171D01*
X220570173Y-130248436D01*
X220546374Y-130254397D01*
X220522106Y-130257997D01*
X220497602Y-130259201D01*
X219847600Y-130259201D01*
X219823096Y-130257997D01*
X219798828Y-130254397D01*
X219775029Y-130248436D01*
X219751930Y-130240171D01*
X219729751Y-130229681D01*
X219708708Y-130217069D01*
X219689002Y-130202454D01*
X219670824Y-130185978D01*
X219654348Y-130167800D01*
X219639733Y-130148094D01*
X219627121Y-130127051D01*
X219616631Y-130104872D01*
X219608366Y-130081773D01*
X219602405Y-130057974D01*
X219598805Y-130033706D01*
X219597601Y-130009202D01*
X219597601Y-129109200D01*
X219598805Y-129084696D01*
X219602405Y-129060428D01*
X219608366Y-129036629D01*
X219616631Y-129013530D01*
X219627121Y-128991351D01*
X219639733Y-128970308D01*
X219654348Y-128950602D01*
X219670824Y-128932424D01*
X219689002Y-128915948D01*
X219708708Y-128901333D01*
X219729751Y-128888721D01*
X219751930Y-128878231D01*
X219775029Y-128869966D01*
X219798828Y-128864005D01*
X219823096Y-128860405D01*
X219847600Y-128859201D01*
X220497602Y-128859201D01*
X220522106Y-128860405D01*
X220522106Y-128860405D01*
G37*
D15*
G04 #@! TD*
G04 #@! TO.P,R12,1*
G04 #@! TO.N,Net-(C13-Pad1)*
X220172601Y-129559201D03*
D12*
G04 #@! TO.N,GND*
G04 #@! TO.C,R12*
G36*
X222572106Y-128860405D02*
X222596374Y-128864005D01*
X222620173Y-128869966D01*
X222643272Y-128878231D01*
X222665451Y-128888721D01*
X222686494Y-128901333D01*
X222706200Y-128915948D01*
X222724378Y-128932424D01*
X222740854Y-128950602D01*
X222755469Y-128970308D01*
X222768081Y-128991351D01*
X222778571Y-129013530D01*
X222786836Y-129036629D01*
X222792797Y-129060428D01*
X222796397Y-129084696D01*
X222797601Y-129109200D01*
X222797601Y-130009202D01*
X222796397Y-130033706D01*
X222792797Y-130057974D01*
X222786836Y-130081773D01*
X222778571Y-130104872D01*
X222768081Y-130127051D01*
X222755469Y-130148094D01*
X222740854Y-130167800D01*
X222724378Y-130185978D01*
X222706200Y-130202454D01*
X222686494Y-130217069D01*
X222665451Y-130229681D01*
X222643272Y-130240171D01*
X222620173Y-130248436D01*
X222596374Y-130254397D01*
X222572106Y-130257997D01*
X222547602Y-130259201D01*
X221897600Y-130259201D01*
X221873096Y-130257997D01*
X221848828Y-130254397D01*
X221825029Y-130248436D01*
X221801930Y-130240171D01*
X221779751Y-130229681D01*
X221758708Y-130217069D01*
X221739002Y-130202454D01*
X221720824Y-130185978D01*
X221704348Y-130167800D01*
X221689733Y-130148094D01*
X221677121Y-130127051D01*
X221666631Y-130104872D01*
X221658366Y-130081773D01*
X221652405Y-130057974D01*
X221648805Y-130033706D01*
X221647601Y-130009202D01*
X221647601Y-129109200D01*
X221648805Y-129084696D01*
X221652405Y-129060428D01*
X221658366Y-129036629D01*
X221666631Y-129013530D01*
X221677121Y-128991351D01*
X221689733Y-128970308D01*
X221704348Y-128950602D01*
X221720824Y-128932424D01*
X221739002Y-128915948D01*
X221758708Y-128901333D01*
X221779751Y-128888721D01*
X221801930Y-128878231D01*
X221825029Y-128869966D01*
X221848828Y-128864005D01*
X221873096Y-128860405D01*
X221897600Y-128859201D01*
X222547602Y-128859201D01*
X222572106Y-128860405D01*
X222572106Y-128860405D01*
G37*
D15*
G04 #@! TD*
G04 #@! TO.P,R12,2*
G04 #@! TO.N,GND*
X222222601Y-129559201D03*
D12*
G04 #@! TO.N,Net-(R13-Pad1)*
G04 #@! TO.C,R13*
G36*
X215472106Y-132760405D02*
X215496374Y-132764005D01*
X215520173Y-132769966D01*
X215543272Y-132778231D01*
X215565451Y-132788721D01*
X215586494Y-132801333D01*
X215606200Y-132815948D01*
X215624378Y-132832424D01*
X215640854Y-132850602D01*
X215655469Y-132870308D01*
X215668081Y-132891351D01*
X215678571Y-132913530D01*
X215686836Y-132936629D01*
X215692797Y-132960428D01*
X215696397Y-132984696D01*
X215697601Y-133009200D01*
X215697601Y-133909202D01*
X215696397Y-133933706D01*
X215692797Y-133957974D01*
X215686836Y-133981773D01*
X215678571Y-134004872D01*
X215668081Y-134027051D01*
X215655469Y-134048094D01*
X215640854Y-134067800D01*
X215624378Y-134085978D01*
X215606200Y-134102454D01*
X215586494Y-134117069D01*
X215565451Y-134129681D01*
X215543272Y-134140171D01*
X215520173Y-134148436D01*
X215496374Y-134154397D01*
X215472106Y-134157997D01*
X215447602Y-134159201D01*
X214797600Y-134159201D01*
X214773096Y-134157997D01*
X214748828Y-134154397D01*
X214725029Y-134148436D01*
X214701930Y-134140171D01*
X214679751Y-134129681D01*
X214658708Y-134117069D01*
X214639002Y-134102454D01*
X214620824Y-134085978D01*
X214604348Y-134067800D01*
X214589733Y-134048094D01*
X214577121Y-134027051D01*
X214566631Y-134004872D01*
X214558366Y-133981773D01*
X214552405Y-133957974D01*
X214548805Y-133933706D01*
X214547601Y-133909202D01*
X214547601Y-133009200D01*
X214548805Y-132984696D01*
X214552405Y-132960428D01*
X214558366Y-132936629D01*
X214566631Y-132913530D01*
X214577121Y-132891351D01*
X214589733Y-132870308D01*
X214604348Y-132850602D01*
X214620824Y-132832424D01*
X214639002Y-132815948D01*
X214658708Y-132801333D01*
X214679751Y-132788721D01*
X214701930Y-132778231D01*
X214725029Y-132769966D01*
X214748828Y-132764005D01*
X214773096Y-132760405D01*
X214797600Y-132759201D01*
X215447602Y-132759201D01*
X215472106Y-132760405D01*
X215472106Y-132760405D01*
G37*
D15*
G04 #@! TD*
G04 #@! TO.P,R13,1*
G04 #@! TO.N,Net-(R13-Pad1)*
X215122601Y-133459201D03*
D12*
G04 #@! TO.N,Net-(C12-Pad1)*
G04 #@! TO.C,R13*
G36*
X217522106Y-132760405D02*
X217546374Y-132764005D01*
X217570173Y-132769966D01*
X217593272Y-132778231D01*
X217615451Y-132788721D01*
X217636494Y-132801333D01*
X217656200Y-132815948D01*
X217674378Y-132832424D01*
X217690854Y-132850602D01*
X217705469Y-132870308D01*
X217718081Y-132891351D01*
X217728571Y-132913530D01*
X217736836Y-132936629D01*
X217742797Y-132960428D01*
X217746397Y-132984696D01*
X217747601Y-133009200D01*
X217747601Y-133909202D01*
X217746397Y-133933706D01*
X217742797Y-133957974D01*
X217736836Y-133981773D01*
X217728571Y-134004872D01*
X217718081Y-134027051D01*
X217705469Y-134048094D01*
X217690854Y-134067800D01*
X217674378Y-134085978D01*
X217656200Y-134102454D01*
X217636494Y-134117069D01*
X217615451Y-134129681D01*
X217593272Y-134140171D01*
X217570173Y-134148436D01*
X217546374Y-134154397D01*
X217522106Y-134157997D01*
X217497602Y-134159201D01*
X216847600Y-134159201D01*
X216823096Y-134157997D01*
X216798828Y-134154397D01*
X216775029Y-134148436D01*
X216751930Y-134140171D01*
X216729751Y-134129681D01*
X216708708Y-134117069D01*
X216689002Y-134102454D01*
X216670824Y-134085978D01*
X216654348Y-134067800D01*
X216639733Y-134048094D01*
X216627121Y-134027051D01*
X216616631Y-134004872D01*
X216608366Y-133981773D01*
X216602405Y-133957974D01*
X216598805Y-133933706D01*
X216597601Y-133909202D01*
X216597601Y-133009200D01*
X216598805Y-132984696D01*
X216602405Y-132960428D01*
X216608366Y-132936629D01*
X216616631Y-132913530D01*
X216627121Y-132891351D01*
X216639733Y-132870308D01*
X216654348Y-132850602D01*
X216670824Y-132832424D01*
X216689002Y-132815948D01*
X216708708Y-132801333D01*
X216729751Y-132788721D01*
X216751930Y-132778231D01*
X216775029Y-132769966D01*
X216798828Y-132764005D01*
X216823096Y-132760405D01*
X216847600Y-132759201D01*
X217497602Y-132759201D01*
X217522106Y-132760405D01*
X217522106Y-132760405D01*
G37*
D15*
G04 #@! TD*
G04 #@! TO.P,R13,2*
G04 #@! TO.N,Net-(C12-Pad1)*
X217172601Y-133459201D03*
D12*
G04 #@! TO.N,Net-(R13-Pad1)*
G04 #@! TO.C,R14*
G36*
X228153505Y-117881404D02*
X228177773Y-117885004D01*
X228201572Y-117890965D01*
X228224671Y-117899230D01*
X228246850Y-117909720D01*
X228267893Y-117922332D01*
X228287599Y-117936947D01*
X228305777Y-117953423D01*
X228322253Y-117971601D01*
X228336868Y-117991307D01*
X228349480Y-118012350D01*
X228359970Y-118034529D01*
X228368235Y-118057628D01*
X228374196Y-118081427D01*
X228377796Y-118105695D01*
X228379000Y-118130199D01*
X228379000Y-119030201D01*
X228377796Y-119054705D01*
X228374196Y-119078973D01*
X228368235Y-119102772D01*
X228359970Y-119125871D01*
X228349480Y-119148050D01*
X228336868Y-119169093D01*
X228322253Y-119188799D01*
X228305777Y-119206977D01*
X228287599Y-119223453D01*
X228267893Y-119238068D01*
X228246850Y-119250680D01*
X228224671Y-119261170D01*
X228201572Y-119269435D01*
X228177773Y-119275396D01*
X228153505Y-119278996D01*
X228129001Y-119280200D01*
X227478999Y-119280200D01*
X227454495Y-119278996D01*
X227430227Y-119275396D01*
X227406428Y-119269435D01*
X227383329Y-119261170D01*
X227361150Y-119250680D01*
X227340107Y-119238068D01*
X227320401Y-119223453D01*
X227302223Y-119206977D01*
X227285747Y-119188799D01*
X227271132Y-119169093D01*
X227258520Y-119148050D01*
X227248030Y-119125871D01*
X227239765Y-119102772D01*
X227233804Y-119078973D01*
X227230204Y-119054705D01*
X227229000Y-119030201D01*
X227229000Y-118130199D01*
X227230204Y-118105695D01*
X227233804Y-118081427D01*
X227239765Y-118057628D01*
X227248030Y-118034529D01*
X227258520Y-118012350D01*
X227271132Y-117991307D01*
X227285747Y-117971601D01*
X227302223Y-117953423D01*
X227320401Y-117936947D01*
X227340107Y-117922332D01*
X227361150Y-117909720D01*
X227383329Y-117899230D01*
X227406428Y-117890965D01*
X227430227Y-117885004D01*
X227454495Y-117881404D01*
X227478999Y-117880200D01*
X228129001Y-117880200D01*
X228153505Y-117881404D01*
X228153505Y-117881404D01*
G37*
D15*
G04 #@! TD*
G04 #@! TO.P,R14,2*
G04 #@! TO.N,Net-(R13-Pad1)*
X227804000Y-118580200D03*
D12*
G04 #@! TO.N,/ADC_SPI/Sin*
G04 #@! TO.C,R14*
G36*
X230203505Y-117881404D02*
X230227773Y-117885004D01*
X230251572Y-117890965D01*
X230274671Y-117899230D01*
X230296850Y-117909720D01*
X230317893Y-117922332D01*
X230337599Y-117936947D01*
X230355777Y-117953423D01*
X230372253Y-117971601D01*
X230386868Y-117991307D01*
X230399480Y-118012350D01*
X230409970Y-118034529D01*
X230418235Y-118057628D01*
X230424196Y-118081427D01*
X230427796Y-118105695D01*
X230429000Y-118130199D01*
X230429000Y-119030201D01*
X230427796Y-119054705D01*
X230424196Y-119078973D01*
X230418235Y-119102772D01*
X230409970Y-119125871D01*
X230399480Y-119148050D01*
X230386868Y-119169093D01*
X230372253Y-119188799D01*
X230355777Y-119206977D01*
X230337599Y-119223453D01*
X230317893Y-119238068D01*
X230296850Y-119250680D01*
X230274671Y-119261170D01*
X230251572Y-119269435D01*
X230227773Y-119275396D01*
X230203505Y-119278996D01*
X230179001Y-119280200D01*
X229528999Y-119280200D01*
X229504495Y-119278996D01*
X229480227Y-119275396D01*
X229456428Y-119269435D01*
X229433329Y-119261170D01*
X229411150Y-119250680D01*
X229390107Y-119238068D01*
X229370401Y-119223453D01*
X229352223Y-119206977D01*
X229335747Y-119188799D01*
X229321132Y-119169093D01*
X229308520Y-119148050D01*
X229298030Y-119125871D01*
X229289765Y-119102772D01*
X229283804Y-119078973D01*
X229280204Y-119054705D01*
X229279000Y-119030201D01*
X229279000Y-118130199D01*
X229280204Y-118105695D01*
X229283804Y-118081427D01*
X229289765Y-118057628D01*
X229298030Y-118034529D01*
X229308520Y-118012350D01*
X229321132Y-117991307D01*
X229335747Y-117971601D01*
X229352223Y-117953423D01*
X229370401Y-117936947D01*
X229390107Y-117922332D01*
X229411150Y-117909720D01*
X229433329Y-117899230D01*
X229456428Y-117890965D01*
X229480227Y-117885004D01*
X229504495Y-117881404D01*
X229528999Y-117880200D01*
X230179001Y-117880200D01*
X230203505Y-117881404D01*
X230203505Y-117881404D01*
G37*
D15*
G04 #@! TD*
G04 #@! TO.P,R14,1*
G04 #@! TO.N,/ADC_SPI/Sin*
X229854000Y-118580200D03*
D18*
G04 #@! TO.P,TP1,1*
G04 #@! TO.N,GND*
X259791600Y-136004600D03*
G04 #@! TD*
D19*
G04 #@! TO.P,TP2,1*
G04 #@! TO.N,Net-(C14-Pad1)*
X208115300Y-139624100D03*
G04 #@! TD*
G04 #@! TO.P,TP3,1*
G04 #@! TO.N,Net-(C12-Pad2)*
X225837601Y-127479201D03*
G04 #@! TD*
G04 #@! TO.P,TP4,1*
G04 #@! TO.N,/ADC_SPI/Sin*
X235153600Y-122517200D03*
G04 #@! TD*
G04 #@! TO.P,TP5,1*
G04 #@! TO.N,Net-(C3-Pad1)*
X233870900Y-103518000D03*
G04 #@! TD*
G04 #@! TO.P,TP6,1*
G04 #@! TO.N,Net-(C4-Pad1)*
X248069500Y-108382100D03*
G04 #@! TD*
D20*
G04 #@! TO.P,U1,1*
G04 #@! TO.N,Net-(C1-Pad1)*
X205745300Y-109680000D03*
G04 #@! TO.P,U1,2*
G04 #@! TO.N,GND*
X205745300Y-110630000D03*
G04 #@! TO.P,U1,3*
G04 #@! TO.N,Net-(C1-Pad1)*
X205745300Y-111580000D03*
G04 #@! TO.P,U1,4*
G04 #@! TO.N,Net-(U1-Pad4)*
X207945300Y-111580000D03*
G04 #@! TO.P,U1,5*
G04 #@! TO.N,/ADC_SPI/4.5Volt*
X207945300Y-109680000D03*
G04 #@! TD*
D21*
G04 #@! TO.P,U2,1*
G04 #@! TO.N,Net-(C2-Pad1)*
X238516200Y-103089500D03*
G04 #@! TO.P,U2,2*
G04 #@! TO.N,Net-(C8-Pad1)*
X238516200Y-103589500D03*
G04 #@! TO.P,U2,3*
G04 #@! TO.N,Net-(C3-Pad1)*
X238516200Y-104089500D03*
G04 #@! TO.P,U2,4*
G04 #@! TO.N,Net-(C4-Pad1)*
X238516200Y-104589500D03*
G04 #@! TO.P,U2,5*
G04 #@! TO.N,GND*
X238516200Y-105089500D03*
G04 #@! TO.P,U2,6*
G04 #@! TO.N,/GPIO13(PWM1)*
X242916200Y-105089500D03*
G04 #@! TO.P,U2,7*
G04 #@! TO.N,/GPIO9(SPI0_MISO)*
X242916200Y-104589500D03*
G04 #@! TO.P,U2,8*
G04 #@! TO.N,/GPIO11(SPI0_SCK)*
X242916200Y-104089500D03*
G04 #@! TO.P,U2,9*
G04 #@! TO.N,/ADC_SPI/4.5Volt*
X242916200Y-103589500D03*
G04 #@! TO.P,U2,10*
X242916200Y-103089500D03*
G04 #@! TD*
D20*
G04 #@! TO.P,U3,5*
G04 #@! TO.N,Net-(C8-Pad1)*
X249220300Y-103406200D03*
G04 #@! TO.P,U3,4*
G04 #@! TO.N,Net-(U3-Pad4)*
X249220300Y-105306200D03*
G04 #@! TO.P,U3,3*
G04 #@! TO.N,/ADC_SPI/4.5Volt*
X247020300Y-105306200D03*
G04 #@! TO.P,U3,2*
G04 #@! TO.N,GND*
X247020300Y-104356200D03*
G04 #@! TO.P,U3,1*
G04 #@! TO.N,/ADC_SPI/4.5Volt*
X247020300Y-103406200D03*
G04 #@! TD*
D22*
G04 #@! TO.P,U4,1*
G04 #@! TO.N,Net-(R4-Pad1)*
X239011500Y-111877500D03*
G04 #@! TO.P,U4,2*
G04 #@! TO.N,Net-(U4-Pad2)*
X239011500Y-112527500D03*
G04 #@! TO.P,U4,3*
G04 #@! TO.N,/ADC_SPI/V4.5A*
X239011500Y-113177500D03*
G04 #@! TO.P,U4,4*
G04 #@! TO.N,Net-(R1-Pad2)*
X239011500Y-113827500D03*
G04 #@! TO.P,U4,5*
G04 #@! TO.N,Net-(R2-Pad2)*
X243411500Y-113827500D03*
G04 #@! TO.P,U4,6*
G04 #@! TO.N,GND*
X243411500Y-113177500D03*
G04 #@! TO.P,U4,7*
G04 #@! TO.N,/ADC_SPI/V4.5A*
X243411500Y-112527500D03*
G04 #@! TO.P,U4,8*
G04 #@! TO.N,Net-(R3-Pad1)*
X243411500Y-111877500D03*
G04 #@! TD*
D20*
G04 #@! TO.P,U5,5*
G04 #@! TO.N,N/C*
X238018900Y-128958600D03*
G04 #@! TO.P,U5,4*
G04 #@! TO.N,Net-(R10-Pad2)*
X238018900Y-130858600D03*
G04 #@! TO.P,U5,3*
G04 #@! TO.N,Net-(C10-Pad1)*
X235818900Y-130858600D03*
G04 #@! TO.P,U5,2*
G04 #@! TO.N,GND*
X235818900Y-129908600D03*
G04 #@! TO.P,U5,1*
G04 #@! TO.N,Net-(C11-Pad1)*
X235818900Y-128958600D03*
G04 #@! TD*
G04 #@! TO.P,U6,1*
G04 #@! TO.N,/ADC_SPI/Sin*
X221442500Y-118481100D03*
G04 #@! TO.P,U6,2*
G04 #@! TO.N,GND*
X221442500Y-119431100D03*
G04 #@! TO.P,U6,3*
G04 #@! TO.N,/ADC_SPI/V4.5A*
X221442500Y-120381100D03*
G04 #@! TO.P,U6,4*
G04 #@! TO.N,Net-(R13-Pad1)*
X223642500Y-120381100D03*
G04 #@! TO.P,U6,5*
G04 #@! TO.N,N/C*
X223642500Y-118481100D03*
G04 #@! TD*
G04 #@! TO.P,U7,1*
G04 #@! TO.N,/ADC_SPI/V4.5A*
X235869700Y-135105400D03*
G04 #@! TO.P,U7,2*
G04 #@! TO.N,GND*
X235869700Y-136055400D03*
G04 #@! TO.P,U7,3*
G04 #@! TO.N,/ADC_SPI/V4.5A*
X235869700Y-137005400D03*
G04 #@! TO.P,U7,4*
G04 #@! TO.N,Net-(U7-Pad4)*
X238069700Y-137005400D03*
G04 #@! TO.P,U7,5*
G04 #@! TO.N,Net-(C24-Pad2)*
X238069700Y-135105400D03*
G04 #@! TD*
D12*
G04 #@! TO.N,/ADC_SPI/4.5Volt*
G04 #@! TO.C,C23*
G36*
X221313404Y-107952804D02*
X221337673Y-107956404D01*
X221361471Y-107962365D01*
X221384571Y-107970630D01*
X221406749Y-107981120D01*
X221427793Y-107993733D01*
X221447498Y-108008347D01*
X221465677Y-108024823D01*
X221482153Y-108043002D01*
X221496767Y-108062707D01*
X221509380Y-108083751D01*
X221519870Y-108105929D01*
X221528135Y-108129029D01*
X221534096Y-108152827D01*
X221537696Y-108177096D01*
X221538900Y-108201600D01*
X221538900Y-109451600D01*
X221537696Y-109476104D01*
X221534096Y-109500373D01*
X221528135Y-109524171D01*
X221519870Y-109547271D01*
X221509380Y-109569449D01*
X221496767Y-109590493D01*
X221482153Y-109610198D01*
X221465677Y-109628377D01*
X221447498Y-109644853D01*
X221427793Y-109659467D01*
X221406749Y-109672080D01*
X221384571Y-109682570D01*
X221361471Y-109690835D01*
X221337673Y-109696796D01*
X221313404Y-109700396D01*
X221288900Y-109701600D01*
X220363900Y-109701600D01*
X220339396Y-109700396D01*
X220315127Y-109696796D01*
X220291329Y-109690835D01*
X220268229Y-109682570D01*
X220246051Y-109672080D01*
X220225007Y-109659467D01*
X220205302Y-109644853D01*
X220187123Y-109628377D01*
X220170647Y-109610198D01*
X220156033Y-109590493D01*
X220143420Y-109569449D01*
X220132930Y-109547271D01*
X220124665Y-109524171D01*
X220118704Y-109500373D01*
X220115104Y-109476104D01*
X220113900Y-109451600D01*
X220113900Y-108201600D01*
X220115104Y-108177096D01*
X220118704Y-108152827D01*
X220124665Y-108129029D01*
X220132930Y-108105929D01*
X220143420Y-108083751D01*
X220156033Y-108062707D01*
X220170647Y-108043002D01*
X220187123Y-108024823D01*
X220205302Y-108008347D01*
X220225007Y-107993733D01*
X220246051Y-107981120D01*
X220268229Y-107970630D01*
X220291329Y-107962365D01*
X220315127Y-107956404D01*
X220339396Y-107952804D01*
X220363900Y-107951600D01*
X221288900Y-107951600D01*
X221313404Y-107952804D01*
X221313404Y-107952804D01*
G37*
D16*
G04 #@! TD*
G04 #@! TO.P,C23,1*
G04 #@! TO.N,/ADC_SPI/4.5Volt*
X220826400Y-108826600D03*
D12*
G04 #@! TO.N,GND*
G04 #@! TO.C,C23*
G36*
X224288404Y-107952804D02*
X224312673Y-107956404D01*
X224336471Y-107962365D01*
X224359571Y-107970630D01*
X224381749Y-107981120D01*
X224402793Y-107993733D01*
X224422498Y-108008347D01*
X224440677Y-108024823D01*
X224457153Y-108043002D01*
X224471767Y-108062707D01*
X224484380Y-108083751D01*
X224494870Y-108105929D01*
X224503135Y-108129029D01*
X224509096Y-108152827D01*
X224512696Y-108177096D01*
X224513900Y-108201600D01*
X224513900Y-109451600D01*
X224512696Y-109476104D01*
X224509096Y-109500373D01*
X224503135Y-109524171D01*
X224494870Y-109547271D01*
X224484380Y-109569449D01*
X224471767Y-109590493D01*
X224457153Y-109610198D01*
X224440677Y-109628377D01*
X224422498Y-109644853D01*
X224402793Y-109659467D01*
X224381749Y-109672080D01*
X224359571Y-109682570D01*
X224336471Y-109690835D01*
X224312673Y-109696796D01*
X224288404Y-109700396D01*
X224263900Y-109701600D01*
X223338900Y-109701600D01*
X223314396Y-109700396D01*
X223290127Y-109696796D01*
X223266329Y-109690835D01*
X223243229Y-109682570D01*
X223221051Y-109672080D01*
X223200007Y-109659467D01*
X223180302Y-109644853D01*
X223162123Y-109628377D01*
X223145647Y-109610198D01*
X223131033Y-109590493D01*
X223118420Y-109569449D01*
X223107930Y-109547271D01*
X223099665Y-109524171D01*
X223093704Y-109500373D01*
X223090104Y-109476104D01*
X223088900Y-109451600D01*
X223088900Y-108201600D01*
X223090104Y-108177096D01*
X223093704Y-108152827D01*
X223099665Y-108129029D01*
X223107930Y-108105929D01*
X223118420Y-108083751D01*
X223131033Y-108062707D01*
X223145647Y-108043002D01*
X223162123Y-108024823D01*
X223180302Y-108008347D01*
X223200007Y-107993733D01*
X223221051Y-107981120D01*
X223243229Y-107970630D01*
X223266329Y-107962365D01*
X223290127Y-107956404D01*
X223314396Y-107952804D01*
X223338900Y-107951600D01*
X224263900Y-107951600D01*
X224288404Y-107952804D01*
X224288404Y-107952804D01*
G37*
D16*
G04 #@! TD*
G04 #@! TO.P,C23,2*
G04 #@! TO.N,GND*
X223801400Y-108826600D03*
D23*
G04 #@! TO.P,RV1,1*
G04 #@! TO.N,Net-(C11-Pad2)*
X205060700Y-135527700D03*
D19*
G04 #@! TO.P,RV1,2*
G04 #@! TO.N,Net-(C14-Pad1)*
X201060700Y-136677700D03*
D23*
G04 #@! TO.P,RV1,3*
G04 #@! TO.N,GND*
X205060700Y-137827700D03*
G04 #@! TD*
D10*
G04 #@! TO.P,J2,1*
G04 #@! TO.N,GND*
X244030900Y-132080300D03*
D11*
G04 #@! TO.P,J2,2*
G04 #@! TO.N,/PREAMP/Ain*
X246570900Y-132080300D03*
G04 #@! TO.P,J2,3*
G04 #@! TO.N,Net-(C24-Pad2)*
X249110900Y-132080300D03*
G04 #@! TD*
D12*
G04 #@! TO.N,GND*
G04 #@! TO.C,C24*
G36*
X233178404Y-135257804D02*
X233202673Y-135261404D01*
X233226471Y-135267365D01*
X233249571Y-135275630D01*
X233271749Y-135286120D01*
X233292793Y-135298733D01*
X233312498Y-135313347D01*
X233330677Y-135329823D01*
X233347153Y-135348002D01*
X233361767Y-135367707D01*
X233374380Y-135388751D01*
X233384870Y-135410929D01*
X233393135Y-135434029D01*
X233399096Y-135457827D01*
X233402696Y-135482096D01*
X233403900Y-135506600D01*
X233403900Y-136756600D01*
X233402696Y-136781104D01*
X233399096Y-136805373D01*
X233393135Y-136829171D01*
X233384870Y-136852271D01*
X233374380Y-136874449D01*
X233361767Y-136895493D01*
X233347153Y-136915198D01*
X233330677Y-136933377D01*
X233312498Y-136949853D01*
X233292793Y-136964467D01*
X233271749Y-136977080D01*
X233249571Y-136987570D01*
X233226471Y-136995835D01*
X233202673Y-137001796D01*
X233178404Y-137005396D01*
X233153900Y-137006600D01*
X232228900Y-137006600D01*
X232204396Y-137005396D01*
X232180127Y-137001796D01*
X232156329Y-136995835D01*
X232133229Y-136987570D01*
X232111051Y-136977080D01*
X232090007Y-136964467D01*
X232070302Y-136949853D01*
X232052123Y-136933377D01*
X232035647Y-136915198D01*
X232021033Y-136895493D01*
X232008420Y-136874449D01*
X231997930Y-136852271D01*
X231989665Y-136829171D01*
X231983704Y-136805373D01*
X231980104Y-136781104D01*
X231978900Y-136756600D01*
X231978900Y-135506600D01*
X231980104Y-135482096D01*
X231983704Y-135457827D01*
X231989665Y-135434029D01*
X231997930Y-135410929D01*
X232008420Y-135388751D01*
X232021033Y-135367707D01*
X232035647Y-135348002D01*
X232052123Y-135329823D01*
X232070302Y-135313347D01*
X232090007Y-135298733D01*
X232111051Y-135286120D01*
X232133229Y-135275630D01*
X232156329Y-135267365D01*
X232180127Y-135261404D01*
X232204396Y-135257804D01*
X232228900Y-135256600D01*
X233153900Y-135256600D01*
X233178404Y-135257804D01*
X233178404Y-135257804D01*
G37*
D16*
G04 #@! TD*
G04 #@! TO.P,C24,1*
G04 #@! TO.N,GND*
X232691400Y-136131600D03*
D12*
G04 #@! TO.N,Net-(C24-Pad2)*
G04 #@! TO.C,C24*
G36*
X230203404Y-135257804D02*
X230227673Y-135261404D01*
X230251471Y-135267365D01*
X230274571Y-135275630D01*
X230296749Y-135286120D01*
X230317793Y-135298733D01*
X230337498Y-135313347D01*
X230355677Y-135329823D01*
X230372153Y-135348002D01*
X230386767Y-135367707D01*
X230399380Y-135388751D01*
X230409870Y-135410929D01*
X230418135Y-135434029D01*
X230424096Y-135457827D01*
X230427696Y-135482096D01*
X230428900Y-135506600D01*
X230428900Y-136756600D01*
X230427696Y-136781104D01*
X230424096Y-136805373D01*
X230418135Y-136829171D01*
X230409870Y-136852271D01*
X230399380Y-136874449D01*
X230386767Y-136895493D01*
X230372153Y-136915198D01*
X230355677Y-136933377D01*
X230337498Y-136949853D01*
X230317793Y-136964467D01*
X230296749Y-136977080D01*
X230274571Y-136987570D01*
X230251471Y-136995835D01*
X230227673Y-137001796D01*
X230203404Y-137005396D01*
X230178900Y-137006600D01*
X229253900Y-137006600D01*
X229229396Y-137005396D01*
X229205127Y-137001796D01*
X229181329Y-136995835D01*
X229158229Y-136987570D01*
X229136051Y-136977080D01*
X229115007Y-136964467D01*
X229095302Y-136949853D01*
X229077123Y-136933377D01*
X229060647Y-136915198D01*
X229046033Y-136895493D01*
X229033420Y-136874449D01*
X229022930Y-136852271D01*
X229014665Y-136829171D01*
X229008704Y-136805373D01*
X229005104Y-136781104D01*
X229003900Y-136756600D01*
X229003900Y-135506600D01*
X229005104Y-135482096D01*
X229008704Y-135457827D01*
X229014665Y-135434029D01*
X229022930Y-135410929D01*
X229033420Y-135388751D01*
X229046033Y-135367707D01*
X229060647Y-135348002D01*
X229077123Y-135329823D01*
X229095302Y-135313347D01*
X229115007Y-135298733D01*
X229136051Y-135286120D01*
X229158229Y-135275630D01*
X229181329Y-135267365D01*
X229205127Y-135261404D01*
X229229396Y-135257804D01*
X229253900Y-135256600D01*
X230178900Y-135256600D01*
X230203404Y-135257804D01*
X230203404Y-135257804D01*
G37*
D16*
G04 #@! TD*
G04 #@! TO.P,C24,2*
G04 #@! TO.N,Net-(C24-Pad2)*
X229716400Y-136131600D03*
D12*
G04 #@! TO.N,Net-(C4-Pad1)*
G04 #@! TO.C,C4*
G36*
X252867705Y-107365804D02*
X252891973Y-107369404D01*
X252915772Y-107375365D01*
X252938871Y-107383630D01*
X252961050Y-107394120D01*
X252982093Y-107406732D01*
X253001799Y-107421347D01*
X253019977Y-107437823D01*
X253036453Y-107456001D01*
X253051068Y-107475707D01*
X253063680Y-107496750D01*
X253074170Y-107518929D01*
X253082435Y-107542028D01*
X253088396Y-107565827D01*
X253091996Y-107590095D01*
X253093200Y-107614599D01*
X253093200Y-108514601D01*
X253091996Y-108539105D01*
X253088396Y-108563373D01*
X253082435Y-108587172D01*
X253074170Y-108610271D01*
X253063680Y-108632450D01*
X253051068Y-108653493D01*
X253036453Y-108673199D01*
X253019977Y-108691377D01*
X253001799Y-108707853D01*
X252982093Y-108722468D01*
X252961050Y-108735080D01*
X252938871Y-108745570D01*
X252915772Y-108753835D01*
X252891973Y-108759796D01*
X252867705Y-108763396D01*
X252843201Y-108764600D01*
X252193199Y-108764600D01*
X252168695Y-108763396D01*
X252144427Y-108759796D01*
X252120628Y-108753835D01*
X252097529Y-108745570D01*
X252075350Y-108735080D01*
X252054307Y-108722468D01*
X252034601Y-108707853D01*
X252016423Y-108691377D01*
X251999947Y-108673199D01*
X251985332Y-108653493D01*
X251972720Y-108632450D01*
X251962230Y-108610271D01*
X251953965Y-108587172D01*
X251948004Y-108563373D01*
X251944404Y-108539105D01*
X251943200Y-108514601D01*
X251943200Y-107614599D01*
X251944404Y-107590095D01*
X251948004Y-107565827D01*
X251953965Y-107542028D01*
X251962230Y-107518929D01*
X251972720Y-107496750D01*
X251985332Y-107475707D01*
X251999947Y-107456001D01*
X252016423Y-107437823D01*
X252034601Y-107421347D01*
X252054307Y-107406732D01*
X252075350Y-107394120D01*
X252097529Y-107383630D01*
X252120628Y-107375365D01*
X252144427Y-107369404D01*
X252168695Y-107365804D01*
X252193199Y-107364600D01*
X252843201Y-107364600D01*
X252867705Y-107365804D01*
X252867705Y-107365804D01*
G37*
D15*
G04 #@! TD*
G04 #@! TO.P,C4,1*
G04 #@! TO.N,Net-(C4-Pad1)*
X252518200Y-108064600D03*
D12*
G04 #@! TO.N,GND*
G04 #@! TO.C,C4*
G36*
X254917705Y-107365804D02*
X254941973Y-107369404D01*
X254965772Y-107375365D01*
X254988871Y-107383630D01*
X255011050Y-107394120D01*
X255032093Y-107406732D01*
X255051799Y-107421347D01*
X255069977Y-107437823D01*
X255086453Y-107456001D01*
X255101068Y-107475707D01*
X255113680Y-107496750D01*
X255124170Y-107518929D01*
X255132435Y-107542028D01*
X255138396Y-107565827D01*
X255141996Y-107590095D01*
X255143200Y-107614599D01*
X255143200Y-108514601D01*
X255141996Y-108539105D01*
X255138396Y-108563373D01*
X255132435Y-108587172D01*
X255124170Y-108610271D01*
X255113680Y-108632450D01*
X255101068Y-108653493D01*
X255086453Y-108673199D01*
X255069977Y-108691377D01*
X255051799Y-108707853D01*
X255032093Y-108722468D01*
X255011050Y-108735080D01*
X254988871Y-108745570D01*
X254965772Y-108753835D01*
X254941973Y-108759796D01*
X254917705Y-108763396D01*
X254893201Y-108764600D01*
X254243199Y-108764600D01*
X254218695Y-108763396D01*
X254194427Y-108759796D01*
X254170628Y-108753835D01*
X254147529Y-108745570D01*
X254125350Y-108735080D01*
X254104307Y-108722468D01*
X254084601Y-108707853D01*
X254066423Y-108691377D01*
X254049947Y-108673199D01*
X254035332Y-108653493D01*
X254022720Y-108632450D01*
X254012230Y-108610271D01*
X254003965Y-108587172D01*
X253998004Y-108563373D01*
X253994404Y-108539105D01*
X253993200Y-108514601D01*
X253993200Y-107614599D01*
X253994404Y-107590095D01*
X253998004Y-107565827D01*
X254003965Y-107542028D01*
X254012230Y-107518929D01*
X254022720Y-107496750D01*
X254035332Y-107475707D01*
X254049947Y-107456001D01*
X254066423Y-107437823D01*
X254084601Y-107421347D01*
X254104307Y-107406732D01*
X254125350Y-107394120D01*
X254147529Y-107383630D01*
X254170628Y-107375365D01*
X254194427Y-107369404D01*
X254218695Y-107365804D01*
X254243199Y-107364600D01*
X254893201Y-107364600D01*
X254917705Y-107365804D01*
X254917705Y-107365804D01*
G37*
D15*
G04 #@! TD*
G04 #@! TO.P,C4,2*
G04 #@! TO.N,GND*
X254568200Y-108064600D03*
M02*
